<svg xmlns="http://www.w3.org/2000/svg" viewBox="0 0 40 40"><defs><style>.a{fill:#ffe6e6;}.b{fill:#c00;}</style></defs><circle class="a" cx="20" cy="20" r="19"/><path class="b" d="M20,2A18,18,0,1,1,2,20,18.2,18.2,0,0,1,20,2m0-2A20,20,0,1,0,40,20,20.2,20.2,0,0,0,20,0Z"/><path class="b" d="M21.8,27.1l7.4,2.8a.4.4,0,0,1,.2.5l-.3.6c0,.2-.1.2-.3.2h-.1l-8.8-3.3L11,31.2h-.1c-.1,0-.2,0-.3-.2l-.2-.6c-.2-.2-.1-.4.1-.5L18,27.1l-7.5-2.8c-.2-.1-.2-.2-.1-.4l.2-.7.3-.2c.1,0,.1,0,.1.1l8.9,3.3,8.8-3.3a.1.1,0,0,1,.1-.1c.2,0,.3.1.3.2l.3.7c.1.2.1.3-.2.4Zm-5.7-8a5,5,0,0,1-2.4-4.3A4.8,4.8,0,0,1,15.5,11a6.3,6.3,0,0,1,4.4-1.6A6,6,0,0,1,24.2,11,4.8,4.8,0,0,1,26,14.8a5.1,5.1,0,0,1-2.3,4.3l.2,1.3a1,1,0,0,1-.1.9,1,1,0,0,1-.7.4H16.6l-.4-.2-.4-.5v-.6Zm7.2-7.2a5.2,5.2,0,0,0-3.4-1.2,5,5,0,0,0-3.4,1.2,3.8,3.8,0,0,0-1.4,2.9A3.7,3.7,0,0,0,16.9,18l.7.5-.2.9-.2.9h5.3v-.9l-.3-.9.8-.5a3.7,3.7,0,0,0,1.8-3.2A3.8,3.8,0,0,0,23.3,11.9Zm-4.4,4a.9.9,0,0,1-.7.3,1.1,1.1,0,0,1-.8-.3,1,1,0,0,1,0-1.4,1.1,1.1,0,0,1,.8-.3,1,1,0,0,1,.7,1.7Zm3.4,0a1,1,0,1,1-1.4-1.4,1,1,0,1,1,1.4,1.4Z"/></svg>