<svg xmlns="http://www.w3.org/2000/svg" viewBox="0 0 100 100" id="eventstore"><path fill="#57B050" d="M15.67 23.409a10.567 10.567 0 0 0 3.773-2.107 11.33 11.33 0 0 0 2.649-3.36c.255-.492.475-.994.662-1.507l-3.257.701-1.939-2.35a5.96 5.96 0 0 1-.478.986v-.007c-.767 1.306-1.845 2.235-3.225 2.835l-.051.021-.629 2.775 2.412 2.039c.027-.01.056-.017.083-.026zM10.566 6.426c.315 0 .644 0 .99.029a7.792 7.792 0 0 1 4.006 1.575c.114.074.222.164.327.255l3.616-.435 1.314-3.486a11.21 11.21 0 0 0-1.941-1.896 11.225 11.225 0 0 0-3.844-1.93 15.163 15.163 0 0 0-2.016-.42 15.089 15.089 0 0 0-1.46-.113c-.822-.014-1.633 0-2.46.09L11.826 3.2l-1.26 3.226zm-5.79 8.092.006.014.026.006-.032-.02zm.505-10.795c-.597.397-1.152.854-1.667 1.376a10.337 10.337 0 0 0-2.064 2.96l2.055-.434 1.261 1.529c.043-.102.088-.201.139-.3a7.298 7.298 0 0 1 2.264-2.73l-.188-1.71-1.79-.69-.01-.001zm.905 13.111a7.465 7.465 0 0 1-1.404-2.302l-2.195-.503-1.636 1.919c.105.375.226.75.375 1.125a10.94 10.94 0 0 0 2.341 3.6 10.809 10.809 0 0 0 2.001 1.605l-.12-2.864 2.201-1.261a6.415 6.415 0 0 1-1.563-1.319z"></path><path fill="#57B050" d="m5.787 3.411 1.72.658.178 1.737.195-.12c.9-.54 1.86-.915 2.88-1.11l.525-1.319-1.127-1.274a10.281 10.281 0 0 0-3.037.765c-.463.192-.907.413-1.334.663zM23.38 13.915a13.025 13.025 0 0 0-.12-4.252 12.637 12.637 0 0 0-1.54-4.004 12.348 12.348 0 0 0-.563-.854v-.001h-.026L19.824 8.28l-3.511.42a5.773 5.773 0 0 1 1.455 2.85 5.87 5.87 0 0 1-.06 2.709l1.951 2.357 3.257-.699a12.99 12.99 0 0 0 .464-2.002zM1.323 8.582l-.016.039A11.312 11.312 0 0 0 .5 12.82c0 .869.09 1.721.283 2.554l1.591-1.881 2.221.505a6.642 6.642 0 0 1-.21-.969c-.195-1.17-.106-2.296.285-3.38L3.433 8.14l-2.101.444-.009-.002zm5.866 14.485c1.338.571 2.736.879 4.192.925a12.608 12.608 0 0 0 3.661-.401l-2.388-2.02.625-2.757a6.468 6.468 0 0 1-3.531.141 6.81 6.81 0 0 1-1.519-.54l-2.201 1.26.119 2.882c.337.188.682.357 1.042.51z"></path><path fill="#57B050" d="m5.782 3.414.005-.003-.005-.002z"></path></svg>