<svg fill="none" height="16" viewBox="0 0 66 16" width="66" xmlns="http://www.w3.org/2000/svg"><g fill="#5ab552"><path d="m12.66 5.23055.8761-2.32452c-.3769-.47026-.8087-.89188-1.2952-1.26538-.771-.59196-1.6249-1.019545-2.56128-1.283034-.44269-.125204-.89065-.217395-1.34361-.2761334-.32188-.0417053-.64586-.0669041-.97301-.07515739-.54287-.01633091-1.08688-.00105362-1.63186.04600749l1.81229 2.0638373-.83911 2.1534c.21459-.00816.43409-.00167.65868.01993.99355.10194 1.88359.45156 2.6695 1.04861.0757.05742.1484.11642.2188.17735z"/><path d="m4.40648 1.82863c-.31038.12889-.60785.2771-.89232.44471l1.15475.4462.12705 1.16055c.04267-.0274.08578-.05409.12942-.08008.59819-.35699 1.23606-.60319 1.91388-.73875l.34321-.88143-.75254-.85667c-.69459.06594-1.36899.23451-2.02345.50547z"/><path d="m4.38023 2.94098-1.19426-.4621c-.39747.26498-.76808.57044-1.11138.91664-.57571.58071-1.03412 1.2386-1.37531 1.97367l1.36943-.28904.83366 1.01831c.0288-.06611.05918-.13214.0914-.1979.36078-.73849.86493-1.34572 1.5114-1.82178z"/><path d="m11.0441 10.5165c.128-.216.2341-.4358.3181-.65938l1.293 1.56548 2.1694-.4676c-.1238.3422-.2712.6771-.4411 1.0049-.4463.8599-1.0345 1.6064-1.765 2.2397-.7419.6426-1.58 1.1116-2.515 1.4064l-.0558.0173-1.608-1.3596.42153-1.8514.03152-.0132c.92103-.3911 1.63805-1.0189 2.15135-1.8826z"/><path d="m14.1347 3.7699c-.1175-.19659-.242-.38659-.3746-.56974l-.8742 2.31908-2.3409.27727c.4958.52496.8196 1.15897.9715 1.90168.1281.62637.1147 1.22824-.0406 1.80544l1.2991 1.57187 2.1663-.4659c.136-.4337.2361-.8783.3007-1.33469.1346-.94912.108-1.89421-.08-2.83482-.1894-.94816-.5318-1.83837-1.0273-2.67019z"/><path d="m.548157 5.71881 1.399283-.29492.82444 1.00637c-.25234.72225-.31555 1.47365-.18991 2.25375.03547.22161.08429.43725.14593.64648l-1.47734-.33707-1.06142 1.25408c-.1273107-.55545-.19035158-1.12334-.18912237-1.70326.00193162-.96686.18113237-1.9001.53786637-2.79909.003337-.00887.006761-.01773.010273-.02634z"/><path d="m3.78185 11.2213c-.41302-.468-.72567-.9828-.93789-1.54426l-1.47698-.33733-1.082495 1.27759c.07147.2528.156812.5028.2555.7503.362265.9051.883625 1.7064 1.563995 2.4044.40564.4161.85008.7757 1.33369 1.0784l-.07937-1.911 1.46688-.8392c-.38325-.2325-.73111-.5254-1.04333-.8789z"/><path d="m5.14476 12.2765c.31555.1569.65315.2766 1.01225.3592.80487.1866 1.58937.1551 2.3535-.0935l-.4175 1.8382 1.59253 1.3464c-.79661.2083-1.6107.2974-2.44173.2676-.96985-.0315-1.90054-.2368-2.79303-.6168-.23908-.1015-.47-.2143-.69336-.3383l-.0792-1.9237z"/></g><g fill="#fff"><path clip-rule="evenodd" d="m54.8815 6.78066c0 1.65812-.5447 3.74504-1.5767 4.77684-.4868.4871-1.0433.742-1.7278.742-1.6925 0-1.936-1.6927-1.936-2.55047 0-1.58841.5451-3.6756 1.6233-4.7307.464-.45209 1.032-.71874 1.7162-.71874 1.6923 0 1.901 1.55363 1.901 2.48107zm-2.62-.9622c-.719.73023-1.1249 2.91024-1.1249 4.06964 0 .4405.0579 1.1361.661 1.1361.1626 0 .3366-.0811.4751-.2319.7771-.7651 1.1132-3.28113 1.1132-4.12762 0-.49836-.0695-1.08978-.603-1.08978-.1852 0-.3592.0813-.5214.24356z" fill-rule="evenodd"/><path d="m41.8956 10.7227c.255.1509.6607.2668 1.0781.2668.6611.023 1.1246-.3827 1.1246-.99726 0-.52163-.2897-.82313-.7768-1.30999-.6145-.57975-.9275-1.20568-.9275-1.88982 0-1.44924 1.0204-2.46974 2.5505-2.46974.603 0 .9858.12757 1.1714.24355l-.3944 1.25222c-.2318-.12758-.487-.20888-.8463-.20888-.6146 0-1.032.39431-1.0434.99733 0 .37087.1508.66078.7768 1.21735.6377.56798.9389 1.25213.9389 1.87823 0 1.62331-1.0782 2.57401-2.5621 2.57401-.7767 0-1.2755-.1741-1.4608-.29z"/><path d="m21.5423 8.75188h-1.7159l-.4287 2.16812h1.9708l-.2548 1.2867h-3.409l1.496-7.81448h3.2692l-.255 1.2754h-1.7969l-.3829 1.85514h1.7508z"/><path d="m22.837 12.2067-.2431-7.81448h1.6114l-.1045 3.95375c-.0228.70715-.0695 1.6115-.1158 2.21443h.0232c.1622-.60293.429-1.51869.6728-2.21443l1.4025-3.95375h1.6002l-3.2695 7.81448z"/><path d="m28.6064 8.75188h1.7157l.2435-1.22912h-1.7508l.3828-1.85514h1.797l.2551-1.2754h-3.2695l-1.4958 7.81448h3.4087l.2552-1.2867h-1.9711z"/><path d="m30.6406 12.2067 1.496-7.81448h1.3214l.6031 3.10736c.197 1.03157.3243 1.77401.3823 2.42338h.0232c.0178-.14552.0365-.30503.0565-.47595l.0005-.00367.0001-.0011c.0982-.83637.2282-1.94446.4299-3.02077l.3827-2.02925h1.2523l-1.4957 7.81448h-1.2404l-.6263-2.90985c-.2437-1.09004-.3132-1.62325-.3942-2.59731h-.0231c-.1043.78836-.2782 2.07543-.5337 3.43176l-.3941 2.0754z"/><path d="m36.5972 5.76042h1.3566l-1.2293 6.44628h1.4495l1.229-6.44628h1.3567l.2668-1.3682h-4.1624z"/><path d="m46.1619 5.76042h1.3566l-1.2293 6.44628h1.4496l1.2287-6.44628h1.3568l.2665-1.3682h-4.162z"/><path clip-rule="evenodd" d="m57.6964 4.35736c-.522 0-1.0669.05804-1.5538.13934l-1.4725 7.71h1.4146l.5796-3.13031h.2435c.4868 0 .684.31309.684 1.26381 0 .8581.0234 1.6463.0582 1.8665h1.4607c-.0783-.2796-.1025-1.1857-.1251-2.0303l-.0025-.0912c-.0231-.86947-.2085-1.32182-.6376-1.51885v-.02335c.893-.30125 1.5883-1.21736 1.5883-2.36509 0-.5103-.1854-.96247-.51-1.28707-.4059-.40573-1.0552-.53348-1.7274-.53348zm-.4636 3.59439h-.3364l.4521-2.4233c.0929-.02309.232-.03486.3824-.03486.545 0 .7189.44076.7189.85808 0 .82313-.4871 1.60008-1.217 1.60008z" fill-rule="evenodd"/><path d="m63.4514 8.75188h-1.7158l-.4289 2.16812h1.9707l-.255 1.2867h-3.4086l1.4958-7.81448h3.2692l-.2551 1.2754h-1.7967l-.3828 1.85514h1.7507z"/><g clip-rule="evenodd" fill-rule="evenodd"><path d="m64.7372 11.2749v.6655h.1744v-.2354h.0366l.0383.0024c.0266.0016.0464.0052.0594.0106.0239.0093.0402.0255.0489.0489.0055.0141.0091.0412.0111.0814.0018.0403.0055.0709.011.0921h.1661l-.0061-.0187c-.0024-.0065-.0039-.0131-.0048-.0196s-.0014-.013-.0014-.0196v-.0594c0-.0679-.0195-.1177-.0586-.1493-.0211-.0169-.0527-.0298-.0945-.0385.0456-.0049.084-.0197.1153-.0446.0312-.0248.0468-.0652.0468-.1211 0-.0734-.0296-.1263-.0887-.1589-.0348-.0189-.0785-.0304-.1312-.0342-.0092-.0005-.055-.001-.1372-.0012-.0823-.0003-.1441-.0004-.1854-.0004zm.2167.1172c.0435 0 .0771.0047.101.0139.0359.0142.0538.0394.0538.0758 0 .0363-.0114.0628-.0343.079-.0228.0163-.0546.0244-.0952.0244h-.0676v-.1931z"/><path d="m65.0003 12.2067c.1635 0 .3036-.0565.4203-.1694.1201-.1167.18-.2604.18-.4308 0-.1657-.0586-.3072-.1759-.4245s-.2588-.1759-.4244-.1759c-.1579 0-.2957.0543-.413.1628-.1249.1164-.1873.2621-.1873.4376 0 .1689.0579.311.1735.4268.1157.1156.258.1734.4268.1734zm-.496-.6003c0-.134.0477-.2501.1433-.3478.0972-.0999.2148-.1499.3526-.1499.1364 0 .2532.05.3505.1499.0959.0983.144.2142.144.3478 0 .1374-.0483.2552-.1449.3534-.0967.0979-.2132.1467-.3496.1467-.1368 0-.2534-.0486-.3501-.1458-.0972-.0972-.1458-.2153-.1458-.3543z"/></g></g></svg>