<svg width="628" height="96" viewBox="0 0 628 96" fill="none" xmlns="http://www.w3.org/2000/svg">
<g clip-path="url(#clip0_8345_95)">
<path d="M0.586914 95.5142L0.58691 0.102798L8.53786 13.0231L8.53786 82.5939L0.586914 95.5142Z" fill="#631B3A"/>
<path d="M13.1357 95.5142L13.1357 0.102798L21.0867 17.9924L21.0867 77.6245L13.1357 95.5142Z" fill="#631B3A"/>
<path d="M25.6846 95.5142L25.6846 0.102798L33.6355 22.9618L33.6355 72.6552L25.6846 95.5142Z" fill="#631B3A"/>
<path d="M38.2344 95.5142L38.2344 0.102798L46.1853 27.9311L46.1853 67.6858L38.2344 95.5142Z" fill="#631B3A"/>
<path d="M50.7832 95.5142L50.7832 0.102798L58.7341 32.9005L58.7341 62.7165L50.7832 95.5142Z" fill="#631B3A"/>
<path d="M63.332 95.5142L63.332 0.102798L71.283 37.8698L71.283 57.7472L63.332 95.5142Z" fill="#631B3A"/>
<path d="M75.8809 95.5142L75.8809 0.102798L83.8318 42.8391L83.8318 52.7778L75.8809 95.5142Z" fill="#631B3A"/>
<path d="M88.4307 95.5142L88.4307 0.102798L96.3816 47.8085L88.4307 95.5142Z" fill="#631B3A"/>
</g>
<path d="M202.756 83.5802V77.646C200.895 80.1394 198.75 82.0011 196.323 83.2312C193.93 84.428 191.187 85.0264 188.095 85.0264C181.214 85.0264 175.928 82.9153 172.237 78.6932C168.547 74.4711 166.702 68.4039 166.702 60.4917V28.7262H179.618V53.3606C179.618 60.7742 180.466 65.8441 182.161 68.5702C183.857 71.2962 186.782 72.6593 190.938 72.6593C195.193 72.6593 198.235 71.13 200.063 68.0715C201.925 65.013 202.856 59.8268 202.856 52.5129V28.7262H215.423V83.5802H202.756Z" fill="#631B3A"/>
<path d="M252.225 39.8466C247.271 40.2455 243.814 41.5421 241.852 43.7362C239.891 45.9304 238.91 49.8865 238.91 55.6047V83.5802H226.144V28.7262H238.112V35.0593C240.04 32.5992 242.151 30.804 244.445 29.6736C246.739 28.5101 249.332 27.9283 252.225 27.9283V39.8466Z" fill="#631B3A"/>
<path d="M284.838 39.8466C279.884 40.2455 276.427 41.5421 274.465 43.7362C272.504 45.9304 271.523 49.8865 271.523 55.6047V83.5802H258.757V28.7262H270.725V35.0593C272.654 32.5992 274.765 30.804 277.059 29.6736C279.352 28.5101 281.946 27.9283 284.838 27.9283V39.8466Z" fill="#631B3A"/>
<path d="M330.167 50.0694C329.07 46.4124 327.225 43.6365 324.632 41.7415C322.072 39.8133 318.831 38.8492 314.908 38.8492C311.517 38.8492 308.475 39.8798 305.782 41.941C303.089 44.0022 301.277 46.7116 300.347 50.0694H330.167ZM299.898 60.1925C300.33 64.1486 301.893 67.2736 304.585 69.5675C307.311 71.8282 310.819 72.9585 315.107 72.9585C317.966 72.9585 320.526 72.3601 322.787 71.1633C325.081 69.9664 326.893 68.2876 328.222 66.1267H341.986C339.659 72.1107 336.168 76.765 331.514 80.0895C326.893 83.3808 321.54 85.0264 315.456 85.0264C311.367 85.0264 307.594 84.3116 304.137 82.8821C300.712 81.4193 297.637 79.275 294.911 76.4492C292.318 73.7564 290.307 70.648 288.877 67.124C287.448 63.5668 286.733 59.9265 286.733 56.2031C286.733 52.3799 287.381 48.7895 288.678 45.4317C290.007 42.0407 291.952 38.9988 294.512 36.306C297.305 33.3472 300.463 31.0699 303.987 29.4742C307.511 27.8784 311.151 27.0805 314.908 27.0805C319.662 27.0805 324.1 28.161 328.222 30.3219C332.345 32.4828 335.852 35.5247 338.744 39.4476C340.506 41.808 341.803 44.451 342.634 47.3765C343.499 50.3021 343.931 53.6598 343.931 57.4497C343.931 57.749 343.914 58.2144 343.881 58.846C343.848 59.4444 343.831 59.8932 343.831 60.1925H299.898Z" fill="#631B3A"/>
<path d="M364.426 28.7262V34.9596C366.288 32.4662 368.416 30.6211 370.809 29.4243C373.236 28.2275 375.995 27.6291 379.087 27.6291C383.043 27.6291 386.484 28.3771 389.41 29.8731C392.369 31.3691 394.829 33.6132 396.79 36.6052C398.053 38.5999 398.951 40.8772 399.483 43.437C400.048 45.9636 400.331 49.6704 400.331 54.5574V83.5802H387.565V59.2948C387.565 51.9477 386.717 46.9111 385.021 44.185C383.326 41.459 380.4 40.0959 376.245 40.0959C371.989 40.0959 368.931 41.6086 367.069 44.6338C365.207 47.6259 364.277 52.7788 364.277 60.0927V83.5802H351.959V28.7262H364.426Z" fill="#631B3A"/>
<path d="M409.26 83.5802V40.0959V28.7262V10.9734H422.026V28.7262H434.285V40.0959H418.047L422.026 45.7177V83.5802H409.26Z" fill="#631B3A"/>
<rect x="114.953" y="10.9734" width="12.2617" height="72.8039" fill="#631B3A"/>
<path d="M143.231 54.9999L162.061 28.7522H148.343L136.373 45.4434L129.514 54.9999L136.373 64.5564L150.044 83.608H163.762L143.231 54.9999Z" fill="#631B3A"/>
<path d="M462.377 34.4839V78.8491H473.543C480.512 78.8491 485.875 76.894 489.635 72.9839C493.395 69.0737 495.275 63.5343 495.275 56.3657C495.275 52.7814 494.636 49.4728 493.357 46.4399C492.079 43.4071 490.249 40.863 487.868 38.8076C486.089 37.2536 484.096 36.1507 481.89 35.499C479.684 34.8223 476.476 34.4839 472.265 34.4839H462.377ZM457.076 29.2578H472.641C476.927 29.2578 480.524 29.6839 483.432 30.5361C486.364 31.3883 488.946 32.7544 491.177 34.6343C494.31 37.2661 496.741 40.487 498.471 44.2969C500.2 48.1068 501.065 52.1799 501.065 56.5161C501.065 61.3537 500.112 65.7651 498.208 69.7505C496.303 73.7108 493.608 76.9442 490.124 79.4507C487.818 81.0799 485.324 82.2454 482.642 82.9473C479.96 83.6491 475.824 84 470.235 84H457.076V29.2578ZM510.916 63.2837C510.916 68.0461 512.432 72.0439 515.465 75.2773C518.498 78.4857 522.27 80.0898 526.782 80.0898C531.218 80.0898 534.94 78.4857 537.948 75.2773C540.956 72.0439 542.46 68.021 542.46 63.2085C542.46 58.3208 540.931 54.3104 537.873 51.1772C534.84 48.019 530.98 46.4399 526.293 46.4399C522.082 46.4399 518.46 48.0566 515.427 51.29C512.419 54.5234 510.916 58.5213 510.916 63.2837ZM505.351 63.3589C505.351 57.2931 507.431 52.1047 511.592 47.7935C515.753 43.4823 520.678 41.3267 526.368 41.3267C532.359 41.3267 537.459 43.4447 541.67 47.6807C545.906 51.9167 548.024 56.9673 548.024 62.8325C548.024 68.9985 545.957 74.2622 541.821 78.6235C537.685 82.9849 532.672 85.1655 526.782 85.1655C520.791 85.1655 515.715 83.035 511.555 78.7739C507.419 74.4878 505.351 69.3494 505.351 63.3589ZM587.389 55.3506C585.76 52.3428 583.767 50.1245 581.411 48.6958C579.08 47.242 576.298 46.5151 573.064 46.5151C568.803 46.5151 565.181 48.1318 562.199 51.3652C559.241 54.5986 557.762 58.5965 557.762 63.3589C557.762 68.1213 559.254 72.1066 562.236 75.3149C565.219 78.4982 568.904 80.0898 573.29 80.0898C576.498 80.0898 579.331 79.3003 581.787 77.7212C584.243 76.1421 586.111 73.9238 587.389 71.0664H593.254C591.65 75.5531 589.131 79.0246 585.697 81.481C582.263 83.9373 578.215 85.1655 573.553 85.1655C567.563 85.1655 562.5 83.0475 558.364 78.8115C554.253 74.5505 552.198 69.4246 552.198 63.4341C552.198 57.3182 554.278 52.1423 558.439 47.9062C562.625 43.6452 567.713 41.5146 573.704 41.5146C578.19 41.5146 582.138 42.7303 585.547 45.1616C588.981 47.5679 591.55 50.9642 593.254 55.3506H587.389ZM598.368 70.9912H603.819V71.1416C603.819 73.7233 604.559 75.8664 606.038 77.5708C607.516 79.2502 609.346 80.0898 611.527 80.0898C613.607 80.0898 615.337 79.4382 616.715 78.1348C618.094 76.8314 618.783 75.1896 618.783 73.2095C618.783 71.2293 618.232 69.6377 617.129 68.4346C616.051 67.2314 614.083 66.1035 611.226 65.0508C606.639 63.4215 603.644 61.7547 602.24 60.0503C600.837 58.3459 600.135 56.0649 600.135 53.2075C600.135 49.9741 601.3 47.2295 603.631 44.9736C605.987 42.7178 608.832 41.5898 612.166 41.5898C615.7 41.5898 618.507 42.5924 620.588 44.5977C622.668 46.6029 623.784 49.3976 623.934 52.9819H618.257C618.132 51.0269 617.505 49.5104 616.377 48.4326C615.274 47.3548 613.758 46.8159 611.828 46.8159C610.098 46.8159 608.657 47.4049 607.504 48.583C606.351 49.736 605.774 51.1772 605.774 52.9067C605.774 54.1349 606.013 55.1751 606.489 56.0273C606.965 56.8545 607.755 57.6064 608.857 58.2832C609.86 58.9098 611.314 59.5114 613.219 60.0879C615.149 60.6644 616.44 61.0905 617.091 61.3662C619.673 62.4691 621.565 63.9354 622.769 65.7651C623.997 67.5949 624.611 69.9259 624.611 72.7583C624.611 76.3175 623.37 79.2627 620.889 81.5938C618.407 83.9248 615.262 85.0903 611.452 85.0903C607.567 85.0903 604.446 83.8245 602.09 81.293C599.734 78.7363 598.493 75.3024 598.368 70.9912Z" fill="#631B3A"/>
<defs>
<clipPath id="clip0_8345_95">
<rect width="95.7946" height="96.5609" fill="white" transform="translate(0 95.8972) rotate(-90)"/>
</clipPath>
</defs>
</svg>
