<svg xmlns="http://www.w3.org/2000/svg" viewBox="0 0 40 40"><defs><style>.a{fill:#def0dc;}.b,.c{fill:#5ab552;}.c{fill-rule:evenodd;}</style></defs><circle class="a" cx="20" cy="20" r="19"/><path class="b" d="M20,2A18,18,0,1,1,2,20,18.1,18.1,0,0,1,20,2m0-2A20,20,0,1,0,40,20,20.1,20.1,0,0,0,20,0Z"/><path class="c" d="M14.5,11.6a7,7,0,0,0-2.1,5.3,6.8,6.8,0,0,0,1.9,5A15.3,15.3,0,0,1,15.7,24a7.1,7.1,0,0,1,.8,1.8v3.3a.8.8,0,0,0,.1.4l1,1.5a.9.9,0,0,0,.6.3h3.4a.7.7,0,0,0,.6-.3l1-1.5.2-.4V25.8a6.7,6.7,0,0,1,.7-1.8,8,8,0,0,1,1.5-2.1,7.8,7.8,0,0,0,1.9-5,7.6,7.6,0,0,0-7.6-7.6h0A7.4,7.4,0,0,0,14.5,11.6ZM21.3,30H18.6l-.7-1.1v-.3H22v.2Zm-3.4-2.8V25.8H22v1.4Zm4.5-2.7h-5A11.3,11.3,0,0,0,15.3,21a6.2,6.2,0,0,1-1.6-4.1,6.7,6.7,0,0,1,1.8-4.4,6.2,6.2,0,0,1,10.6,4.4h0A6.1,6.1,0,0,1,24.6,21a13.8,13.8,0,0,0-2.2,3.5Zm-5.9-11a4.8,4.8,0,0,0-1.4,3.4.7.7,0,0,0,.7.7.7.7,0,0,0,.7-.6h0a3.4,3.4,0,0,1,3.4-3.4.7.7,0,0,0,.7-.7.6.6,0,0,0-.6-.7h-.1A4.8,4.8,0,0,0,16.5,13.5Z"/></svg>