<svg xmlns="http://www.w3.org/2000/svg" viewBox="0 0 40 40"><defs><style>.a{fill:#fef1d1;}.b,.c{fill:#f8b81b;}.c{fill-rule:evenodd;}</style></defs><circle class="a" cx="20" cy="20" r="19"/><path class="b" d="M20,2A18,18,0,1,1,2,20,18.1,18.1,0,0,1,20,2m0-2A20,20,0,1,0,40,20,20.1,20.1,0,0,0,20,0Z"/><path class="c" d="M22.1,10.9c.1.1.2.2.1.4l-.6,11.3c.1.3-.1.5-.4.5H18.6a.7.7,0,0,1-.5-.4h0l-.6-11.3c0-.2,0-.3.1-.4l.4-.2h3.7Zm.5,16.3A2.8,2.8,0,0,1,19.9,30a2.8,2.8,0,0,1-2-.9,2.7,2.7,0,0,1,3.8-3.9.1.1,0,0,1,.1.1,2.7,2.7,0,0,1,.8,1.9ZM18,9.3a2,2,0,0,0-1.9,2h0l.6,11.4a2.3,2.3,0,0,0,.6,1.2,4.1,4.1,0,0,0-.7,5.8,3.9,3.9,0,0,0,3.3,1.6A4.1,4.1,0,0,0,24,27.2a4.2,4.2,0,0,0-1.6-3.3,1.4,1.4,0,0,0,.6-1.2l.6-11.4a2,2,0,0,0-1.8-2H18Z"/></svg>