<?xml version="1.0" encoding="UTF-8"?>
<!-- Generator: Adobe Illustrator 24.3.0, SVG Export Plug-In . SVG Version: 6.00 Build 0)  -->
<svg version="1.1" id="Layer_1" xmlns="http://www.w3.org/2000/svg" xmlns:xlink="http://www.w3.org/1999/xlink" x="0px" y="0px" viewBox="0 0 128 60.5" style="enable-background:new 0 0 128 60.5;" xml:space="preserve">
<style type="text/css">
	.st0{fill-rule:evenodd;clip-rule:evenodd;fill:#477ED0;}
	.st1{fill-rule:evenodd;clip-rule:evenodd;fill:#EC282C;}
</style>
<g>
	<path class="st0" d="M76.7,44c0,0,6.7-3.7,6.7-6.8c0-3.4-4.7-4.7-4.7-4.7s6.9,0.2,6.8,4.7C85.3,41.7,76.7,44,76.7,44L76.7,44z    M47.7,37.2c-3.6-1.7,7.4-4.7,7.4-4.7c-12.2,5.7,4.2,5.1,14.2,4.1c3.5-0.4,7.4-1.4,7.4-1.4C71.8,40.5,51.2,38.9,47.7,37.2   L47.7,37.2z M66.6,49.4c2.8-0.3,6.1-1.4,6.1-1.4c-2.5,3.5-14.5,3.3-17.6,2C52,48.8,52.4,46,52.4,46C54.4,48.7,61.4,49.9,66.6,49.4   L66.6,49.4z M73.3,42.6c0,0-14.6,3.6-19.6,1.4c-4.4-2-0.7-4.1-0.7-4.1C49.8,44.2,73.3,42.6,73.3,42.6L73.3,42.6z M61.2,54.8   c15.3,0,21.6-2.7,21.6-2.7c-2.1,5.7-36.6,6.3-39.8,2c-2.3-3,6.8-4.1,6.8-4.1C43.2,53.3,45.8,54.8,61.2,54.8L61.2,54.8z M84.8,54.8   C72.2,63.6,51,58.2,51,58.2C72.8,60,84.8,54.8,84.8,54.8L84.8,54.8z"/>
	<path class="st1" d="M63.2,31.8c0,0-7.6-3.8-6.8-10.2c0.9-7.5,10.4-10.4,12.5-13.8c1.8-3.1,1-7.2,1-7.2s2,3.3,1.3,6.1   c-0.9,4-4.5,6.2-8.7,9C59.4,17.7,54.3,20,63.2,31.8z"/>
	<path class="st1" d="M67.2,33.8c0,0,1.4-3.4-2-7.5c-3.4-4.1,1.2-11.4,10.8-13.6c0,0-11.5,5.1-8.8,11.1c1,2.2,2.5,4.2,1.7,6.5   C67.8,33.7,67.2,33.8,67.2,33.8z"/>
</g>
</svg>