<?xml version="1.0" encoding="UTF-8"?>
<!-- Generator: Adobe Illustrator 25.0.0, SVG Export Plug-In . SVG Version: 6.00 Build 0)  -->
<svg version="1.1" id="Layer_1" xmlns="http://www.w3.org/2000/svg" xmlns:xlink="http://www.w3.org/1999/xlink" x="0px" y="0px" viewBox="0 0 1200 734.9" style="enable-background:new 0 0 1200 734.9;" xml:space="preserve">
<style type="text/css">
	.st0{fill:#679E63;}
	.st1{fill-rule:evenodd;clip-rule:evenodd;fill:#333333;}
	.st2{fill-rule:evenodd;clip-rule:evenodd;fill:#679E63;}
	.st3{fill-rule:evenodd;clip-rule:evenodd;fill:url(#SVGID_1_);}
	.st4{clip-path:url(#SVGID_3_);}
	.st5{fill:none;}
	.st6{fill:url(#SVGID_4_);}
	.st7{fill:url(#SVGID_5_);}
	.st8{fill:url(#SVGID_6_);}
	.st9{fill:url(#SVGID_7_);}
	.st10{fill:url(#SVGID_8_);}
	.st11{fill:url(#SVGID_9_);}
</style>
<g>
	<path class="st0" d="M593.1,734.9c-4,0-7.9-1-11.4-3l-36.2-21.4c-5.3-3-2.7-4.1-0.9-4.7c5.7-1.8,11.2-4.3,16.3-7.5   c0.8-0.4,1.8-0.4,2.7,0l27.8,16.5c1.1,0.5,2.3,0.5,3.4,0l108.3-62.6c1.1-0.6,1.7-1.7,1.6-2.9V524.4c0-1.2-0.6-2.3-1.6-2.9   l-108.3-62.6c-1-0.5-2.3-0.5-3.3,0l-108.3,62.6c-1,0.6-1.7,1.7-1.8,2.9v125.1c0,1.2,0.7,2.3,1.8,2.9l29.7,17.1   c16.1,8.1,26-1.4,26-10.9V535.1c0.1-1.7,1.5-3,3.2-3h13.7c1.7,0,3.1,1.3,3.2,3v123.8c2.1,16.4-9.4,31.5-25.9,33.7   c-2,0.3-4.1,0.3-6.2,0.2c-8.9,0.2-17.7-2.2-25.3-6.8l-28.1-16.6c-7.1-4.1-11.4-11.6-11.4-19.8V524.4c0-8.2,4.3-15.7,11.4-19.8   L581.6,442c7.1-3.8,15.7-3.8,22.8,0l108.3,62.6c7,4.1,11.4,11.6,11.4,19.8v125.1c0,8.1-4.4,15.7-11.4,19.8l-108.3,62.6   C601,733.8,597.1,734.9,593.1,734.9z"/>
	<path class="st0" d="M626.6,648.7c-47.4,0-57.4-21.8-57.4-40c0-1.7,1.4-3,3-3c0,0,0.1,0,0.1,0h13.9c1.5-0.1,2.9,1,3.2,2.5   c2.2,14.3,8.5,21.5,37.1,21.5c22.8,0,32.6-5.2,32.6-17.4c0-7-2.8-12.7-38-15.6c-29.7-2.9-48-9.5-48-33.2s18.5-34.8,49.4-34.8   c34.7,0,51.8,12.7,54,38c0.1,0.9-0.2,1.7-0.8,2.4c-0.6,0.6-1.4,1-2.3,1h-14.3c-1.5,0-2.7-1.1-3-2.5c-3.4-15-11.7-19.8-33.8-19.8   c-25.3,0-27.9,8.6-27.9,15.2c0,6.6,3.4,10.1,37.1,14.6c33.7,4.4,49,10.6,49,34.1S660.9,648.7,626.6,648.7z"/>
	<path class="st0" d="M782.8,517.6c0,11.5-9.4,20.9-20.9,20.9c-11.5,0-20.9-9.4-20.9-20.9c0-11.5,9.4-20.9,20.9-20.9   C773.5,496.7,782.8,506,782.8,517.6L782.8,517.6z M744.8,517.6c-0.1,9.7,7.7,17.5,17.4,17.6c9.7,0.1,17.5-7.7,17.6-17.4   c0.1-9.7-7.7-17.5-17.4-17.6c0,0-0.1,0-0.1,0c-9.7-0.2-17.7,7.4-17.9,17.1c0,0,0,0.1,0,0.1L744.8,517.6z M754.5,505.9h8.1   c2.8,0,8.2,0,8.2,6.2c0.2,2.8-1.7,5.3-4.4,5.8c3.2,0,3.4,2.3,3.8,5.3c0.2,2.1,0.6,4.1,1.3,6.1h-4.9c0-1-0.9-7-0.9-7.3   s-0.9-2.5-2.9-2.5h-4.1v9.4h-4.6L754.5,505.9z M758.9,516.3h3.7c1.7,0.2,3.3-1,3.5-2.8c0-0.2,0-0.4,0-0.7c0-3.2-2.3-3.2-3.4-3.2   h-3.8V516.3z"/>
	<path class="st1" d="M257.9,245.5c0-4.9-2.6-9.5-6.8-12l-114.9-66c-1.9-1.2-4.1-1.8-6.3-1.9h-1.3c-2.2,0.1-4.4,0.7-6.3,1.9L7,233.5   c-4.3,2.5-7,7.1-7,12v178.2c0.1,3.8,3.2,6.9,7.1,6.9c1.2,0,2.3-0.3,3.3-0.9l68.2-39.2c4.5-2.6,7.2-7.5,7-12.7v-82.5   c0-5,2.7-9.6,7-12l29.3-17.2c2.1-1.2,4.5-1.9,7-1.9c2.5,0,4.9,0.7,7,1.9l29,16.7c4.3,2.5,7,7.1,7,12v83.1c-0.2,5.2,2.5,10.1,7,12.7   l68.3,39.2c2.1,1.3,4.7,1.3,6.8,0c2.1-1.2,3.5-3.5,3.5-6L257.9,245.5z"/>
	<path class="st1" d="M810.3,0.8c-3.4-1.8-7.6-0.5-9.4,2.8c-0.5,1-0.8,2.1-0.8,3.2v176.3c0,1.7-0.9,3.3-2.4,4.2   c-1.5,0.9-3.4,0.9-4.9,0L764,170.9c-4.3-2.5-9.6-2.5-13.8,0l-114.9,66.3c-4.5,2.6-7.2,7.5-7,12.7v132c-0.2,5.2,2.5,10.1,7,12.7   l114.9,66.4c4.3,2.5,9.6,2.5,13.8,0l114.8-67c4.5-2.6,7.2-7.5,7-12.7V50.6c0.2-5.2-2.5-10.1-7.1-12.7L810.3,0.8z M799.7,338.3   c0,1.3-0.7,2.4-1.8,3L758.5,364c-1.1,0.6-2.4,0.6-3.4,0l-39.5-22.7c-1-0.7-1.5-1.8-1.5-3v-45.5c0-1.2,0.7-2.4,1.8-3l39.4-22.8   c1.1-0.6,2.5-0.6,3.5,0l39.4,22.8c1.1,0.6,1.8,1.8,1.8,3L799.7,338.3z"/>
	<path class="st1" d="M1193.1,291.4c4.4-2.7,7-7.5,6.8-12.7v-31.3c0.2-5.2-2.4-10-6.8-12.7l-114-66.3c-4.3-2.5-9.5-2.5-13.8,0   l-114.9,66.4c-4.5,2.6-7.2,7.5-7,12.7v132.5c-0.2,5.2,2.5,10.1,7,12.7l114,65c4.2,2.4,9.4,2.4,13.7,0l69.1-38   c2.2-1.3,3.5-3.6,3.5-6.1c0-2.5-1.3-4.7-3.4-6l-115.7-66.4c-2.1-1.3-3.5-3.6-3.4-6.1v-42.4c0-2.4,1.3-4.7,3.4-6l35.9-20.8   c2.1-1.3,4.8-1.3,7,0l36,20.8c2.1,1.2,3.4,3.5,3.4,6v32.7c0,2.5,1.4,4.8,3.5,6.1c2.1,1.3,4.7,1.3,6.8,0L1193.1,291.4z"/>
	<path class="st2" d="M1070.2,285.3c0.8-0.5,1.8-0.5,2.7,0l22,12.7c0.9,0.5,1.4,1.4,1.4,2.4v25.3c0,1-0.6,1.8-1.4,2.3l-22,12.7   c-0.8,0.5-1.8,0.5-2.7,0l-22-12.7c-0.8-0.5-1.2-1.4-1.3-2.3v-25.3c0-1,0.5-1.9,1.3-2.4L1070.2,285.3z"/>
	
		<linearGradient id="SVGID_1_" gradientUnits="userSpaceOnUse" x1="489.4686" y1="-152.9527" x2="386.1964" y2="-363.5518" gradientTransform="matrix(1 0 0 -1 0 66)">
		<stop offset="0" style="stop-color:#3F873F"/>
		<stop offset="0.33" style="stop-color:#3F8B3D"/>
		<stop offset="0.64" style="stop-color:#3E9637"/>
		<stop offset="0.93" style="stop-color:#3DA92E"/>
		<stop offset="1" style="stop-color:#3DAE2B"/>
	</linearGradient>
	<path class="st3" d="M449.8,169.7c-4.3-2.5-9.6-2.5-13.8,0l-114,65.9c-4.3,2.5-7,7.1-7,12v132.4c0,4.9,2.7,9.5,7,11.9l114,66   c4.3,2.4,9.5,2.4,13.8,0l114-66c4.3-2.4,7-7,7-11.9V247.7c0-5-2.7-9.6-7-12L449.8,169.7z"/>
	<g>
		<defs>
			<path id="SVGID_2_" d="M449.8,169.7c-4.3-2.5-9.6-2.5-13.8,0l-114,65.9c-4.3,2.5-7,7.1-7,12v132.4c0,4.9,2.7,9.5,7,11.9l114,66     c4.3,2.4,9.5,2.4,13.8,0l114-66c4.3-2.4,7-7,7-11.9V247.7c0-5-2.7-9.6-7-12L449.8,169.7z"/>
		</defs>
		<clipPath id="SVGID_3_">
			<use xlink:href="#SVGID_2_" style="overflow:visible;"/>
		</clipPath>
		<g class="st4">
			<path class="st5" d="M435.3,169.7l-114,65.9c-4.4,2.4-7.2,7-7.3,12v132.4c0.1,3.2,1.3,6.4,3.5,8.7L446,168.3     C442.4,167.3,438.5,167.8,435.3,169.7z"/>
			<path class="st5" d="M446.7,458.9c1.2-0.2,2.3-0.7,3.3-1.3l114-66c4.3-2.4,7-7,7.1-11.9v-132c0.1-3.7-1.5-7.2-4.2-9.6     L446.7,458.9z"/>
			
				<linearGradient id="SVGID_4_" gradientUnits="userSpaceOnUse" x1="425.5423" y1="-263.1944" x2="715.211" y2="-49.0473" gradientTransform="matrix(1 0 0 -1 0 66)">
				<stop offset="0.14" style="stop-color:#3F873F"/>
				<stop offset="0.4" style="stop-color:#529F44"/>
				<stop offset="0.71" style="stop-color:#63B649"/>
				<stop offset="0.91" style="stop-color:#6ABF4B"/>
			</linearGradient>
			<path class="st6" d="M564.3,235.6l-114-65.9c-1.1-0.7-2.4-1.1-3.7-1.4L317.4,388.4c1.1,1.2,2.4,2.3,3.8,3.2l114.8,66     c3.2,1.9,7.1,2.3,10.6,1.3L567.3,238C566.4,237.1,565.3,236.3,564.3,235.6z"/>
			<path class="st5" d="M571.5,380.1V247.7c-0.1-5-2.9-9.6-7.2-12l-114-65.9c-1.3-0.7-2.8-1.3-4.3-1.5l125.7,214.7     C571.7,381.9,571.6,381,571.5,380.1z"/>
			<path class="st5" d="M321.2,235.6c-4.4,2.4-7.2,7-7.3,12v132.4c0.2,5,3,9.5,7.3,11.9L436,458c2.7,1.5,5.8,2.1,8.9,1.6l-123-224.4     L321.2,235.6z"/>
			
				<linearGradient id="SVGID_5_" gradientUnits="userSpaceOnUse" x1="310.7033" y1="-79.9806" x2="575.0293" y2="-79.9806" gradientTransform="matrix(1 0 0 -1 0 66)">
				<stop offset="9.000000e-02" style="stop-color:#6ABF4B"/>
				<stop offset="0.29" style="stop-color:#63B649"/>
				<stop offset="0.6" style="stop-color:#529F44"/>
				<stop offset="0.86" style="stop-color:#3F873F"/>
			</linearGradient>
			<polygon class="st7" points="432.2,145.5 430.6,146.4 432.7,146.4    "/>
			
				<linearGradient id="SVGID_6_" gradientUnits="userSpaceOnUse" x1="310.7033" y1="-247.5997" x2="575.0293" y2="-247.5997" gradientTransform="matrix(1 0 0 -1 0 66)">
				<stop offset="9.000000e-02" style="stop-color:#6ABF4B"/>
				<stop offset="0.29" style="stop-color:#63B649"/>
				<stop offset="0.6" style="stop-color:#529F44"/>
				<stop offset="0.86" style="stop-color:#3F873F"/>
			</linearGradient>
			<path class="st8" d="M564.4,391.6c3.3-1.9,5.8-5,6.7-8.7L445.4,168.2c-3.3-0.7-6.7-0.2-9.6,1.5l-114,65.5l123,224     c1.8-0.2,3.5-0.7,5.1-1.6L564.4,391.6z"/>
			
				<linearGradient id="SVGID_7_" gradientUnits="userSpaceOnUse" x1="310.7033" y1="-323.0819" x2="575.0293" y2="-323.0819" gradientTransform="matrix(1 0 0 -1 0 66)">
				<stop offset="9.000000e-02" style="stop-color:#6ABF4B"/>
				<stop offset="0.29" style="stop-color:#63B649"/>
				<stop offset="0.6" style="stop-color:#529F44"/>
				<stop offset="0.86" style="stop-color:#3F873F"/>
			</linearGradient>
			<polygon class="st9" points="575,389.5 574.3,388.2 574.3,390    "/>
			
				<linearGradient id="SVGID_8_" gradientUnits="userSpaceOnUse" x1="310.7033" y1="-357.1681" x2="575.0293" y2="-357.1681" gradientTransform="matrix(1 0 0 -1 0 66)">
				<stop offset="9.000000e-02" style="stop-color:#6ABF4B"/>
				<stop offset="0.29" style="stop-color:#63B649"/>
				<stop offset="0.6" style="stop-color:#529F44"/>
				<stop offset="0.86" style="stop-color:#3F873F"/>
			</linearGradient>
			<path class="st10" d="M564.4,391.6l-114,66c-1.6,0.9-3.3,1.5-5.1,1.6l2.3,4.2L574.3,390v-1.8l-3.2-5.3     C570.1,386.6,567.7,389.7,564.4,391.6z"/>
			
				<linearGradient id="SVGID_9_" gradientUnits="userSpaceOnUse" x1="613.7349" y1="-146.6594" x2="450.6537" y2="-479.1576" gradientTransform="matrix(1 0 0 -1 0 66)">
				<stop offset="0" style="stop-color:#3F873F"/>
				<stop offset="0.33" style="stop-color:#3F8B3D"/>
				<stop offset="0.64" style="stop-color:#3E9637"/>
				<stop offset="0.93" style="stop-color:#3DA92E"/>
				<stop offset="1" style="stop-color:#3DAE2B"/>
			</linearGradient>
			<path class="st11" d="M564.4,391.6l-114,66c-1.6,0.9-3.3,1.5-5.1,1.6l2.3,4.2L574.3,390v-1.8l-3.2-5.3     C570.1,386.6,567.7,389.7,564.4,391.6z"/>
		</g>
	</g>
</g>
</svg>