<svg xmlns="http://www.w3.org/2000/svg" viewBox="0 0 2416 486"><defs><style>.a{fill:#fff;}.b{fill:#d6ecd4;}.c{fill:#5ab552;}.d{fill:#09264a;}</style></defs><rect class="a" width="2416" height="486"/><polygon class="b" points="85.7 57.6 742.3 57.3 848.2 241.8 742.3 425.3 85.7 427.6 190.9 241.8 85.7 57.6"/><path class="c" d="M739,59.4c13,24.8,26.5,49.4,40.3,73.8s27.3,47.5,41.5,70.9q11.9,19.5,24.1,38.8c1.1,1.8,3.9,3.1,5.8,1.7a4.4,4.4,0,0,0,.9-6q-21.7-34.5-42.5-69.6c-14-23.8-27.6-47.9-40.9-72.1q-11.4-20.9-22.5-41.8c-1-1.9-4-3.1-5.9-1.7s-1.9,3.9-.8,6Z"/><path class="c" d="M89.2,430.3l39.1-.2,55.1-.2H633.6l58.5-.2,43.6-.2h7.8c1.2,0-1.9-2.6-2-2.7s-3.4-2.7-5.1-2.7l-39,.3H192l-58.5.2-43.6.2H82.2c-1.2,0,1.8,2.6,2,2.7s3.3,2.7,5,2.7Z"/><path class="c" d="M89.2,59.3l39.1-.2H406.4l80.4.2h77.1c23.2,0,46.5.1,69.7,0h58.5l43.6-.2h7.8c1.2,0-1.9-2.6-2-2.7s-3.4-2.7-5.1-2.7l-39,.2H133.5l-43.6.2H82.2c-1.2,0,1.8,2.6,2,2.7s3.3,2.7,5,2.7Z"/><path class="c" d="M746.2,427.6c13-24.7,26.4-49.3,40.2-73.6s27.3-47.5,41.5-70.9c7.6-12.4,15.7-25.5,23.6-38.1a4.8,4.8,0,0,0-.7-6.3c-1.4-1.3-4.5-2.2-5.9-.1-14.6,23.2-28.9,46.7-42.8,70.3s-27.7,47.9-41,72.1q-11.6,21-22.6,42c-1.1,2.1.3,5.1,2.2,6.1a3.8,3.8,0,0,0,5.5-1.5Z"/><path class="c" d="M194.2,238.6q-21.7-34.5-42.4-69.6c-14-23.8-27.7-47.9-41-72.1Q99.4,76.1,88.3,55.1c-1-1.9-4-3.1-5.8-1.7s-2,3.9-.9,6q19.7,37.2,40.3,73.8c13.5,23.8,27.4,47.5,41.6,70.9q11.9,19.5,24,38.8c1.2,1.8,3.9,3.1,5.9,1.7a4.4,4.4,0,0,0,.8-6Z"/><path class="c" d="M88.8,427.6c13.1-24.7,26.4-49.3,40.2-73.6s27.3-47.5,41.6-70.9c7.5-12.4,15.6-25.5,23.6-38.1a5,5,0,0,0-.7-6.3c-1.5-1.3-4.6-2.2-5.9-.1-14.7,23.2-29,46.7-42.9,70.3s-27.7,47.9-41,72.1q-11.4,21-22.6,42c-1,2.1.3,5.1,2.2,6.1a3.8,3.8,0,0,0,5.5-1.5Z"/><polygon class="b" points="825.7 57.6 1482.3 57.3 1588.2 241.8 1482.3 425.3 825.7 427.6 930.9 241.8 825.7 57.6"/><path class="c" d="M1479,59.4c13,24.8,26.5,49.4,40.3,73.8s27.3,47.5,41.5,70.9q11.9,19.5,24.1,38.8c1.1,1.8,3.9,3.1,5.8,1.7a4.4,4.4,0,0,0,.9-6q-21.7-34.5-42.5-69.6c-14-23.8-27.6-47.9-40.9-72.1q-11.4-20.9-22.5-41.8c-1-1.9-4-3.1-5.9-1.7s-1.9,3.9-.8,6Z"/><path class="c" d="M829.2,430.3l39.1-.2,55.1-.2h450.2l58.5-.2,43.6-.2h7.8c1.2,0-1.9-2.6-2-2.7s-3.4-2.7-5.1-2.7l-39,.3H932l-58.5.2-43.6.2h-7.7c-1.2,0,1.8,2.6,2,2.7s3.3,2.7,5,2.7Z"/><path class="c" d="M829.2,59.3l39.1-.2h278.1l80.4.2h77.1c23.2,0,46.5.1,69.7,0h58.5l43.6-.2h7.8c1.2,0-1.9-2.6-2-2.7s-3.4-2.7-5.1-2.7l-39,.2H873.5l-43.6.2h-7.7c-1.2,0,1.8,2.6,2,2.7s3.3,2.7,5,2.7Z"/><path class="c" d="M1486.2,427.6c13-24.7,26.4-49.3,40.2-73.6s27.3-47.5,41.5-70.9c7.6-12.4,15.7-25.5,23.6-38.1a4.8,4.8,0,0,0-.7-6.3c-1.4-1.3-4.5-2.2-5.9-.1-14.6,23.2-28.9,46.7-42.8,70.3s-27.7,47.9-41,72.1q-11.5,21-22.6,42c-1.1,2.1.3,5.1,2.2,6.1a3.8,3.8,0,0,0,5.5-1.5Z"/><path class="c" d="M934.2,238.6q-21.7-34.5-42.4-69.6c-14-23.8-27.7-47.9-41-72.1q-11.4-20.9-22.5-41.8c-1-1.9-4-3.1-5.8-1.7s-2,3.9-.9,6q19.6,37.2,40.3,73.8c13.5,23.8,27.4,47.5,41.6,70.9q11.8,19.5,24,38.8c1.2,1.8,3.9,3.1,5.9,1.7a4.4,4.4,0,0,0,.8-6Z"/><path class="c" d="M828.8,427.6c13.1-24.7,26.4-49.3,40.2-73.6s27.3-47.5,41.6-70.9c7.5-12.4,15.6-25.5,23.6-38.1a5,5,0,0,0-.7-6.3c-1.5-1.3-4.6-2.2-5.9-.1-14.7,23.2-29,46.7-42.9,70.3s-27.7,47.9-41,72.1q-11.4,21-22.6,42c-1,2.1.3,5.1,2.2,6.1a3.8,3.8,0,0,0,5.5-1.5Z"/><polygon class="b" points="1565.7 57.6 2222.3 57.3 2328.2 241.8 2222.3 425.3 1565.7 427.6 1670.9 241.8 1565.7 57.6"/><path class="c" d="M2219,59.4c13,24.8,26.5,49.4,40.3,73.8s27.3,47.5,41.5,70.9q11.8,19.5,24.1,38.8c1.1,1.8,3.9,3.1,5.8,1.7a4.4,4.4,0,0,0,.9-6q-21.7-34.5-42.5-69.6c-14-23.8-27.6-47.9-40.9-72.1q-11.4-20.9-22.5-41.8c-1-1.9-4-3.1-5.9-1.7s-1.9,3.9-.8,6Z"/><path class="c" d="M1569.2,430.3l39.1-.2,55.1-.2h450.2l58.5-.2,43.6-.2h7.8c1.2,0-1.9-2.6-2-2.7s-3.4-2.7-5.1-2.7l-39,.3H1672l-58.5.2-43.6.2h-7.7c-1.2,0,1.8,2.6,2,2.7s3.3,2.7,5,2.7Z"/><path class="c" d="M1569.2,59.3l39.1-.2h278.1l80.4.2h77.1c23.2,0,46.5.1,69.7,0h58.5l43.6-.2h7.8c1.2,0-1.9-2.6-2-2.7s-3.4-2.7-5.1-2.7l-39,.2H1613.5l-43.6.2h-7.7c-1.2,0,1.8,2.6,2,2.7s3.3,2.7,5,2.7Z"/><path class="c" d="M2226.2,427.6c13-24.7,26.4-49.3,40.2-73.6s27.3-47.5,41.5-70.9c7.6-12.4,15.7-25.5,23.6-38.1a4.8,4.8,0,0,0-.7-6.3c-1.4-1.3-4.5-2.2-5.9-.1-14.6,23.2-28.9,46.7-42.8,70.3s-27.7,47.9-41,72.1q-11.5,21-22.6,42c-1.1,2.1.3,5.1,2.2,6.1a3.8,3.8,0,0,0,5.5-1.5Z"/><path class="c" d="M1674.2,238.6q-21.7-34.5-42.4-69.6c-14-23.8-27.7-47.9-41-72.1q-11.4-20.9-22.5-41.8c-1-1.9-4-3.1-5.8-1.7s-2,3.9-.9,6q19.7,37.2,40.3,73.8c13.5,23.8,27.4,47.5,41.6,70.9q11.9,19.5,24,38.8c1.2,1.8,3.9,3.1,5.9,1.7a4.4,4.4,0,0,0,.8-6Z"/><path class="c" d="M1568.8,427.6c13.1-24.7,26.4-49.3,40.2-73.6s27.3-47.5,41.6-70.9c7.5-12.4,15.6-25.5,23.6-38.1a5,5,0,0,0-.7-6.3c-1.5-1.3-4.6-2.2-5.9-.1-14.7,23.2-29,46.7-42.9,70.3s-27.7,47.9-41,72.1q-11.4,21-22.6,42c-1,2.1.3,5.1,2.2,6.1a3.8,3.8,0,0,0,5.5-1.5Z"/><path class="d" d="M1053.4,222.9v.7a30.2,30.2,0,0,1-8,12.9c-4.7,4.1-10.6,8-14.2,9.3-.7.3-1.9-.2-2.5-.2s-2.1.9-2.6.9-1-.2-1.1-.5v-.2a2.3,2.3,0,0,0-1.1,1.8c-.6,1.5-.8,4-1.5,6.2a44,44,0,0,0-1.8,4.8c-.4,2.2-.1,3.9-1.7,6.7l-.8,1.1c-.3,0-.3.2-1,.2s-.8-.5-1.3-.5-.5.3-.9.3-.1-1.2-.7-1.2-.3.1-.6.1.2.1.2-.5-.9-1.4-1.7-2.6-.1-.5-.1-1.2,2.1-4.6,2.3-6c1.5-5.6,3.3-11.3,4.6-16.8,2.3-9.7,4.9-19.7,7.4-29.3.3-1.2.3-3.3.6-5-3-1.2-4-5.3-3.7-7.6a6.9,6.9,0,0,1,1.5-.7,9.5,9.5,0,0,1,3.3-.5h2.4c.6,0,0,.1.3.2s3.9,1.3,5.5,2.1,1.4.4,1.8.7c9.1,5.9,16.3,13.1,16.3,21A24.2,24.2,0,0,1,1053.4,222.9Zm-18.7-19.8c-.3,0,.2-.2-.3-.2l-1.3.2v1.1c0,.7.8,3,.8,4.2-.4,2.9-1,6.1-1.4,8.5-1,4.4-2.5,9.7-3.2,12.7s-1.7,5.4-1.8,7.5a14.5,14.5,0,0,0,3-.6c-.7-1.2,1.1-1.3,1.7-2a.8.8,0,0,1,.1.3h0c-.4.3.1.3.4.3a17.1,17.1,0,0,0,2.4-2.1h-.5c-.3-.3.1-.2.1-.4,6.5-3.2,12.8-12.8,12.8-19.3C1047.5,210.1,1038.5,203.1,1034.7,203.1Z"/><path class="d" d="M1078,239.5a12.5,12.5,0,0,0-3.9,0,10.9,10.9,0,0,0-.4-2.7c-3.7,1.4-6.7,5.7-9,9.3,0-.3-.1-.5-.4-.5s-.4,1-.2,1.2h-.3a1.1,1.1,0,0,1-.2.4c-.1.3.2.4.2.7s-.2.2-.6.2h-.1c-.2,0-.3.1-.3.2s.4.6.4.7a38.1,38.1,0,0,1-2.2,3.4c0,.3.3.5.2.6a5.8,5.8,0,0,1-1.6,1.9,20.2,20.2,0,0,0-.7,2.3c-1.2,2.5-2.4,5.6-1.6,8.1a2.7,2.7,0,0,1-1.7.6,18.7,18.7,0,0,1-2.6-1c-.4-.4,0-1.6-1-1.3-.7-1.9-1.6-3.3-1.6-4.8s1.5-5.6,1.7-8.1a70.5,70.5,0,0,0,1.7-10.4c.3-2.1.7-4.9.9-7.5a48.5,48.5,0,0,1,.9-5.5h1.1a4.8,4.8,0,0,1,3.3,2.5,20.1,20.1,0,0,1,.9,4.1c.1,1-.3,1.8-.3,3.2.9-2.3,6-6.2,8.9-6.2a12.8,12.8,0,0,1,8.9,4.2c.3.4.5,1.3,1,2S1077.6,238.7,1078,239.5Z"/><path class="d" d="M1098,258.6c0,.5.3.8,1,.9a9,9,0,0,0-1,2.2c-1.6-.3-2.4,1.7-2.4,3.2a13,13,0,0,1-3.6.5c-.5.3,0,.4.4.4s-2.4.9-3.4,1v.3c0,.1-.1.2-.4.2s-3.8-1.9-4.1,0l-1-1.4c-2.6-.7-3.4-1.3-5.7-3.8s-.8.8-2.5-6.5a14.7,14.7,0,0,1,.7-7.1,49.4,49.4,0,0,1,3.1-8.2c.8-1.5,1.7-3.6,3.1-5.8a25,25,0,0,0,2.3-3.4c1.4-1.2,1.6-2.1,3.4-3.2s2.8-.9,2.5-1.9h-.2c0,.2.1.3.4.3s-.2-.3.6-.3a25.9,25.9,0,0,1,2.5,1.2c.3.8,0,1.7.7,1.7s0-.3.6-.3.8.5,1.1.9c0,3.8,1.9,1.8,1.9,4.2a53,53,0,0,1-1.8,7.4,35.7,35.7,0,0,1-4.2,6.2c-2.7,3.2-7.9,8.5-7.9,9.3s1.6,1.8,2.7,2.3a6.4,6.4,0,0,0,2.7.3c1,0,1.8-1,3.2-.3s4.8-1.6,6.7-2a1.4,1.4,0,0,0,.9.3C1099.3,257.7,1098.8,258.3,1098,258.6Zm-12.7-16a35.4,35.4,0,0,0-1.9,3.6l-.5,2.5c1.4-1.8,2.7-3.4,3.9-5.2s3.6-4.5,4.1-8.2C1088.4,236.7,1087.6,238.6,1085.3,242.6Z"/><path class="d" d="M1119.8,264.4a6.7,6.7,0,0,1-2.4.2v-.2c-.4-.4-.5-.2-1.1-.2h-.8a54.6,54.6,0,0,1-3.7-6.1,3.2,3.2,0,0,1,1.5-1.9c0-.4-.1-.6-.6-.6s.5.4,1,.4,1.9-1.7,3-2.5a24,24,0,0,0,8-13.8c-1.7-.3-3.8.7-6.3,2.8s-3.3,4.9-3.9,4.9.1-.2-.2-.6-1.8,2.3-2.2,3.7-3.2,10.2-4.2,14.9c-.3,1.5-1.2,3.8-1.6,5.4-1.2,3.6-1.6,7.4-2.4,11.2a8.1,8.1,0,0,1-1.5,3.3h-.7c-.6,0,.2-.6-.4-.6s-.5.6-1.2.6-1-.8-1.5-.9a2,2,0,0,1,0-.8,28.4,28.4,0,0,0-2.5-2.3,8.5,8.5,0,0,0,1-1.9,25,25,0,0,1-.2-3.3c0-.4.2-.6.6-1s0-1.8.4-2.8,1.2-3.8,2.4-4.2c1.5-6.7,3.2-14.9,4.8-22.5.2-.8-.2-1.5-.1-2.3a38.9,38.9,0,0,1,1.8-5.8,3.3,3.3,0,0,0,0-2.4c1.8-5.5,3.9-11.9,5.3-17.3a2.2,2.2,0,0,0-.3-1.5c.3,0,.2.3.9.3s.5-.8,1.1-.8,1.8,1.5,3.2,2.5,1.1,5.2,1.1,6a112.9,112.9,0,0,1-2.7,11.4l.4.4h.8a17.2,17.2,0,0,0-2,2.7h0l.2.2c1.1-1.8,6.4-7.1,9-7.1a37.6,37.6,0,0,1,4.8,1.1,8.3,8.3,0,0,1,2,1.6c2.9,1.4,3.4,4.6,3.4,6.7C1134,248.8,1127,260.5,1119.8,264.4Z"/><path class="d" d="M1173.6,257.1c-.5.4-.6.8-.4,1.2a18.6,18.6,0,0,1-3.5,3.1,1.3,1.3,0,0,0,.8.6c-2,.3-5.1,3.2-5.9,3.2h-3.9c-3.8,0-7.2-7.7-7.2-8.3a42,42,0,0,0-.2-4.7c-1,1.7-2.1,3-3.2,4.9s-5.7,8.3-8.4,8.3c-.5,0-1.5.4-2,.4-3,0-4-1.9-5.8-3.4,0-.7-.7-2.3-.7-2.8,0-5.6,7.5-18.2,10.6-22.3a21,21,0,0,1,3.7-3.5,17.9,17.9,0,0,0,2.6-2.3c.3-.3-.1-.6.2-.8s1.5-.2,2-.6a3.6,3.6,0,0,0,1.1-1.3h.7a2.2,2.2,0,0,0,1.6.8l1.4.2c1.1-1.2.4-1.8,1.6-1.8s.2.7.8.7.1-.3.6-.3a7.5,7.5,0,0,1,4,1.9c.3.4.8,1.7.4,2.1s.3-.4.3.4-2,6.7-2.7,10.2-2,14.1-2,14.6.2,2,.2,2.9a8.3,8.3,0,0,0,2.8-.1c1.4,0,11.6-4.8,12.2-5.1S1173.9,256.4,1173.6,257.1Zm-21.1-17.2c-.3-.4,0-.8,0-1.1a78.7,78.7,0,0,0-8.1,13l.6.7c2.9-3.6,5.4-8.8,8.1-13.2Z"/><path class="d" d="M1198.2,239.5a12.6,12.6,0,0,0-3.9,0,23.3,23.3,0,0,0-.5-2.7c-3.6,1.4-6.7,5.7-9,9.3,0-.3-.1-.5-.3-.5s-.4,1-.2,1.2h-.3l-.3.4c-.1.3.3.4.3.7s-.3.2-.7.2h0c-.2,0-.3.1-.3.2s.3.6.3.7a17.5,17.5,0,0,1-2.2,3.4c0,.3.3.5.2.6a5.5,5.5,0,0,1-1.5,1.9c-.5.7-.4,1.6-.8,2.3-1.2,2.5-2.4,5.6-1.5,8.1a3,3,0,0,1-1.8.6,25.1,25.1,0,0,1-2.6-1c-.3-.4,0-1.6-1-1.3-.6-1.9-1.5-3.3-1.5-4.8s1.4-5.6,1.6-8.1a70.6,70.6,0,0,0,1.8-10.4c.2-2.1.6-4.9.9-7.5s.4-3.8.8-5.5h1.1a4.6,4.6,0,0,1,3.3,2.5,12.1,12.1,0,0,1,.9,4.1c.1,1-.2,1.8-.2,3.2.9-2.3,6-6.2,8.9-6.2a12.6,12.6,0,0,1,8.8,4.2,12.3,12.3,0,0,1,1,2C1199.2,237.9,1197.8,238.7,1198.2,239.5Z"/><path class="d" d="M1218.1,258.6c0,.5.4.8,1,.9s-.6,1.4-1,2.2-2.4,1.7-2.4,3.2a13,13,0,0,1-3.6.5c-.4.3,0,.4.4.4s-2.4.9-3.4,1v.3c0,.1-.1.2-.4.2s-3.7-1.9-4,0l-1-1.4c-2.7-.7-3.4-1.3-5.7-3.8s-.9.8-2.6-6.5a16.1,16.1,0,0,1,.7-7.1,51.4,51.4,0,0,1,3.2-8.2,46.9,46.9,0,0,1,3-5.8,38.6,38.6,0,0,0,2.4-3.4c1.4-1.2,1.6-2.1,3.4-3.2s2.8-.9,2.5-1.9h-.2c0,.2.1.3.4.3s-.2-.3.5-.3a18.5,18.5,0,0,1,2.6,1.2c.3.8,0,1.7.6,1.7s0-.3.7-.3.7.5,1.1.9c0,3.8,1.8,1.8,1.8,4.2a66.4,66.4,0,0,1-1.7,7.4,44,44,0,0,1-4.3,6.2c-2.6,3.2-7.9,8.5-7.9,9.3s1.7,1.8,2.8,2.3a6.1,6.1,0,0,0,2.7.3c1,0,1.7-1,3.2-.3s4.8-1.6,6.6-2a1.6,1.6,0,0,0,.9.3C1219.4,257.7,1219,258.3,1218.1,258.6Zm-12.7-16a26.5,26.5,0,0,0-1.8,3.6l-.6,2.5c1.4-1.8,2.8-3.4,4-5.2s3.6-4.5,4-8.2C1208.6,236.7,1207.7,238.6,1205.4,242.6Z"/><path class="d" d="M1267.5,250.7c-.6,0-.3-.4-.5,0s-.4.5.1.5h.6c-.4.3-.8,1.4-.5,1.7s-2.6,2-3.6,3,.2.3.4.3v1c-2.2,1.2-4.6,2.8-7.9,4.7-.4.4-.6,1.2-1.1,1.6a25.8,25.8,0,0,1-7.8,2.2c-4.8,0-8.9-5-9.2-9.1,0-.7-.1-1.7-.1-2.3a33.5,33.5,0,0,1,.6-5.5,21,21,0,0,1,2.1-6c.2-.1.2-.7.2-1.2a24.5,24.5,0,0,1,3-5,12.1,12.1,0,0,0,2.1-2.5.4.4,0,0,0-.1-.3l-.4.5c1.1-1.4,2.4-4,3.9-5.6s1.4-.5,2.1-.9.9-1,1.6-1a22.5,22.5,0,0,1,3.9.9c1,.7,2.9,2.1,3.5,3.6a11.1,11.1,0,0,1,1,3.5c0,.9-1.1,6.3-2.1,6.9a2.1,2.1,0,0,1-1.3.3c-1.5,0-2.3-1.1-2.6-2.5s-1.2-1.8-.8-2.9h-.3a67.4,67.4,0,0,0-7.7,12.5,55.9,55.9,0,0,0-2.4,7.9v1.3a11.6,11.6,0,0,0,2.6.6,24,24,0,0,0,4.1-1.7,121,121,0,0,0,11.8-4.9,68,68,0,0,1,6.3-3.3C1268.5,249.3,1268.3,250.7,1267.5,250.7Z"/><path class="d" d="M1301.5,257.6v.2l.2.2c.7-.5,1.5-.4,2.3-.8-.8.4-1,1.8-1.6,2.4s-1.4.6-1.8,1.3-.2,1.2-.5,1.7-1.3,1.4-2.7,2.4l.6.3c-.8.4-2.5,1.7-3.2,1.7l-3.3-.3a28.4,28.4,0,0,1-3.5-2.2,8.5,8.5,0,0,0-1.1-2.1c-.2-.7-1.1-1.8-1.4-2.5a21.1,21.1,0,0,1-1.1-6,29.8,29.8,0,0,1,.2-5.9v-1.2c-2.7,1.7-5,4.5-7,8.2a35.1,35.1,0,0,1-6.7,9h0c0,.1.1.1.3.1s0-.1-.6-.1a6.1,6.1,0,0,0-2.1,1.1,23.3,23.3,0,0,0-1.7-2.6c-.5-.8-.6-1.9-1.4-2.7s-.4-3.5-.4-4.2a46.4,46.4,0,0,1,.7-6.2,55.7,55.7,0,0,1,1.6-7.5c1.2-4,2.6-7.4,2.6-7.5s.7-1.8.8-2.5l.5-.7a48.4,48.4,0,0,1,2.7-8.4,1.4,1.4,0,0,0-.1-1.4c1.2-3.7,3.9-10.1,5.4-13.9s1.8-4.5,4.2-4.5c.8,0,1.7.7,2.4.7s.4.6.5.6a13.3,13.3,0,0,1,.9,4.8,11.5,11.5,0,0,1-.7,3.3l-13,35.3c.8,0,1.7-1.6,2.3-2.2s2.3-2.1,3.1-2.9,6.5-7.4,7.3-7.4.9.9,1.4,1,2.1-.1,2.9.3c3.3,2.3,3.8,4.6,3.8,7.2l-1.6,13a5.9,5.9,0,0,0,.6,2.5c1.1-.4.9,0,1.6,0s5.4-2.5,7-2.8a8.6,8.6,0,0,0,2.7-.9A14.8,14.8,0,0,1,1301.5,257.6Z"/><path class="d" d="M1341.8,257.1c-.5.4-.7.8-.4,1.2a18.6,18.6,0,0,1-3.5,3.1c0,.1.5.6.7.6-1.9.3-5,3.2-5.8,3.2h-3.9c-3.8,0-7.2-7.7-7.2-8.3a28.1,28.1,0,0,0-.3-4.7c-1,1.7-2,3-3.1,4.9s-5.7,8.3-8.5,8.3c-.4,0-1.4.4-1.9.4-3,0-4-1.9-5.8-3.4-.1-.7-.7-2.3-.7-2.8,0-5.6,7.4-18.2,10.6-22.3a20.1,20.1,0,0,1,3.6-3.5,14.3,14.3,0,0,0,2.7-2.3c.3-.3-.1-.6.2-.8s1.5-.2,1.9-.6a2.4,2.4,0,0,0,1.1-1.3h.8a2.2,2.2,0,0,0,1.5.8l1.5.2c1.1-1.2.4-1.8,1.6-1.8s.1.7.8.7.1-.3.5-.3a7.8,7.8,0,0,1,4.1,1.9c.3.4.7,1.7.4,2.1s.2-.4.2.4-1.9,6.7-2.6,10.2-2.1,14.1-2.1,14.6.3,2,.3,2.9a8.6,8.6,0,0,0,2.8-.1c1.4,0,11.6-4.8,12.1-5.1S1342,256.4,1341.8,257.1Zm-21.1-17.2c-.4-.4,0-.8,0-1.1a78.7,78.7,0,0,0-8.1,13l.6.7c2.9-3.6,5.4-8.8,8.1-13.2Z"/><path class="d" d="M1376.8,256c-.3.3.2.8.1.9a3,3,0,0,0-.8.8l.7.2h-.1c-.2.2-.2.3-.3.2s-.1,1.1-.8,1.5,0,1,.4,1.5-1.2.8-1.3,1.6-2.1,1.4-2.8,2.3-1.4,1.5-1.7,2a35.7,35.7,0,0,1-3.7-.2c-1,0-5.3-2.2-5.6-3.1a25.2,25.2,0,0,1-3-8.6c-.5-1.8-.5-5.4-.6-8.1-.3-.1.1-.3-.2-.4-2.5,2.8-5.4,7-8,10.1q-.1.1,0,.6a25.9,25.9,0,0,1-2.9,4.7,15.7,15.7,0,0,1-3.3,3.2c-.7,0-1.1-.9-1.6-.8s.1.3-.5.3c-2.3.3-2.7-4.3-3.1-4.7a2.7,2.7,0,0,1-.9-1.7c0-.4.7-3.5.8-5.3a14.8,14.8,0,0,0,1.2-2.9c.4-1.3.3-3,.7-4.4,1.7-5,4.3-12.4,6.8-18.9,0-.4-.1-1.2-.1-1.9a9.6,9.6,0,0,1,2.6-2.1c.4.7,1,1.2,1.6,2.1a1.9,1.9,0,0,0,.3-1.6,8.2,8.2,0,0,0,2.3,1.3c0,.4-.4,1.1,0,1.5h.6v1c.1.6-.4,1.3-.7,2.1s-.5,3.9-.8,5.8a2,2,0,0,1-.6,1.3,11,11,0,0,0-.5,4c1.3-1.4,3.5-5.1,5.4-5.9s1.8-.1,2.9-.7a2.7,2.7,0,0,1,1.1,1.4c.5-.3.7-.6,1.3-.7s1.7,1.2,2.4,1.9h0l-.2.2c0,.3.5.4.6.4,2.2,4.3,1.6,2.7,1.9,5.2.3.6-.4,8-.2,11.7a30.5,30.5,0,0,0,.2,5.1,1.6,1.6,0,0,0,1.2.2c1.6,0,4.8-2.6,6.4-3.2h-.1c-.2,0-.3,0-.2.1v.2h.4c.6-.1,2-1.5,3.4-2.2A5.6,5.6,0,0,0,1376.8,256Zm-14.6-20.5v-.4h-.6v.4Z"/><path class="d" d="M1415,256c-.3.3.2.8.1.9a2,2,0,0,0-.8.8l.7.2h-.1c-.2.2-.3.3-.4.2s-.1,1.1-.7,1.5,0,1,.4,1.5-1.2.8-1.3,1.6-2.1,1.4-2.9,2.3-1.3,1.5-1.6,2a34.1,34.1,0,0,1-3.7-.2c-1,0-5.3-2.2-5.6-3.1a27.8,27.8,0,0,1-3.1-8.6,61.5,61.5,0,0,1-.5-8.1c-.3-.1.1-.3-.2-.4-2.5,2.8-5.4,7-8,10.1q-.1.1,0,.6a25.9,25.9,0,0,1-2.9,4.7,18.6,18.6,0,0,1-3.3,3.2c-.7,0-1.2-.9-1.6-.8s.1.3-.6.3c-2.3.3-2.6-4.3-3-4.7a2.3,2.3,0,0,1-.9-1.7c0-.4.7-3.5.8-5.3a14.8,14.8,0,0,0,1.2-2.9c.4-1.3.3-3,.6-4.4,1.8-5,4.4-12.4,6.9-18.9,0-.4-.1-1.2-.1-1.9a11.1,11.1,0,0,1,2.5-2.1c.5.7,1.1,1.2,1.7,2.1a1.9,1.9,0,0,0,.3-1.6,8.2,8.2,0,0,0,2.3,1.3c0,.4-.4,1.1,0,1.5h.6v1c.1.6-.5,1.3-.7,2.1s-.5,3.9-.9,5.8a1.9,1.9,0,0,1-.5,1.3,9.3,9.3,0,0,0-.6,4c1.4-1.4,3.6-5.1,5.5-5.9s1.8-.1,2.9-.7a3.4,3.4,0,0,1,1.1,1.4c.5-.3.7-.6,1.3-.7s1.7,1.2,2.4,1.9h0l-.2.2c0,.3.5.4.6.4,2.2,4.3,1.6,2.7,1.9,5.2.3.6-.5,8-.2,11.7-.3,1.5.1,3.2.2,5.1a1.6,1.6,0,0,0,1.2.2c1.6,0,4.8-2.6,6.3-3.2h-.1c-.1,0-.2,0-.1.1v.2h.3c.7-.1,2.1-1.5,3.4-2.2A8.2,8.2,0,0,0,1415,256Zm-14.6-20.5v-.4h-.7v.4Z"/><path class="d" d="M1436.2,258.6c0,.5.3.8,1,.9a9,9,0,0,0-1,2.2c-1.6-.3-2.4,1.7-2.4,3.2a13,13,0,0,1-3.6.5c-.5.3,0,.4.3.4s-2.3.9-3.4,1v.3c0,.1,0,.2-.3.2s-3.8-1.9-4.1,0l-1-1.4c-2.7-.7-3.4-1.3-5.7-3.8s-.8.8-2.6-6.5a15.8,15.8,0,0,1,.8-7.1,41.8,41.8,0,0,1,3.1-8.2c.7-1.5,1.7-3.6,3-5.8a18.5,18.5,0,0,0,2.4-3.4c1.4-1.2,1.6-2.1,3.4-3.2s2.8-.9,2.5-1.9h-.2c0,.2.1.3.4.3s-.2-.3.5-.3a18.5,18.5,0,0,1,2.6,1.2c.3.8,0,1.7.7,1.7s0-.3.6-.3.7.5,1.1.9c0,3.8,1.9,1.8,1.9,4.2a73.2,73.2,0,0,1-1.8,7.4,42.5,42.5,0,0,1-4.2,6.2c-2.7,3.2-7.9,8.5-7.9,9.3s1.6,1.8,2.7,2.3a6.4,6.4,0,0,0,2.7.3c1,0,1.7-1,3.2-.3s4.8-1.6,6.6-2a1.9,1.9,0,0,0,1,.3C1437.4,257.7,1437,258.3,1436.2,258.6Zm-12.7-16a35.4,35.4,0,0,0-1.9,3.6l-.5,2.5c1.4-1.8,2.7-3.4,3.9-5.2s3.6-4.5,4.1-8.2C1426.6,236.7,1425.8,238.6,1423.5,242.6Z"/><path class="d" d="M1464.7,258a.4.4,0,0,0,.1.3l1.3-.5c-.6.2-.7.5-.2.9s-2.1,2.6-.8,2.7c-.7.3-1,1.5-1.3,1.9s-2.5,1.5-3.5,2.3-1.3,1.5-2.3,1.8l-3.1.9-.5-.6c-1.1.9-1.4.4-2.1.4s0,.4-.7.4a32.5,32.5,0,0,1-3.5-1.3c-6.1-2.3-8.5-10.8-8.5-15.3,0-7.6,2-14,3.7-20.7.1-.8,1-1.5,1-2.1s1.1-5.2,1.8-7.7,2.3-6.8,3.9-11.4c.3-.8,1.2-1.6,1.5-2.6,1.1-3.4,2.7-4.6,2.6-6.8l1.2-.2c.6,0,1.4.9,2.2,1h.9c.4.8,1,2.2,1.3,3s0,1.9.4,2.5l-9,29.3a31.9,31.9,0,0,0-2.1,6.4c-.7,3.1-2,10.4-2,13.2,0,.4.1,2.7.2,3.8a3.6,3.6,0,0,0,1,1.5,4.3,4.3,0,0,0,2.2.7c.8,0,.8-.4,1.2-.4s.7.3,1.5.3,1-.4,3.2-1.1c.5-.4.9-.9,1.3-.9s.2.3.8.3,2.1-1.6,4.3-2.7q-.3.2,0,.6c0-.3,0-.5.4-.5a9.4,9.4,0,0,0,3.2-1.3C1465.7,256.8,1465.5,257.7,1464.7,258Z"/><path class="d" d="M1842.5,216.2a12.2,12.2,0,0,1-.7,1.7c-.3,0-.5-.2-.8-.5l-.8.8h.1V218h0v-.2a3.5,3.5,0,0,0-1.5,1.1,2.2,2.2,0,0,0-.1-.9,7.2,7.2,0,0,1-2.2-2.1l-.2-.6a5,5,0,0,1,.3-1.6h-.2c-.2,0-.3-.1-.3-.2a4.9,4.9,0,0,1,.2-2c.1-.1.3.1.4-.2l.2-.4c-.1-.3.1.2.1-.5s-1.1-5.8-2.3-6.7a9.6,9.6,0,0,0-3.2-1.8c-.6,0,.1.2-.5.2s-.6-.5-1-.6h-.9c-.9,0-5,3-5.3,3.4a14.3,14.3,0,0,0-1.9,4.2,5.2,5.2,0,0,0-.3,1.8,23.9,23.9,0,0,0,.3,4.2c0,.5.8,1.2.9,2s.1,3.4,1.2,4.8l2.1,6.7a4.1,4.1,0,0,0,.6,1.1c1.5,4.2,2.2,7.1,4.4,12.6,1.2,2.2,2.4,9.2,2.4,12.6a20.8,20.8,0,0,1-.7,4.4c-.1.3.3.8,0,1.3a7.8,7.8,0,0,1-2.9,3.8l-1.5,1.5h-.8a12.2,12.2,0,0,1-4.9,1.2h-2c-.7,0-4.2-1.6-4.8-1.6s.2.3-.5.3-1.3-1-1.6-1.5-3.1-1.6-4.5-3.2-3.6-4.4-3.9-6.2a31.2,31.2,0,0,0-1.6-3.1c0-.3.6-.5.3-.8l-.6-.7c.4-.7-.1-2.3-.1-3.1s-.5-.5-.5-1.2.3-.5.3-.9.2.4.6.6a7,7,0,0,1,0-2.9c.1,0,.3.3.6.7a4.8,4.8,0,0,0-.4-3.1c.4,0-.1-.4.6-.4s.1.1.5.1.4-1.1.4-1.8-.4,1.2-.1,1.9.3.2.3.3,0,1.8,1,1.9a9.1,9.1,0,0,0,.5,2.1l.5-.5c0,2.5,1.3,6.5,2.3,7.5s1.4,2.8,2,2.8.1-.2.1-.5c.7,1.8,6.7,3.9,9.4,3.9l1.1-.2.4.4a8.4,8.4,0,0,1,1.9-.8,6.2,6.2,0,0,0,2.1-2.6,6,6,0,0,0,.2-2.3c0-.7-.2-.4-.2-.5a5.3,5.3,0,0,0,0-2.5,159.2,159.2,0,0,0-6.9-18.4c0-.4-5.2-15.6-5.2-20v-2a22.4,22.4,0,0,1,.5-3.1,27.2,27.2,0,0,1,2.8-6.3c0-.3-.3-.2-.3-.6s1.5-1.3,1.9-1.3-.2.5.3.5,2.4-2.1,3.2-2.1l5.8-.4c.4,0,3.4,1.3,4.6,1.6s2.1,1.4,3.2,1.5c4.2.4,6.2,10.8,6.2,14.3A20.4,20.4,0,0,1,1842.5,216.2Z"/><path class="d" d="M1858.6,255.7c.2.1.6,0,.9.3a2.8,2.8,0,0,1-1.1,1.3,2.1,2.1,0,0,0-.3,1.6,19.1,19.1,0,0,0-4.8,4.2c0,.3.2.9-.5,1.3a9.8,9.8,0,0,1-3.7,1.2c-6.2.5-9.4-7.3-9.7-11.3a24.2,24.2,0,0,1,.7-6.1l1-3.8a41.4,41.4,0,0,1,3-9.7,7.8,7.8,0,0,1,.1-1.3c.4-.3.5-1,1.1-1.6a16,16,0,0,0,2.1-.5,5.6,5.6,0,0,1,3.7,1.5,4.6,4.6,0,0,1,2.2,3.3c0,.4-.4,1-.5,1.7s-.6,2.8-.9,5a10.5,10.5,0,0,1-1.4,4.8c-.3.8-.5,2.5-.8,3.3-1.1,3.8-1.9,5-1.3,7.2a42.7,42.7,0,0,0,11.7-8.4C1858.9,250.7,1860.6,253.9,1858.6,255.7Zm-4.2-33a10.1,10.1,0,0,1-3.7-1.2c-.1-.3,0-.4-.2-.7s-2.3-3-2.7-4.6-.1-2.3-.6-3.1c4.2.3,4.6-.8,6.9-1,.7.8,1.5,1.3,1.8,1.9s-.2,1.8.9,2.8C1855.2,219.1,1858.8,222.4,1854.4,222.7Z"/><path class="d" d="M1897.5,256c-.3.3.2.8.1.9a3.2,3.2,0,0,0-.9.8l.8.2h-.1c-.2.2-.3.3-.4.2s-.1,1.1-.7,1.5,0,1,.3,1.5-1.2.8-1.2,1.6-2.2,1.4-2.9,2.3-1.4,1.5-1.7,2a32.1,32.1,0,0,1-3.6-.2c-1,0-5.4-2.2-5.6-3.1a27.8,27.8,0,0,1-3.1-8.6,61.5,61.5,0,0,1-.5-8.1c-.3-.1.1-.3-.2-.4-2.5,2.8-5.4,7-8,10.1q-.1.1,0,.6a33.8,33.8,0,0,1-3,4.7c-.8,1.1-2.8,3.1-3.3,3.2s-1.1-.9-1.5-.8,0,.3-.6.3c-2.3.3-2.7-4.3-3-4.7a2.4,2.4,0,0,1-1-1.7c0-.4.8-3.5.9-5.3a25.2,25.2,0,0,0,1.2-2.9c.3-1.3.3-3,.6-4.4,1.8-5,4.3-12.4,6.8-18.9,0-.4-.1-1.2-.1-1.9a14,14,0,0,1,2.6-2.1l1.7,2.1a2.3,2.3,0,0,0,.2-1.6,9.9,9.9,0,0,0,2.3,1.3c0,.4-.3,1.1,0,1.5h.7v1c.1.6-.5,1.3-.8,2.1s-.4,3.9-.8,5.8a2.5,2.5,0,0,1-.5,1.3,9.3,9.3,0,0,0-.6,4c1.4-1.4,3.6-5.1,5.4-5.9s1.9-.1,3-.7a4.5,4.5,0,0,1,1.1,1.4,2.3,2.3,0,0,1,1.3-.7c.4,0,1.6,1.2,2.4,1.9h0l-.2.2c0,.3.4.4.5.4,2.2,4.3,1.7,2.7,2,5.2.2.6-.5,8-.2,11.7-.3,1.5.1,3.2.2,5.1a1.5,1.5,0,0,0,1.2.2c1.5,0,4.7-2.6,6.3-3.2h-.1c-.2,0-.3,0-.2.1v.2h.4c.7-.1,2-1.5,3.4-2.2A5.2,5.2,0,0,0,1897.5,256Zm-14.7-20.5v-.4h-.6v.4Z"/><path class="d" d="M1933.3,267.8c-.6,0-.3,0-.3.4a7.1,7.1,0,0,0-3.2-1.1c-.5.1-.5.5-1.1.5s-.2-.4-1-.3c-2.4.2-8.4-3-9.3-3.4s-3.3-1.4-4.6-2.5a41.1,41.1,0,0,1-8.2-7.7,24.7,24.7,0,0,0-2.4,7.4,25,25,0,0,0-.9,4.6.8.8,0,0,1-.1.4h.1a25.4,25.4,0,0,1-.1,4.7,1.1,1.1,0,0,1-1.3,1c-.4.1-1.7-.6-2.8-1l-1.1-1.3a34.6,34.6,0,0,1-1.2-4.5,35.7,35.7,0,0,0,.5-5.9c.3-4.4,2.3-10.7,4-17a1.1,1.1,0,0,0,0-.8c2.9-9.3,5.9-19.3,8.4-28.6,1.3-4,3.6-11.7,4-17.5.3-.7.8-1.4,1.1-2.2,1.1,1.6,2.6,1.9,4.4,3.3a34.9,34.9,0,0,1,1.2,3.8,17.3,17.3,0,0,1,.6,2.7,21.2,21.2,0,0,1-.5,3.2c-.7,4-1.8,8.4-2.6,12.5-.3.3-.7.6-.8,1s.2.8,0,1.2c-3.1,5.4-2.4,8.7-4.5,12.5v.7c.4,0-.1-.4.5-.4s1.4-.5,1.7-.5,3.6-3.6,8.3-3.9c1,0,3.4,2.8,5.3,3.7-.5,1-.1,2.5-.4,3.7a4.5,4.5,0,0,0-1.4,1.6,2.4,2.4,0,0,1-.9.3,4.7,4.7,0,0,0-1.5,2.2l-.4-.5a50.1,50.1,0,0,0-6.1,4.1l-1.5.8c-.1-.1-4.8,3.5-4.6,5.3s4.5,5,5.1,5.2a46.8,46.8,0,0,0,5,3.6c1.7,1.2,5.1,2.6,7.4,4s4.3,2.9,6.8,4.3C1934.5,267.9,1933.7,267.7,1933.3,267.8Z"/><path class="d" d="M1976.5,250.7c-.7,0-.3-.4-.6,0s-.3.5.1.5h.7c-.4.3-.9,1.4-.6,1.7s-2.6,2-3.6,3,.2.3.5.3v1c-2.2,1.2-4.6,2.8-7.9,4.7-.4.4-.7,1.2-1.1,1.6a25.8,25.8,0,0,1-7.8,2.2c-4.8,0-9-5-9.2-9.1,0-.7-.1-1.7-.1-2.3a33.5,33.5,0,0,1,.6-5.5,21.1,21.1,0,0,1,2-6c.3-.1.2-.7.3-1.2a20.7,20.7,0,0,1,3-5,12.1,12.1,0,0,0,2.1-2.5.4.4,0,0,0-.1-.3l-.4.5c1.1-1.4,2.4-4,3.9-5.6s1.4-.5,2.1-.9.8-1,1.6-1a20,20,0,0,1,3.8.9c1,.7,3,2.1,3.6,3.6a10.6,10.6,0,0,1,.9,3.5c0,.9-1,6.3-2,6.9a2.4,2.4,0,0,1-1.4.3c-1.4,0-2.2-1.1-2.6-2.5s-1.1-1.8-.8-2.9h-.3a66.3,66.3,0,0,0-7.6,12.5,59.4,59.4,0,0,0-2.5,7.9v1.3a12.2,12.2,0,0,0,2.7.6,20.8,20.8,0,0,0,4-1.7,112.3,112.3,0,0,0,11.9-4.9,68,68,0,0,1,6.3-3.3C1977.5,249.3,1977.2,250.7,1976.5,250.7Z"/><path class="d" d="M2010.4,257.6v.2l.2.2c.8-.5,1.6-.4,2.3-.8s-.9,1.8-1.5,2.4-1.4.6-1.8,1.3-.3,1.2-.5,1.7-1.3,1.4-2.7,2.4l.5.3c-.7.4-2.4,1.7-3.2,1.7l-3.2-.3c-.5,0-3-1.9-3.5-2.2a14.3,14.3,0,0,0-1.1-2.1c-.3-.7-1.1-1.8-1.5-2.5a25.3,25.3,0,0,1-1.1-6,24.1,24.1,0,0,1,.3-5.9l-.2-1.2c-2.6,1.7-4.9,4.5-7,8.2a32.8,32.8,0,0,1-6.6,9h0c0,.1.1.1.3.1s0-.1-.7-.1a8.5,8.5,0,0,0-2.1,1.1,14,14,0,0,0-1.6-2.6c-.5-.8-.6-1.9-1.4-2.7s-.5-3.5-.5-4.2a53.6,53.6,0,0,1,.8-6.2,43.5,43.5,0,0,1,1.6-7.5c1.2-4,2.6-7.4,2.6-7.5a18.2,18.2,0,0,1,.7-2.5l.6-.7a35.8,35.8,0,0,1,2.7-8.4,2.2,2.2,0,0,0-.1-1.4c1.2-3.7,3.9-10.1,5.4-13.9s1.7-4.5,4.2-4.5c.8,0,1.7.7,2.4.7s.4.6.5.6a13.3,13.3,0,0,1,.9,4.8,11.5,11.5,0,0,1-.7,3.3l-13,35.3c.8,0,1.6-1.6,2.3-2.2s2.3-2.1,3-2.9,6.5-7.4,7.4-7.4.9.9,1.4,1,2.1-.1,2.9.3c3.3,2.3,3.8,4.6,3.8,7.2l-1.6,13a5.9,5.9,0,0,0,.6,2.5c1.1-.4.9,0,1.5,0s5.5-2.5,7.1-2.8a10.7,10.7,0,0,0,2.7-.9A20.2,20.2,0,0,1,2010.4,257.6Z"/><path class="d" d="M2050.7,257.1c-.4.4-.6.8-.3,1.2a22.5,22.5,0,0,1-3.5,3.1c0,.1.4.6.7.6-1.9.3-5.1,3.2-5.9,3.2h-3.8c-3.8,0-7.2-7.7-7.2-8.3a28.1,28.1,0,0,0-.3-4.7c-1,1.7-2,3-3.1,4.9s-5.7,8.3-8.5,8.3l-1.9.4c-3.1,0-4.1-1.9-5.8-3.4-.1-.7-.7-2.3-.7-2.8,0-5.6,7.4-18.2,10.5-22.3a25.2,25.2,0,0,1,3.7-3.5,25.6,25.6,0,0,0,2.7-2.3c.3-.3-.1-.6.2-.8s1.4-.2,1.9-.6a2.8,2.8,0,0,0,1.1-1.3h.7a2.4,2.4,0,0,0,1.6.8l1.5.2c1.1-1.2.3-1.8,1.5-1.8s.2.7.9.7.1-.3.5-.3a8.1,8.1,0,0,1,4.1,1.9c.2.4.7,1.7.3,2.1s.3-.4.3.4-1.9,6.7-2.7,10.2-2,14.1-2,14.6.3,2,.3,2.9a7.8,7.8,0,0,0,2.7-.1c1.4,0,11.6-4.8,12.2-5.1S2051,256.4,2050.7,257.1Zm-21-17.2c-.4-.4,0-.8,0-1.1a72.5,72.5,0,0,0-8.1,13l.5.7c3-3.6,5.5-8.8,8.1-13.2Z"/><path class="d" d="M2085.8,256c-.3.3.2.8.1.9a2,2,0,0,0-.8.8l.7.2h-.1c-.2.2-.3.3-.4.2s-.1,1.1-.7,1.5,0,1,.4,1.5-1.2.8-1.3,1.6-2.1,1.4-2.9,2.3-1.4,1.5-1.6,2a34.1,34.1,0,0,1-3.7-.2c-1,0-5.4-2.2-5.6-3.1a27.8,27.8,0,0,1-3.1-8.6,61.5,61.5,0,0,1-.5-8.1c-.3-.1.1-.3-.2-.4-2.5,2.8-5.4,7-8,10.1q-.2.1,0,.6a33.1,33.1,0,0,1-2.9,4.7c-.9,1.1-2.9,3.1-3.4,3.2s-1.1-.9-1.5-.8.1.3-.6.3c-2.3.3-2.6-4.3-3-4.7a2.3,2.3,0,0,1-.9-1.7c0-.4.7-3.5.8-5.3a14.8,14.8,0,0,0,1.2-2.9c.4-1.3.3-3,.6-4.4,1.8-5,4.4-12.4,6.8-18.9V225a11.1,11.1,0,0,1,2.5-2.1l1.7,2.1a1.9,1.9,0,0,0,.3-1.6,7,7,0,0,0,2.3,1.3c0,.4-.4,1.1,0,1.5h.6v1c.1.6-.5,1.3-.7,2.1s-.5,3.9-.9,5.8a1.9,1.9,0,0,1-.5,1.3,9.3,9.3,0,0,0-.6,4c1.4-1.4,3.6-5.1,5.5-5.9s1.8-.1,2.9-.7a4.5,4.5,0,0,1,1.1,1.4c.5-.3.6-.6,1.3-.7s1.6,1.2,2.4,1.9h0l-.2.2c0,.3.5.4.6.4,2.2,4.3,1.6,2.7,1.9,5.2.3.6-.5,8-.2,11.7-.3,1.5.1,3.2.2,5.1a1.6,1.6,0,0,0,1.2.2c1.5,0,4.8-2.6,6.3-3.2h-.1c-.1,0-.2,0-.1.1v.2h.3c.7-.1,2.1-1.5,3.4-2.2A8.2,8.2,0,0,0,2085.8,256Zm-14.6-20.5v-.4h-.7v.4Z"/><path class="d" d="M2124,256c-.3.3.2.8.1.9a3.2,3.2,0,0,0-.9.8l.8.2h-.1c-.2.2-.3.3-.4.2s-.1,1.1-.7,1.5,0,1,.3,1.5-1.2.8-1.2,1.6-2.2,1.4-2.9,2.3-1.4,1.5-1.7,2a32.1,32.1,0,0,1-3.6-.2c-1,0-5.4-2.2-5.6-3.1a27.8,27.8,0,0,1-3.1-8.6,61.5,61.5,0,0,1-.5-8.1c-.3-.1.1-.3-.2-.4-2.5,2.8-5.4,7-8,10.1q-.2.1,0,.6a33.8,33.8,0,0,1-3,4.7c-.8,1.1-2.8,3.1-3.3,3.2s-1.1-.9-1.5-.8,0,.3-.6.3c-2.3.3-2.7-4.3-3-4.7a2.4,2.4,0,0,1-1-1.7c0-.4.8-3.5.9-5.3a25.2,25.2,0,0,0,1.2-2.9c.3-1.3.2-3,.6-4.4,1.8-5,4.3-12.4,6.8-18.9,0-.4-.1-1.2-.1-1.9a14,14,0,0,1,2.6-2.1l1.7,2.1a2.3,2.3,0,0,0,.2-1.6,9.9,9.9,0,0,0,2.3,1.3c0,.4-.3,1.1,0,1.5h.7v1c.1.6-.5,1.3-.8,2.1s-.4,3.9-.8,5.8a2.5,2.5,0,0,1-.5,1.3,9.3,9.3,0,0,0-.6,4c1.4-1.4,3.6-5.1,5.4-5.9s1.9-.1,3-.7a4.5,4.5,0,0,1,1.1,1.4,2.3,2.3,0,0,1,1.3-.7c.4,0,1.6,1.2,2.4,1.9h0l-.2.2c0,.3.4.4.5.4,2.2,4.3,1.7,2.7,2,5.2.2.6-.5,8-.2,11.7-.3,1.5.1,3.2.2,5.1a1.5,1.5,0,0,0,1.2.2c1.5,0,4.7-2.6,6.3-3.2h-.1c-.2,0-.3,0-.2.1v.2h.4c.7-.1,2-1.5,3.4-2.2A5.2,5.2,0,0,0,2124,256Zm-14.7-20.5v-.4h-.6v.4Z"/><path class="d" d="M2145.1,258.6c0,.5.4.8,1,.9s-.6,1.4-1,2.2-2.4,1.7-2.4,3.2a13,13,0,0,1-3.6.5c-.4.3,0,.4.4.4s-2.4.9-3.4,1v.3c0,.1-.1.2-.4.2s-3.7-1.9-4,0l-1-1.4c-2.7-.7-3.4-1.3-5.7-3.8s-.8.8-2.6-6.5a16.1,16.1,0,0,1,.7-7.1,51.4,51.4,0,0,1,3.2-8.2,46.9,46.9,0,0,1,3-5.8,25,25,0,0,0,2.4-3.4c1.4-1.2,1.6-2.1,3.4-3.2s2.8-.9,2.5-1.9h-.2c0,.2.1.3.4.3s-.2-.3.5-.3a18.5,18.5,0,0,1,2.6,1.2c.3.8,0,1.7.6,1.7s0-.3.7-.3.7.5,1.1.9c0,3.8,1.8,1.8,1.8,4.2a66.4,66.4,0,0,1-1.7,7.4,44,44,0,0,1-4.3,6.2c-2.6,3.2-7.9,8.5-7.9,9.3s1.7,1.8,2.8,2.3a6.1,6.1,0,0,0,2.7.3c1,0,1.7-1,3.2-.3s4.8-1.6,6.6-2l.9.3C2146.4,257.7,2146,258.3,2145.1,258.6Zm-12.7-16a26.5,26.5,0,0,0-1.8,3.6l-.6,2.5c1.4-1.8,2.8-3.4,4-5.2s3.6-4.5,4-8.2C2135.6,236.7,2134.7,238.6,2132.4,242.6Z"/><path class="d" d="M2173.6,258a.4.4,0,0,0,.1.3l1.4-.5q-.9.3-.3.9c-1,.5-2.1,2.6-.7,2.7-.7.3-1,1.5-1.3,1.9s-2.6,1.5-3.6,2.3-1.3,1.5-2.3,1.8l-3,.9-.6-.6c-1.1.9-1.3.4-2,.4s-.1.4-.7.4a32.5,32.5,0,0,1-3.5-1.3c-6.1-2.3-8.6-10.8-8.6-15.3,0-7.6,2.1-14,3.8-20.7.1-.8.9-1.5,1-2.1a69.8,69.8,0,0,1,1.8-7.7c.7-2.6,2.3-6.8,3.8-11.4a16.4,16.4,0,0,0,1.6-2.6c1.1-3.4,2.7-4.6,2.6-6.8l1.2-.2c.6,0,1.3.9,2.2,1h.9c.4.8,1,2.2,1.3,3s0,1.9.3,2.5l-9,29.3a39.3,39.3,0,0,0-2,6.4c-.7,3.1-2,10.4-2,13.2,0,.4.1,2.7.2,3.8a3.6,3.6,0,0,0,1,1.5,4,4,0,0,0,2.2.7c.7,0,.8-.4,1.2-.4s.7.3,1.5.3,1-.4,3.2-1.1c.4-.4.9-.9,1.3-.9s.1.3.8.3,2.1-1.6,4.2-2.7q-.3.2,0,.6c.1-.3,0-.5.5-.5a10.3,10.3,0,0,0,3.2-1.3C2174.7,256.8,2174.5,257.7,2173.6,258Z"/><path class="d" d="M431.9,264.8a1.2,1.2,0,0,1-1.1.5h-1.9a19.6,19.6,0,0,1-4.1-1,6,6,0,0,1-2-.3c-7-2.8-14.5-8.5-21.5-15.8-1.9-2.1-5.7-4.9-8.6-7.2-.3,0-.3.3-.6.6-.7,3.6-1.4,7-1.8,10.4-.3.7-.3,1.2-.6,1.9a14.8,14.8,0,0,1,.1,2.1,10.7,10.7,0,0,1-.9,3.4c-.4,1.8.5,3.8.1,5.8a2.9,2.9,0,0,1-1.7.6c-.3,0-.8-.4-1.4-1s-1.6-.8-2-1.5a15.9,15.9,0,0,1-1.2-4.5c0-9.4,4.1-26.7,5.7-33.9.8-2.3,3.6-10.2,5.3-15.2-1.2-.4-2.5-.4-3.7-1.1s-.6-2.1-1.8-2.4h0a.6.6,0,0,0-.1-.4c0-.3.3-.5.3-.9s.2-1.2.3-1.9l2.3-2.3a4.8,4.8,0,0,1,2.4-.9c.4,0,.4-.7.8-.7l6.7-.8c4.6,0,15.2,4.1,17.6,7a1.9,1.9,0,0,1,.3.9,12.2,12.2,0,0,1,3.6,5.7,5.6,5.6,0,0,1,.6,1.7,13.9,13.9,0,0,1-.5,2.3,16,16,0,0,1-1.8,4.1,14.2,14.2,0,0,1-2.1,2.2l-.5,1.1-2.4,2.3a68.7,68.7,0,0,1-6.6,5.2c-1.8,1.2-3.8,2.7-5.9,3.9s-2.6.9-3.8,1.7l-1.2.9c6.2,6.1,14.6,15.9,23.2,19.5,3.3,1.6,8.2,3.5,10.6,5.4a3.3,3.3,0,0,1,.5,2C432.5,264.5,431.9,264.7,431.9,264.8Zm-29.1-60.3a13,13,0,0,0-1.3.3,11.3,11.3,0,0,1,1,3.2,19.2,19.2,0,0,1-.4,4.4c-.6,3-2.2,6.6-2.9,8.7l-2.5,6.7c.3-.3.6-.3.8,0s.8-1,1.1-1.3c3.8-2.7,7.5-4.2,11.3-8v-.8c2.5-2.6,5.3-5.6,5.9-8.1C413.4,206.9,407.4,204.5,402.8,204.5Z"/><path class="d" d="M445.2,258.6c0,.5.4.8,1,.9a15.6,15.6,0,0,0-1,2.2c-1.6-.3-2.4,1.7-2.4,3.2a13,13,0,0,1-3.6.5c-.4.3,0,.4.4.4s-2.4.9-3.4,1v.3c0,.1-.1.2-.4.2s-3.8-1.9-4,0l-1-1.4c-2.7-.7-3.4-1.3-5.7-3.8s-.9.8-2.6-6.5a14.7,14.7,0,0,1,.7-7.1,60.5,60.5,0,0,1,3.1-8.2c.8-1.5,1.7-3.6,3.1-5.8a38.6,38.6,0,0,0,2.4-3.4c1.3-1.2,1.5-2.1,3.4-3.2s2.7-.9,2.5-1.9h-.2a.3.3,0,0,0,.3.3c.8,0-.1-.3.6-.3s1.7.9,2.6,1.2,0,1.7.6,1.7,0-.3.7-.3.7.5,1.1.9c0,3.8,1.8,1.8,1.8,4.2a53,53,0,0,1-1.8,7.4,35.7,35.7,0,0,1-4.2,6.2c-2.6,3.2-7.9,8.5-7.9,9.3s1.7,1.8,2.8,2.3a5.8,5.8,0,0,0,2.6.3c1,0,1.8-1,3.3-.3s4.7-1.6,6.6-2a1.6,1.6,0,0,0,.9.3C446.5,257.7,446,258.3,445.2,258.6Zm-12.7-16a26.5,26.5,0,0,0-1.8,3.6l-.6,2.5c1.4-1.8,2.8-3.4,4-5.2s3.6-4.5,4-8.2C435.6,236.7,434.8,238.6,432.5,242.6Z"/><path class="d" d="M485.3,257.1c-.5.4-.6.8-.4,1.2a18.6,18.6,0,0,1-3.5,3.1,1.3,1.3,0,0,0,.8.6c-2,.3-5.1,3.2-5.9,3.2h-3.9c-3.7,0-7.1-7.7-7.1-8.3a28.1,28.1,0,0,0-.3-4.7c-1,1.7-2,3-3.1,4.9s-5.8,8.3-8.5,8.3c-.5,0-1.5.4-1.9.4-3.1,0-4.1-1.9-5.8-3.4-.1-.7-.8-2.3-.8-2.8,0-5.6,7.5-18.2,10.6-22.3a21,21,0,0,1,3.7-3.5,25.6,25.6,0,0,0,2.7-2.3c.2-.3-.1-.6.1-.8s1.5-.2,2-.6a3.6,3.6,0,0,0,1.1-1.3h.7a2.4,2.4,0,0,0,1.6.8l1.4.2c1.1-1.2.4-1.8,1.6-1.8s.2.7.8.7.1-.3.6-.3a7.5,7.5,0,0,1,4,1.9c.3.4.8,1.7.4,2.1s.3-.4.3.4-2,6.7-2.7,10.2-2,14.1-2,14.6.3,2,.3,2.9a7.8,7.8,0,0,0,2.7-.1c1.4,0,11.6-4.8,12.2-5.1S485.6,256.4,485.3,257.1Zm-21.1-17.2c-.3-.4,0-.8,0-1.1a86,86,0,0,0-8.1,13l.6.7c2.9-3.6,5.4-8.8,8.1-13.2Z"/><path class="d" d="M520.8,210.7c-.3.5-1.3,1.6-1.3,2.1-.1,3.4-2.2,6.3-4.4,12.5-.3.4.1,1.4-.2,2l-1.2,4.5a23.9,23.9,0,0,1-1.1,3.2c-.4,1.9-.9,3.8-1.4,5.7a58.3,58.3,0,0,0-1.4,9.3c.3.4.6,1,.3,1.4,0,2.1-.9,5.8-.9,6.5l.2,1.5a8.2,8.2,0,0,0,3.3.7c3.7-.5,11.8-4.9,12.6-5.7-.2,1-.3,2.2-.4,3s-1.7,2.3-2.4,3-.6.8-.9,1.6-2.7,1-3,1.9a34.1,34.1,0,0,1-5,1.4l-2.3.3c-.7.1,0-.3-.6-.2s-3.5-1.4-4.8-2.2-1.6-2.1-2.7-3.7a18.3,18.3,0,0,1-1.3-4.4c-.4-2.1-.7-3.5-.8-4.3a24.7,24.7,0,0,0-2.6,4.7,39.8,39.8,0,0,1-4.2,6.2,11.1,11.1,0,0,0-2,2.4c.3.4.6.5.8.2-3.1,2.2-2.9,3.9-5,4.1l-3.1-.3c-3.2-2.9-4.3-4.5-4.6-7.2-.7-7,5.5-19.2,8.6-24.7a19.2,19.2,0,0,1,2.9-3.8,8.1,8.1,0,0,1,1.8-1.2,3.7,3.7,0,0,1,2-.4c.5-.1.3.8,1,.8s.4-.3.4-.7,2.5.9,3.5,1.5a10.3,10.3,0,0,0,2.1,2.2c.3-.4.2-.2.5-.4,3.5-11.2,6-19.1,11.5-29.4,1.4,0,6.4.5,6.7,3.6A7.8,7.8,0,0,1,520.8,210.7Zm-23.1,28.1c-.4.4-1.4,1.2-1.7,1.1s.2.7-.2,1.1-2.2,2.9-2.9,4.3a28.8,28.8,0,0,0-2.3,5.9c0,.2.2.3.2.7a16.2,16.2,0,0,0-.8,2.7,12.1,12.1,0,0,1,3.2-3.9c.1-.6.4-1.9.8-1.9s.8.3.7,0v-.6c1.1-.4.8-1.1,1.3-2.5.3.4-.4.7.3.6s.8-1.1.5-1.6a2.9,2.9,0,0,0,1.6-1.8c-.4-.5-.1-1.2-.1-1.7A6,6,0,0,0,497.7,238.8Z"/><path class="d" d="M543.5,258.6c0,.5.4.8,1.1.9a15,15,0,0,0-1.1,2.2c-1.5-.3-2.3,1.7-2.3,3.2a14.2,14.2,0,0,1-3.6.5c-.5.3,0,.4.3.4s-2.4.9-3.4,1v.3c0,.1-.1.2-.3.2s-3.8-1.9-4.1,0l-1-1.4c-2.7-.7-3.4-1.3-5.7-3.8s-.8.8-2.6-6.5a15.8,15.8,0,0,1,.8-7.1,41.8,41.8,0,0,1,3.1-8.2,46.9,46.9,0,0,1,3-5.8,18.5,18.5,0,0,0,2.4-3.4c1.4-1.2,1.6-2.1,3.4-3.2s2.8-.9,2.5-1.9h-.2c0,.2.1.3.4.3s-.2-.3.5-.3a18.5,18.5,0,0,1,2.6,1.2c.3.8,0,1.7.7,1.7s0-.3.6-.3.7.5,1.1.9c0,3.8,1.8,1.8,1.8,4.2a66.4,66.4,0,0,1-1.7,7.4,42.5,42.5,0,0,1-4.2,6.2c-2.7,3.2-7.9,8.5-7.9,9.3s1.6,1.8,2.7,2.3a6.3,6.3,0,0,0,2.7.3c1,0,1.7-1,3.2-.3s4.8-1.6,6.6-2l.9.3C544.8,257.7,544.4,258.3,543.5,258.6Zm-12.7-16a26.5,26.5,0,0,0-1.8,3.6l-.5,2.5c1.3-1.8,2.7-3.4,3.9-5.2s3.6-4.5,4.1-8.2C534,236.7,533.1,238.6,530.8,242.6Z"/><path class="d" d="M572.7,239.5a12.5,12.5,0,0,0-3.9,0,10.9,10.9,0,0,0-.4-2.7c-3.7,1.4-6.7,5.7-9,9.3,0-.3-.1-.5-.4-.5s-.4,1-.2,1.2h-.3l-.2.4c-.1.3.2.4.2.7s-.2.2-.6.2h-.1c-.2,0-.3.1-.3.2s.4.6.4.7a38.1,38.1,0,0,1-2.2,3.4c0,.3.3.5.2.6a5.8,5.8,0,0,1-1.6,1.9c-.5.7-.4,1.6-.7,2.3-1.2,2.5-2.4,5.6-1.6,8.1a2.7,2.7,0,0,1-1.7.6,18.7,18.7,0,0,1-2.6-1c-.4-.4,0-1.6-1-1.3-.7-1.9-1.6-3.3-1.6-4.8s1.5-5.6,1.7-8.1a70.5,70.5,0,0,0,1.7-10.4c.3-2.1.7-4.9.9-7.5a48.5,48.5,0,0,1,.9-5.5h1.1a4.8,4.8,0,0,1,3.3,2.5,20.1,20.1,0,0,1,.9,4.1c.1,1-.3,1.8-.3,3.2.9-2.3,6-6.2,8.9-6.2a12.8,12.8,0,0,1,8.9,4.2c.3.4.5,1.3,1,2S572.3,238.7,572.7,239.5Z"/></svg>