<svg xmlns="http://www.w3.org/2000/svg" viewBox="0 0 747.2 182.2" enable-background="new 0 0 747.2 182.2"><path fill-rule="evenodd" clip-rule="evenodd" fill="#fff" d="M40 25.9c3.2-1.9 6.6-3.6 10.2-5.1 7.5-3.1 15.1-5 23-5.8l8.6 9.8-3.9 10c-7.7 1.5-15 4.3-21.8 8.4l-1.5.9L53.2 31 40 25.9zM36.3 28.2l13.6 5.3 1.4 13c-7.4 5.4-13.1 12.3-17.2 20.7-.4.7-.7 1.5-1 2.3l-9.5-11.6L8 61.2c3.9-8.4 9.1-15.9 15.7-22.5 3.8-4 8.1-7.4 12.6-10.5zM125.8 119.8c1.5-2.5 2.7-5 3.6-7.5l14.7 17.8 24.7-5.3c-1.4 3.9-3.1 7.7-5 11.4-5.1 9.8-11.8 18.3-20.1 25.5-8.4 7.3-18 12.7-28.6 16-.2.1-.4.1-.6.2l-18.3-15.5 4.8-21.1c.1 0 .2-.1.4-.1 10.4-4.4 18.5-11.6 24.4-21.4zM156.7 36.4c1.5 2.1 2.9 4.2 4.3 6.5 5.6 9.5 9.5 19.6 11.7 30.4 2.1 10.7 2.4 21.5.9 32.3-.7 5.2-1.9 10.3-3.4 15.2l-24.7 5.3-14.8-17.9c1.8-6.6 1.9-13.4.5-20.6-1.7-8.5-5.4-15.7-11.1-21.7l26.7-3.2 9.9-26.3zM6.2 65.1l15.9-3.4 9.4 11.5C28.7 81.5 28 90 29.4 98.9c.4 2.5 1 5 1.7 7.4l-16.8-3.8-12.1 14.2C.7 110.4 0 103.9 0 97.3c0-11 2.1-21.6 6.1-31.9.1-.1.1-.2.1-.3zM32.4 110.2c2.4 6.4 6 12.3 10.7 17.6 3.6 4 7.5 7.4 11.9 10l-16.7 9.6.9 21.8c-5.5-3.4-10.6-7.5-15.2-12.3-7.7-7.9-13.7-17.1-17.8-27.4-1.1-2.8-2.1-5.7-2.9-8.5l12.3-14.6 16.8 3.8zM58.6 139.8c3.6 1.8 7.4 3.2 11.5 4.1 9.2 2.1 18.1 1.8 26.8-1.1l-4.8 20.9 18.1 15.3c-9.1 2.4-18.3 3.4-27.8 3-11-.4-21.6-2.7-31.8-7-2.7-1.2-5.4-2.4-7.9-3.9l-.9-21.9 16.8-9.4zM154.2 33.1l-10 26.5-27.4 3.2c-.8-.7-1.6-1.4-2.5-2-9-6.8-19.1-10.8-30.4-11.9-2.6-.2-5.1-.3-7.5-.2L86 24.2 65.3.6C71.5.1 77.7-.1 83.9.1c3.7.1 7.4.4 11.1.9 5.2.7 10.3 1.7 15.3 3.1 10.7 3 20.4 7.9 29.2 14.6 5.5 4.2 10.4 9 14.7 14.4z"/><g fill="#fff"><path d="M245.4 99.7h-19.5l-4.9 24.7h22.4l-2.9 14.7h-38.8l17-89h37.2L253 64.6h-20.5l-4.4 21.1H248l-2.6 14zM260.1 139l-2.8-89h18.4l-1.2 45c-.3 8.1-.8 18.4-1.3 25.2h.3c1.8-6.9 4.9-17.3 7.7-25.2l16-45h18.2l-37.2 89h-18.1zM345.4 99.7h-19.5l-4.9 24.7h22.5l-2.9 14.7h-38.8l17-89H356l-3 14.5h-20.5l-4.4 21.1H348l-2.6 14zM349 139l17-89h15.1l6.9 35.4c2.2 11.7 3.7 20.2 4.4 27.6h.3c1.2-9.8 2.8-25.1 5.5-39.9l4.4-23.1h14.3l-17 89h-14.1l-7.1-33.1c-2.8-12.4-3.6-18.5-4.5-29.6h-.3c-1.2 9-3.2 23.6-6.1 39.1l-4.5 23.6H349zM432.3 65.6h-15.5l3-15.6h47.4l-3 15.6h-15.5l-14 73.4h-16.5l14.1-73.4zM477.2 122.1c2.9 1.7 7.5 3 12.3 3 7.5.3 12.8-4.4 12.8-11.4 0-5.9-3.3-9.4-8.8-14.9-7-6.6-10.6-13.7-10.6-21.5 0-16.5 11.6-28.1 29-28.1 6.9 0 11.2 1.5 13.3 2.8l-4.5 14.3c-2.6-1.5-5.5-2.4-9.6-2.4-7 0-11.8 4.5-11.9 11.4 0 4.2 1.7 7.5 8.8 13.9 7.3 6.5 10.7 14.3 10.7 21.4 0 18.5-12.3 29.3-29.2 29.3-8.8 0-14.5-2-16.6-3.3l4.3-14.5zM541.2 65.6h-15.5l3-15.6h47.4l-3 15.6h-15.5l-14 73.4h-16.5l14.1-73.4zM625.1 77.2c0 18.9-6.2 42.7-18 54.4-5.5 5.5-11.9 8.5-19.7 8.5-19.3 0-22-19.3-22-29 0-18.1 6.2-41.9 18.5-53.9 5.3-5.1 11.8-8.2 19.5-8.2 19.3 0 21.7 17.7 21.7 28.2zm-29.9-10.9c-8.2 8.3-12.8 33.1-12.8 46.4 0 5 .7 12.9 7.5 12.9 1.9 0 3.8-.9 5.4-2.6 8.8-8.7 12.7-37.4 12.7-47 0-5.7-.8-12.4-6.9-12.4-2-.1-4 .8-5.9 2.7zM639.4 51.2c5.5-.9 11.8-1.6 17.7-1.6 7.7 0 15.1 1.5 19.7 6.1 3.7 3.7 5.8 8.8 5.8 14.7 0 13.1-7.9 23.5-18.1 26.9v.3c4.9 2.2 7 7.4 7.3 17.3.3 9.9.5 20.9 1.5 24.2h-16.6c-.4-2.5-.7-11.5-.7-21.3 0-10.8-2.2-14.4-7.8-14.4h-2.8l-6.6 35.7h-16.1l16.7-87.9zm8.6 39.4h3.8c8.3 0 13.9-8.8 13.9-18.2 0-4.8-2-9.8-8.2-9.8-1.7 0-3.3.1-4.4.4L648 90.6zM722.7 99.7h-19.5l-4.9 24.7h22.4l-2.9 14.7H679l17-89h37.2l-2.9 14.5h-20.5l-4.4 21.1h19.9l-2.6 14z"/></g><path fill="#fff" d="M745.1 137.1c-1.3 1.3-2.9 1.9-4.8 1.9s-3.5-.7-4.9-2c-1.3-1.3-2-2.9-2-4.9 0-2 .7-3.7 2.1-5 1.3-1.2 2.9-1.9 4.7-1.9 1.9 0 3.5.7 4.8 2 1.3 1.3 2 2.9 2 4.8.2 2.1-.5 3.8-1.9 5.1zm-8.8-8.9c-1.1 1.1-1.6 2.4-1.6 4s.6 2.9 1.7 4 2.4 1.7 4 1.7 2.9-.6 4-1.7 1.7-2.5 1.7-4-.5-2.8-1.6-4c-1.1-1.1-2.4-1.7-4-1.7-1.8 0-3.1.6-4.2 1.7zm1 7.8v-7.6h3.7c.6 0 1.1.2 1.5.4.7.4 1 1 1 1.8 0 .6-.2 1.1-.5 1.4-.4.3-.8.5-1.3.5.5.1.8.2 1.1.4.4.4.7.9.7 1.7V135.5c0 .1 0 .1.1.2l.1.2h-1.9c-.1-.2-.1-.6-.1-1 0-.5-.1-.8-.1-.9-.1-.3-.3-.5-.6-.6-.1-.1-.4-.1-.7-.1h-.8v2.7h-2.2zm3.6-6.1c-.3-.1-.7-.2-1.2-.2h-.5v2.2h.8c.5 0 .8-.1 1.1-.3.3-.2.4-.5.4-.9.1-.3-.2-.6-.6-.8z"/></svg>