<svg xmlns="http://www.w3.org/2000/svg" viewBox="0 0 2416 676"><defs><style>.a{fill:#fff;}.b{fill:#d6ecd4;}.c{fill:#5ab552;}.d{fill:#09264a;}</style></defs><rect class="a" width="2416" height="676"/><polygon class="b" points="690.7 207.6 1067.3 207.3 1173.2 391.8 1067.3 575.3 690.7 577.6 795.9 391.8 690.7 207.6"/><path class="c" d="M1064,209.4c13,24.8,26.5,49.4,40.3,73.8s27.3,47.5,41.5,70.9q11.9,19.5,24.1,38.8c1.1,1.8,3.9,3.1,5.8,1.7a4.4,4.4,0,0,0,.9-6q-21.7-34.5-42.5-69.6c-14-23.8-27.6-47.9-40.9-72.1q-11.4-20.8-22.5-41.8c-1-1.9-4-3.1-5.9-1.7s-1.9,3.9-.8,6Z"/><path class="c" d="M694.2,580.3l66.5-.4,75.9-.2H993.1l68-.4h7.4c1.2,0-1.9-2.6-2-2.7s-3.4-2.7-5.1-2.7l-66.5.4-75.9.2H762.6l-68,.4h-7.4c-1.2,0,1.8,2.6,2,2.7s3.3,2.7,5,2.7Z"/><path class="c" d="M694.2,209.3l66.5-.3h75.9l79.8.3h76.7c22.6,0,45.3,0,68-.2h7.4c1.2,0-1.9-2.6-2-2.7s-3.4-2.7-5.1-2.7q-33.2.3-66.5.3H919l-79.7-.2H762.6q-34.1,0-68,.3h-7.4c-1.2,0,1.8,2.6,2,2.7s3.3,2.7,5,2.7Z"/><path class="c" d="M1071.2,577.6c13-24.7,26.4-49.3,40.2-73.6s27.3-47.5,41.5-70.9c7.6-12.4,15.7-25.5,23.6-38.1a4.8,4.8,0,0,0-.7-6.3c-1.4-1.3-4.5-2.2-5.9-.1-14.6,23.2-28.9,46.7-42.8,70.3s-27.7,47.9-41,72.1q-11.5,21-22.6,42c-1.1,2.1.3,5.1,2.2,6.1a3.8,3.8,0,0,0,5.5-1.5Z"/><path class="c" d="M799.2,388.6q-21.7-34.5-42.4-69.6c-14-23.8-27.7-47.9-41-72.1q-11.4-20.8-22.5-41.8c-1-1.9-4-3.1-5.8-1.7s-2,3.9-.9,6q19.6,37.2,40.3,73.8c13.5,23.8,27.4,47.5,41.6,70.9q11.8,19.5,24,38.8c1.2,1.8,3.9,3.1,5.9,1.7a4.4,4.4,0,0,0,.8-6Z"/><path class="c" d="M693.8,577.6c13.1-24.7,26.4-49.3,40.2-73.6s27.3-47.5,41.6-70.9c7.5-12.4,15.6-25.5,23.6-38.1a5,5,0,0,0-.7-6.3c-1.5-1.3-4.6-2.2-5.9-.1-14.7,23.2-29,46.7-42.9,70.3s-27.7,47.9-41,72.1q-11.4,21-22.6,42c-1,2.1.3,5.1,2.2,6.1a3.8,3.8,0,0,0,5.5-1.5Z"/><path class="d" d="M928.6,361.7a1.5,1.5,0,0,0-.9.8,5.2,5.2,0,0,0-2.8.8l-2,1-8.3,1.8c-.3,0-.8.7-1.3.7s-1.6.1-3.6,1a14.9,14.9,0,0,1-3.6.7c-.4,0-2.8.1-3.1,1.1-2.1,4.7-2.9,9.7-4.5,14.5l18.9-1.9h7.8c.2.4.9.8.2,1.1s.6.5.9.6a2.4,2.4,0,0,0,.5,1.2l-1.5.3c-.1,0-.1.4.1.8a1.3,1.3,0,0,0-.9.3h.4c-.6,0-1,.8-1.9,1a56.7,56.7,0,0,1-9.2,2.3c-.5,0-.3-.2-.7-.2a38.3,38.3,0,0,1-4.2,1.3,27.1,27.1,0,0,1-4.1.4,61.2,61.2,0,0,0-8.7,1.5,69.3,69.3,0,0,1-2,7.5c-.3,1.4-.3,3.2-.5,4.6s-.5.7-.6,1.3-.1,1.9-.4,2.8-.2.2-.4.4a29.8,29.8,0,0,1-1.1,6.3,1.3,1.3,0,0,0-.5-1.2c-.3.7-.2,1.2-.5,1.8s-.2-.3-.4-.6-.5.1-.8.4-1.9-1.6-1.9-2.2.3-.6.3-1a129.7,129.7,0,0,1,2.3-20.9c-2.5-1.6-3-3.8-3.2-6.1l2.7-.6a6,6,0,0,0,2.2-.6c.9-3.3,2.2-7.4,3.2-11.3.6-1.5,1-3.7,1.6-5.7a4.7,4.7,0,0,0,1-1.8c0-.6-.7-2.2-.7-2.7v-.6a1.3,1.3,0,0,1,.9-.4c.6,0,0,.3.6.3s.7-.5,1.6-.8.3,0,.5.3l6.5-.7a19.2,19.2,0,0,1,3.4-1h.5l9.4-1.3,1.7-.5a13.4,13.4,0,0,1,2.8-.1c1.4,0,3.6-.1,4.9,1.1a1.2,1.2,0,0,0,.3,1.1h-.1v.3c0,.3.3.3.3.6Z"/><path class="d" d="M938.9,406.9c.2.1.5,0,.8.4s-.7.8-1,1.1a1.8,1.8,0,0,0-.2,1.3,21,21,0,0,0-4.2,3.7c0,.3.2.8-.5,1.1a8.1,8.1,0,0,1-3.2,1.1c-5.3.4-8.1-6.3-8.4-9.9a21.2,21.2,0,0,1,.6-5.2l.9-3.4a40,40,0,0,1,2.6-8.4,5.4,5.4,0,0,1,.1-1.1c.3-.3.4-.9.9-1.5a12.9,12.9,0,0,0,1.9-.4,5.1,5.1,0,0,1,3.2,1.3,4.2,4.2,0,0,1,1.9,2.9c0,.4-.3.9-.4,1.5a37.9,37.9,0,0,0-.8,4.3,9.6,9.6,0,0,1-1.2,4.2c-.3.7-.5,2.2-.7,2.9-1,3.3-1.7,4.3-1.1,6.2a35.8,35.8,0,0,0,10.1-7.3C939.2,402.6,940.6,405.4,938.9,406.9Zm-3.6-28.7a6.4,6.4,0,0,1-3.2-1c-.1-.3,0-.3-.3-.6s-1.9-2.6-2.3-4-.1-2-.5-2.7c3.6.2,4-.6,6-.9s1.3,1.1,1.5,1.7-.1,1.5.8,2.4C936,375.1,939.1,378,935.3,378.2Z"/><path class="d" d="M961,408.9a.8.8,0,0,0,.1.4l1.2-.5c-.6.1-.6.4-.2.8s-1.9,2.2-.7,2.3c-.6.3-.9,1.4-1.1,1.7s-2.2,1.3-3.1,2-1.1,1.3-2,1.5l-2.7.8-.4-.5c-1,.7-1.2.3-1.8.3s-.1.4-.6.4a21.3,21.3,0,0,1-3.1-1.2c-5.3-2-7.4-9.3-7.4-13.2,0-6.7,1.7-12.2,3.3-18,0-.8.8-1.3.8-1.9s.9-4.5,1.6-6.7,2-5.9,3.3-9.8c.3-.8,1.1-1.5,1.4-2.4.9-2.9,2.3-4,2.2-5.9h1.1c.5,0,1.2.8,1.9.8h.8c.3.7.9,1.9,1.1,2.6s0,1.6.3,2.2l-7.8,25.4a30.4,30.4,0,0,0-1.8,5.6,78.6,78.6,0,0,0-1.7,11.4c0,.4,0,2.4.1,3.4a3.8,3.8,0,0,0,.9,1.3,4.1,4.1,0,0,0,1.9.6c.7,0,.7-.4,1.1-.4s.6.3,1.2.3.9-.4,2.8-1c.4-.3.8-.7,1.2-.7s.1.2.7.2,1.8-1.3,3.7-2.3c-.2.1-.2.2,0,.5s0-.4.4-.4a11.4,11.4,0,0,0,2.8-1.1C961.9,407.9,961.7,408.7,961,408.9Z"/><path class="d" d="M988.1,388.2c0,.3.2.3.4.3s-1,.6-.1,1.3l-2.7,1.3c0,.3.3.4.6.6s-2.5,1.8-4.1,2.1-1.3,1.9-1.8,1.9.1-.2-.3-.4-.3.2-.3.7a55.7,55.7,0,0,0-5.5,1.7c-.2.1,0,.3,0,.5h-.6a24.6,24.6,0,0,0-3.7,1.2l-.7,1a8.9,8.9,0,0,0-2.3,1.3c-.6,2.6-1.5,7.7-1.5,8.2s.8,3.6.8,4-1,1.1-1,1.9h-1.2c-.6,0-.7-.9-1-1.3-2.5-2.2-2.1-4.2-2.4-6.2s.3-4.3.2-8.2c0-.6-2.2-3.2-2.2-3.7s.4-2,.4-3.2l.4-.6a2.9,2.9,0,0,1,1-.3c.6,0,0,.2.7.2s1-.6,1.1-1.2c.9-2.4,1.8-9.9,2.7-13.3s2.1-7.1,3.1-10.7c.4-1.7,1-4,1.7-6s.7-4.2,2.3-5.2a2.2,2.2,0,0,1,1.3-.6c.7,0,1.2,1.3,1.8,1.3h.6v.4c0,.7,1.5,3.1,1.5,3.8a13.2,13.2,0,0,1-.9,3.4,6.9,6.9,0,0,1,.2,1.3c-1.6,5.5-3.3,10.8-4.9,15.8a46.8,46.8,0,0,1-1.6,7v.4c.6.4.9.2,1.6.2a4.2,4.2,0,0,1,1.7-.2c.6,0,.1.4.7.4a19.4,19.4,0,0,0,2-.5,116.9,116.9,0,0,1,12.7-1.4C988.8,387.7,988.5,387.9,988.1,388.2Z"/><path class="d" d="M1000.2,409.5c0,.4.3.6.9.8a11.4,11.4,0,0,0-.9,1.9c-1.3-.3-2.1,1.5-2.1,2.7a7.5,7.5,0,0,1-3.1.5c-.4.3,0,.3.3.3s-2,.8-2.9.9v.3h-.3c-1,0-3.3-1.6-3.6,0l-.8-1.2c-2.4-.5-3-1.1-5-3.3s-.7.8-2.2-5.6a14.2,14.2,0,0,1,.6-6.2,39.1,39.1,0,0,1,2.7-7.1c.7-1.3,1.5-3.1,2.7-5.1a24.3,24.3,0,0,0,2-2.9c1.2-1.1,1.4-1.9,3-2.8s2.4-.8,2.2-1.7-.2.1-.2.2.1.2.3.2-.1-.2.5-.2,1.5.7,2.2.9,0,1.5.6,1.5,0-.2.6-.2.6.4.9.7c0,3.4,1.6,1.6,1.6,3.7a58.1,58.1,0,0,1-1.5,6.5,28.7,28.7,0,0,1-3.7,5.3c-2.3,2.8-6.9,7.4-6.9,8.1s1.5,1.6,2.4,2a6.6,6.6,0,0,0,2.4.3c.8,0,1.5-.8,2.8-.3l5.7-1.7.8.3C1001.3,408.7,1000.9,409.3,1000.2,409.5Zm-11-13.9a22.5,22.5,0,0,0-1.6,3.1l-.5,2.2c1.2-1.6,2.4-3,3.4-4.5s3.2-3.9,3.6-7.1C991.9,390.5,991.2,392.1,989.2,395.6Z"/><path class="d" d="M1025.6,392.9a9.5,9.5,0,0,0-3.4,0,16.7,16.7,0,0,0-.4-2.4c-3.2,1.2-5.8,5-7.8,8.1,0-.2-.1-.4-.3-.4s-.4.8-.2,1-.2,0-.2.1l-.3.3c-.1.2.3.3.3.6s-.3.2-.6.2h-.3c-.3.4.3.5.3.6a28.6,28.6,0,0,1-1.9,3c0,.3.2.4.1.5a7,7,0,0,1-1.3,1.7c-.4.6-.3,1.4-.7,2-1,2.2-2,4.8-1.3,7a2.3,2.3,0,0,1-1.5.5,7.6,7.6,0,0,1-2.3-.9c-.3-.3,0-1.3-.9-1.1-.5-1.7-1.3-2.9-1.3-4.1s1.3-4.9,1.4-7.1a52.8,52.8,0,0,0,1.5-9c.3-1.9.6-4.3.8-6.6s.4-3.3.8-4.8h.9a4.1,4.1,0,0,1,2.9,2.3,14.7,14.7,0,0,1,.8,3.5c.1.9-.2,1.6-.2,2.8.8-2,5.2-5.4,7.7-5.4a11.3,11.3,0,0,1,7.7,3.6c.3.4.5,1.1.9,1.8S1025.3,392.1,1025.6,392.9Z"/><path class="d" d="M1045.2,384.5a11.9,11.9,0,0,1-.7,5.9,2.8,2.8,0,0,1-1.6.5,4.8,4.8,0,0,1-2.4-1.2,1,1,0,0,0-.7.7c-.7,6-.1,12.2-1.1,18.3-.4,3-1.3,10.5-6,10.5-.6,0-.5-.3-.8-.3s0,0-.6,0-3.4-2.2-3.7-2.2c-2.6-1.5-6.2-7.7-6.2-11a10.7,10.7,0,0,1,1.7-4.8l.6-.2c.1.4-.2,1-.3,1.6s.4.2.7.6.1.5.1,1.2.7.3,0,1a2,2,0,0,1,.3,1.4c.4.7,1.2,1.3.8,2.2l.4.3a1,1,0,0,1,.8-.5c.9,1.6.9,3.6,2.5,4.7a8.2,8.2,0,0,0,2-3.5c1.9-4.5,1.5-12.8,1.5-16.4,0-1.2.6-2.7.6-4s-.2-.8-.2-1.2a33.9,33.9,0,0,1,.4-3.7c0-1,.3-8.1,2.3-8.1s.5.1.9.3a7,7,0,0,1,4.1,1.2,18.6,18.6,0,0,1,3.5,2.6,2.5,2.5,0,0,1,.1.9,3.2,3.2,0,0,1,1.3,2.2A1.3,1.3,0,0,1,1045.2,384.5Zm-18.8,23.9h-.3v-1.2h.3Z"/><polygon class="b" points="1140.7 207.6 1517.3 207.3 1623.2 391.8 1517.3 575.3 1140.7 577.6 1245.9 391.8 1140.7 207.6"/><path class="c" d="M1514,209.4c13,24.8,26.5,49.4,40.3,73.8s27.3,47.5,41.5,70.9q11.9,19.5,24.1,38.8c1.1,1.8,3.9,3.1,5.8,1.7a4.4,4.4,0,0,0,.9-6q-21.7-34.5-42.5-69.6c-14-23.8-27.6-47.9-40.9-72.1q-11.4-20.8-22.5-41.8c-1-1.9-4-3.1-5.9-1.7s-1.9,3.9-.8,6Z"/><path class="c" d="M1144.2,580.3l66.5-.4,75.9-.2h156.5l68-.4h7.4c1.2,0-1.9-2.6-2-2.7s-3.4-2.7-5.1-2.7l-66.5.4-75.9.2H1212.6l-68,.4h-7.4c-1.2,0,1.8,2.6,2,2.7s3.3,2.7,5,2.7Z"/><path class="c" d="M1144.2,209.3l66.5-.3h75.9l79.8.3h76.7c22.6,0,45.3,0,68-.2h7.4c1.2,0-1.9-2.6-2-2.7s-3.4-2.7-5.1-2.7q-33.2.3-66.5.3H1369l-79.7-.2h-76.7q-34,0-68,.3h-7.4c-1.2,0,1.8,2.6,2,2.7s3.3,2.7,5,2.7Z"/><path class="c" d="M1521.2,577.6c13-24.7,26.4-49.3,40.2-73.6s27.3-47.5,41.5-70.9c7.6-12.4,15.7-25.5,23.6-38.1a4.8,4.8,0,0,0-.7-6.3c-1.4-1.3-4.5-2.2-5.9-.1-14.6,23.2-28.9,46.7-42.8,70.3s-27.7,47.9-41,72.1q-11.5,21-22.6,42c-1.1,2.1.3,5.1,2.2,6.1a3.8,3.8,0,0,0,5.5-1.5Z"/><path class="c" d="M1249.2,388.6q-21.7-34.5-42.4-69.6c-14-23.8-27.7-47.9-41-72.1q-11.4-20.8-22.5-41.8c-1-1.9-4-3.1-5.8-1.7s-2,3.9-.9,6q19.7,37.2,40.3,73.8c13.5,23.8,27.4,47.5,41.6,70.9q11.9,19.5,24,38.8c1.2,1.8,3.9,3.1,5.9,1.7a4.4,4.4,0,0,0,.8-6Z"/><path class="c" d="M1143.8,577.6c13.1-24.7,26.4-49.3,40.2-73.6s27.3-47.5,41.6-70.9c7.5-12.4,15.6-25.5,23.6-38.1a5,5,0,0,0-.7-6.3c-1.5-1.3-4.6-2.2-5.9-.1-14.7,23.2-29,46.7-42.9,70.3s-27.7,47.9-41,72.1q-11.4,21-22.6,42c-1,2.1.3,5.1,2.2,6.1a3.8,3.8,0,0,0,5.5-1.5Z"/><path class="d" d="M1331.1,362.6c-.6,0-.4-.4-.8-.4s-1.7.9-2.4.9a72.4,72.4,0,0,0-12.4,2.2c-.3,1.6-.4,4-.8,6a12.3,12.3,0,0,0-.8,2.9c-.4,1.9-.9,3.5-1.2,5.1-.6,3.6-2.3,9.8-2.3,13.5l-3.3,22a3.7,3.7,0,0,0-1.5,1.1l-.4-.4c-.5.6-.6,1.2-1.3,1.2s-2.2-1.5-3.4-2.5c.4-.6,1.3-1.2,1.3-1.7.2-3.2.3-6,.5-9.2l.2-5.1c.6-6.1,1.5-12.5,2.2-18.9l2.9-12.5h-2.8c-1.7.2-6.6,1.2-9.8,1.5h-1.1l-.4.4c-.9-.3-2.5.2-3.2.2s-2.9-1.6-3.8-2.1a8.1,8.1,0,0,1-1.9-2.9c-.6-1-.3-2.6-.7-3.6s.1-.8.7-.8l2.5.3c1.2,0,2.2-.1,2.6-.7h.1a.1.1,0,0,0,.1.1c.7.3,1.4.1,2,.4l18.1-2.4a32.7,32.7,0,0,1,4.4-.1v-.3h.4c7.9,0,11.5-.3,21.5,1.9-.2.2-.1.4.1.6s-.1.4-.6.8.5.6.8.7A37.1,37.1,0,0,1,1331.1,362.6Z"/><path class="d" d="M1341.5,392.9a8.9,8.9,0,0,0-3.3,0l-.4-2.4c-3.2,1.2-5.9,5-7.9,8.1,0-.2,0-.4-.3-.4s-.3.8-.1,1h-.3l-.2.3c-.1.2.2.3.2.6s-.2.2-.5.2h-.4c-.2.4.4.5.4.6a31.1,31.1,0,0,1-2,3c0,.3.3.4.2.5a5.5,5.5,0,0,1-1.4,1.7c-.4.6-.3,1.4-.6,2-1,2.2-2.1,4.8-1.4,7a2,2,0,0,1-1.5.5,8.4,8.4,0,0,1-2.2-.9c-.3-.3,0-1.3-.9-1.1-.6-1.7-1.4-2.9-1.4-4.1s1.3-4.9,1.5-7.1a52.8,52.8,0,0,0,1.5-9c.2-1.9.6-4.3.8-6.6a39.7,39.7,0,0,1,.7-4.8h1a4.1,4.1,0,0,1,2.9,2.3,14.7,14.7,0,0,1,.8,3.5c0,.9-.3,1.6-.3,2.8.8-2,5.2-5.4,7.8-5.4a11.5,11.5,0,0,1,7.7,3.6c.3.4.4,1.1.8,1.8S1341.2,392.1,1341.5,392.9Z"/><path class="d" d="M1374.1,408.1c-.4.4-.6.8-.3,1.2a32.2,32.2,0,0,1-3.1,2.6c0,.1.4.6.7.6-1.7.2-4.4,2.7-5.1,2.7h-3.4c-3.3,0-6.2-6.7-6.2-7.2a21.3,21.3,0,0,0-.3-4.1l-2.7,4.2c-.9,1.3-5,7.3-7.4,7.3l-1.6.3c-2.7,0-3.6-1.6-5.1-2.9s-.6-2-.6-2.4c0-4.9,6.5-15.9,9.2-19.5a15.6,15.6,0,0,1,3.2-3,13.7,13.7,0,0,0,2.3-2c.2-.2-.1-.5.2-.7s1.2-.2,1.6-.5a2.2,2.2,0,0,0,1-1.1h.6a2.3,2.3,0,0,0,1.4.7l1.3.2c.9-1.1.3-1.6,1.3-1.6s.2.6.8.6,0-.2.4-.2a6.2,6.2,0,0,1,3.6,1.6c.2.4.6,1.5.3,1.8s.2-.3.2.3-1.7,5.9-2.3,8.9-1.8,12.2-1.8,12.7.3,1.8.3,2.5a6.3,6.3,0,0,0,2.4-.1c1.2,0,10.1-4.1,10.5-4.4S1374.3,407.6,1374.1,408.1Zm-18.3-14.9c-.3-.3,0-.7,0-.9a65.3,65.3,0,0,0-7.1,11.3l.5.5c2.6-3.1,4.7-7.6,7.1-11.4Z"/><path class="d" d="M1404.6,407.3c-.3.2.1.6.1.7l-.8.7.7.2h-.1c-.2.2-.2.3-.3.2s-.1,1-.7,1.4,0,.8.4,1.2-1.1.8-1.2,1.4-1.8,1.3-2.4,2-1.2,1.4-1.5,1.8l-3.2-.2c-.9,0-4.6-1.9-4.9-2.7a23.1,23.1,0,0,1-2.6-7.5,46.8,46.8,0,0,1-.5-7c-.2-.1.1-.3-.1-.4-2.2,2.5-4.8,6.2-7,8.8-.1.1-.1.2,0,.6a19.5,19.5,0,0,1-2.6,4c-.7,1-2.4,2.8-2.8,2.8s-1-.8-1.4-.7.1.3-.5.3-2.3-3.8-2.6-4.1a2.4,2.4,0,0,1-.8-1.5c0-.4.6-3,.7-4.6a13,13,0,0,0,1-2.5c.4-1.2.3-2.6.6-3.8,1.5-4.4,3.8-10.8,5.9-16.5,0-.3-.1-1-.1-1.7a10.4,10.4,0,0,1,2.3-1.7l1.4,1.7a1.9,1.9,0,0,0,.3-1.3,6.2,6.2,0,0,0,2,1.1c0,.4-.4.9,0,1.3h.5v.9c.1.5-.4,1.1-.6,1.8s-.4,3.4-.8,5a2.1,2.1,0,0,1-.4,1.2,8.7,8.7,0,0,0-.5,3.5c1.2-1.2,3.1-4.5,4.7-5.1s1.6-.1,2.6-.7a3.1,3.1,0,0,1,.9,1.2c.4-.2.6-.5,1.1-.5s1.5,1,2.1,1.6h0v.3c0,.2.4.3.4.3,2,3.8,1.5,2.3,1.7,4.5.3.5-.4,6.9-.1,10.2a16.5,16.5,0,0,0,.1,4.4,1.4,1.4,0,0,0,1.1.2c1.3,0,4.1-2.3,5.5-2.8h-.1c-.2,0-.2.1-.2.1v.2h.3c.5-.1,1.7-1.3,2.9-1.9A4.8,4.8,0,0,0,1404.6,407.3Zm-12.7-17.9V389h-.6v.4Z"/><path class="d" d="M1426.8,384.5a11.9,11.9,0,0,1-.6,5.9,2.9,2.9,0,0,1-1.7.5,4.8,4.8,0,0,1-2.4-1.2.7.7,0,0,0-.6.7c-.8,6-.1,12.2-1.2,18.3-.4,3-1.2,10.5-6,10.5-.6,0-.4-.3-.8-.3s0,0-.6,0-3.4-2.2-3.7-2.2c-2.5-1.5-6.1-7.7-6.1-11a11.8,11.8,0,0,1,1.6-4.8l.7-.2c.1.4-.3,1-.3,1.6s.4.2.7.6.1.5.1,1.2.7.3,0,1a2,2,0,0,1,.3,1.4c.3.7,1.2,1.3.8,2.2l.3.3a1.2,1.2,0,0,1,.9-.5c.9,1.6.9,3.6,2.5,4.7a9.4,9.4,0,0,0,2-3.5c1.9-4.5,1.5-12.8,1.5-16.4,0-1.2.5-2.7.5-4s-.2-.8-.2-1.2a21.1,21.1,0,0,1,.5-3.7c0-1,.2-8.1,2.2-8.1s.6.1.9.3a7.3,7.3,0,0,1,4.2,1.2,18.6,18.6,0,0,1,3.5,2.6,2.5,2.5,0,0,1,.1.9,3.5,3.5,0,0,1,1.2,2.2C1427.1,384.1,1427.1,384.2,1426.8,384.5ZM1408,408.4h-.3v-1.2h.3Z"/><path class="d" d="M1472.7,392.1l-.4.4c.3.3.6.4.6.8a7.5,7.5,0,0,1-2.4.8c-.2,1.4-2.6.8-3.8,1.1s-3.5,1.4-4,1.4-.1-.2-.7-.2-3.9,1.4-6,1.8c-4.4,1.3-9.5,2.2-14.1,3.5-.3.3-.8.9-.8,1.2-1.5,5.6-3.2,15.2-4.2,21.5-.1,0-.2-.3-.4-.8a6.4,6.4,0,0,0-.6,1.4c0,1.2-.4,3.5-.4,4v5.3c1.7.9.8,2.6,1,4l.4-.4c-.2,1,.4.7.4,1a8.5,8.5,0,0,1-.8,2.4h-.2l-.4-.3c-.2,0-.3.3-.3.7a15.2,15.2,0,0,1-3.5-3.2,65.3,65.3,0,0,1-.8-6.8l1.4-15.6c0-.7,2.2-8.7,2.6-13a1,1,0,0,0-1.2.3c-.2-.4-.9-.6-1.5-.6s-.1.1-.1.4a1.1,1.1,0,0,0-.9-.4,2.2,2.2,0,0,1-1.3-.6l-1.5-1.3a20.7,20.7,0,0,1-1.8-5.2c0-.3,1,0,.5-1.2,2,1.4,1.9.4,3.6.4s.1-.4.5-.4a8.8,8.8,0,0,0,3-.3,8.1,8.1,0,0,1,2.7-.4c.9-4.1,1.7-8.6,2.6-12.4.7-2.2,1.2-4.9,1.9-7,2.1-6.7,4.6-15.6,8.5-21.8.4-.9,2.8-3.4,3.5-3.4a1.8,1.8,0,0,1,1.2.5c.5.4,1.4.3,2.1.4a10,10,0,0,1,2.1,1.1,31.9,31.9,0,0,1,3.2,2.9,19.4,19.4,0,0,1,1.6,3.7,39.3,39.3,0,0,1-1.3,4.7c-.8,0-1.5.8-2.1,1.7s-.7-.4-.7-.4l-.7.4c-.3-.3-.6-.2-.9-.2l.4-.4a9.9,9.9,0,0,1-1.5-.9,7.3,7.3,0,0,1-.9-2.6c0-.6.4-.7.6-.9s.2.3.5.6a4.2,4.2,0,0,0,.5-2c0-.4,0-.9-.5-.9s-4,7.1-4.3,8.3a41,41,0,0,1-1.6,3.9,43.6,43.6,0,0,0-2,5.3,85.8,85.8,0,0,0-2.6,9.8c-.4,1.6-1,3.5-1.7,5.5-.2.3-.4.1-.7.4a1.3,1.3,0,0,0,.3.8c.1.3-.2.8-.5,1.2v.5c1.6.6,4.1-.1,5.8-.4s4.4-.1,6.6-.5a1.6,1.6,0,0,0,1.2-.4c2.3.1,5.9-.1,8.8-.1.2-.1.6,0,.7-.3a12.8,12.8,0,0,0,3.9-.1h.1c.1-.2.3-.2.5-.2s-.4.4.3.4l2.2-.4c.6,0,.6.4.9.4A5.2,5.2,0,0,0,1472.7,392.1ZM1435,428.5v-1.3h-.4v1.3Zm1.4.4h-.3v-1.3h.3Zm38-37.8v-.3h-.8v.3Zm.7-.4v0Z"/><path class="d" d="M1473.3,413.4c-.3.3-.4.9-.6,1.2a10.3,10.3,0,0,1-5,1.7c-2.5,0-3.8-1.5-5.4-2.8s-.8-2.4-1.8-2.4-.6-2.8-.6-3.2c0-3.5,3.1-10.2,3.8-11.3s.1-.9.4-1.3a22,22,0,0,0,1.8-2.8c.4-.3.4-.2.7-.3s.1-.5.5-.9,1.4-1.2,2-1.9.1-1,.4-1.6-.7-.4-1,.2a.6.6,0,0,0-.2-.5.8.8,0,0,0-.2.6c0-.4-.2-.5-.6-.5h.2l.3-.2c-.4-3.1,5.1-4.1,5.9-5,.4.9,1.1.3,2,.7l2.4,2.4c0,.1.1.2.2.3a1.6,1.6,0,0,0,.3.6c.3.1.6,0,.8.2,2.5,3.5,4.2,6.6,4.2,10C1483.8,402.4,1479.1,408.3,1473.3,413.4Zm2.9-22.4a60.5,60.5,0,0,1-3.5,5c-1.7,3.2-5,9.7-5,10.3v.7c1-.7,2.8-2.4,3.2-2.4s-.4.5.2.5,4-5.2,4.2-5.6a38.4,38.4,0,0,0,1.8-5.5A10,10,0,0,0,1476.2,391Zm-.9-.6v-1.2h-.4v1.2Z"/><path class="d" d="M1508,392.9a9,9,0,0,0-3.3,0l-.4-2.4c-3.2,1.2-5.9,5-7.9,8.1,0-.2-.1-.4-.3-.4s-.3.8-.2,1h-.2c-.2.2-.2.3-.2.3s.2.3.2.6-.2.2-.6.2h-.3c-.2.4.3.5.3.6a18.1,18.1,0,0,1-1.9,3c0,.3.3.4.2.5a5.5,5.5,0,0,1-1.4,1.7c-.4.6-.3,1.4-.6,2-1.1,2.2-2.1,4.8-1.4,7a2.1,2.1,0,0,1-1.5.5,8.4,8.4,0,0,1-2.2-.9c-.4-.3,0-1.3-.9-1.1-.6-1.7-1.4-2.9-1.4-4.1s1.3-4.9,1.5-7.1a65,65,0,0,0,1.5-9c.2-1.9.5-4.3.8-6.6a39.7,39.7,0,0,1,.7-4.8h1a4.1,4.1,0,0,1,2.8,2.3,11.1,11.1,0,0,1,.8,3.5c.1.9-.2,1.6-.2,2.8.8-2,5.2-5.4,7.8-5.4a11.1,11.1,0,0,1,7.6,3.6c.4.4.5,1.1.9,1.8S1507.7,392.1,1508,392.9Z"/><path class="d" d="M1555.8,410.4c-.2.4,0,.6.4.8a8.1,8.1,0,0,1-1,.9,1,1,0,0,1-.1.8,31.6,31.6,0,0,1-3.2,1.4c-.6,0-2.2-.7-2.8-.7s.4.3-.2.4a14.2,14.2,0,0,1-3.7-2.7c-1.7-1.8-1.9-4.9-2.5-7.9a6.9,6.9,0,0,0-.5-2.6,13,13,0,0,0-1.5,2.3c-.9,1.3-3.7,4.2-5.3,6.6s-2.1,2.8-3.6,3.7.1.5-.3.6a8.6,8.6,0,0,1-2.8,1.3c-1.6.2-5.8-2.5-6-4-.4-3.6,1.6-9.7,1.8-12.1.2-.4-.2-.4-.2-.7l.3-.3a2.4,2.4,0,0,1-.3-.9c-2.6,2.7-5.5,6.8-8,10a8.4,8.4,0,0,1-.4,1.2l-1.8,2v.7c-1,.9-1.9,2.7-2.9,3.7a6.3,6.3,0,0,1-2.3,1.2,5.9,5.9,0,0,1-2.4-1.6c-.9-.5-1-1.8-1-3s.9-7.2,2.2-11.3,2.6-7.6,2.9-8.9.8-2.4,1-3.6a1.1,1.1,0,0,0,.4-.5c0-2.3.4-3.5,1.8-6.7.5,0,1.3-.4,1.8-.4a1.6,1.6,0,0,1,1.5.4.5.5,0,0,0,.2.4c1.2.2,2,2.4,2,2.8a11.9,11.9,0,0,1-.3,2.6,29.2,29.2,0,0,1-.8,3.4c-.3,1.6-2.1,5.2-1.9,6.6a1.1,1.1,0,0,1,.8-.6c.4,0,5.4-6.6,7.7-10a7.9,7.9,0,0,1,3.1,0c.8.3,3,1.1,4,2.3a10.5,10.5,0,0,1,1.2,3.2c0,.5-.8,5.8-1,8.7-.9.2-.8,1.6-.9,2.6h0a.4.4,0,0,0,.1.3c.6-.6.5-1,1.4-1l10.4-12.6c.3.1,1.1-.2,1.8.1s1.1.8,1.4,1,.8-.1,1.1.2a6.8,6.8,0,0,1,1.3,1.2c.6.7.4,1.5,1.2,2s0,.5.1.9-.9,5.2-.9,7.5v4.7c.3,2.1.5,3.1,3.3,2.8a13.7,13.7,0,0,0,3.7-1.3C1556.5,409,1555.9,409.8,1555.8,410.4Zm-15.5-7.2h-.3l-.5.7.4.2Z"/><path class="b" d="M409.9,350.4l262-2.8,1.1-29.2,75.8,71.1-76.9,71.4.9-29.7s-261-.7-261,.6S409.9,350.4,409.9,350.4Z"/><path class="c" d="M413.4,435c-.2-3.6-.2-7.3-.3-11-.1-5.9-.1-11.8-.1-17.7V367.7c0-4.4,0-8.8-.2-13.2-.1-1.9-2.1-3.9-3.5-5.1s-3.7-3-3.6-1.4c.4,9.6.2,19.4.2,29,0,12.9-.1,25.7.1,38.5,0,4.3,0,8.7.3,13,.1,1.9,2.1,3.9,3.5,5.1s3.7,3,3.6,1.4Z"/><path class="c" d="M668.9,427l-47.2.2-53,.2-54.8.3-53.6.2-48,.2h-5.4c-2.3.1-1.5,2.6-.7,3.7s3.6,3.6,5.9,3.6l47.2-.2,53-.2,54.8-.3,53.7-.2,47.9-.2h5.5c2.2-.1,1.5-2.6.6-3.7s-3.6-3.6-5.9-3.6Z"/><path class="c" d="M671.8,345.7l-47.2.2-53,.2-54.8.2-53.6.3-48,.2h-5.4c-2.1,0-5,1.3-4.9,3.8s3,3.5,5,3.5l47.3-.3,53-.2,54.8-.2,53.6-.3,48-.2H672c2.1,0,5-1.3,4.9-3.7s-3-3.5-5.1-3.5Z"/><path class="c" d="M669.2,315.2c.8,10.4.2,21,.6,31.4.1,2,2.1,4,3.5,5.2s3.7,3,3.7,1.4c-.5-10.5.1-21-.7-31.5-.1-2-2-3.9-3.4-5.2s-3.8-2.9-3.7-1.3Z"/><path class="c" d="M669.2,321.6c19.1,19.6,38.9,38.4,59.3,56.6,5.8,5.2,11.7,10.3,17.6,15.4a5.3,5.3,0,0,0,6.8,0c1.7-1.5,2.8-4.7.8-6.4-20.8-17.8-40.9-36.2-60.4-55.4l-16.5-16.5a5.1,5.1,0,0,0-6.9,0c-1.7,1.6-2.6,4.4-.7,6.3Z"/><path class="c" d="M677.1,464.8l7.3-7.5c1.2-1.1,2.3-2.3,3.4-3.4l1-1,.2-.2c.7-.6,1.3-1.3,2-2l14.7-14.2q14.7-14.1,30-27.6c5.7-5.2,11.6-10.2,17.4-15.2,1.7-1.5,2.5-4.2.5-5.8a5.6,5.6,0,0,0-7,.1c-20.8,17.8-41.1,36.4-60.7,55.7l-17,17a3.6,3.6,0,0,0,1.3,5.6,6.2,6.2,0,0,0,6.9-1.5Z"/><path class="c" d="M668.5,431.2v1.2a13.4,13.4,0,0,1,.1,2c0,1.3,0,2.6.1,3.9s-.1,5.1-.1,7.7c-.1,5.1-.2,10.3,0,15.5.1,2.4,1.5,5.1,4.1,5.8s4.8-.8,4.7-3.3c-.5-10.9.3-21.8-.3-32.7-.2-2.3-2.8-4.8-5.1-4.8s-3.7,2.3-3.5,4.7Z"/><path class="d" d="M447.3,177.9a1.9,1.9,0,0,1-1,.4h-1.6a17.1,17.1,0,0,1-3.6-.8c-.6-.1-1.3,0-1.7-.3-6.1-2.5-12.7-7.4-18.7-13.7-1.7-1.9-5-4.3-7.6-6.3-.2,0-.2.3-.4.5-.7,3.1-1.2,6.1-1.6,9a15.4,15.4,0,0,0-.5,1.7,10.9,10.9,0,0,1,.1,1.8,8.9,8.9,0,0,1-.8,2.9c-.4,1.6.4,3.4,0,5.1a1.9,1.9,0,0,1-1.4.5c-.3,0-.7-.3-1.3-.8s-1.3-.7-1.7-1.3a13.8,13.8,0,0,1-1-3.9c0-8.2,3.5-23.2,5-29.6.6-2,3.1-8.8,4.5-13.2a14.1,14.1,0,0,1-3.2-.9c-.7-.7-.5-1.9-1.5-2.1h0l-.2-.3c0-.2.4-.5.4-.8s.1-1,.2-1.7a18.9,18.9,0,0,0,2-2,5.4,5.4,0,0,1,2.1-.8c.3,0,.3-.5.7-.5l5.8-.8c4,0,13.2,3.6,15.3,6.1.1.3.3.5.3.8a10.7,10.7,0,0,1,3.1,5,3.7,3.7,0,0,1,.5,1.5,8.1,8.1,0,0,1-.4,1.9,12.8,12.8,0,0,1-1.6,3.6,10.7,10.7,0,0,1-1.8,1.9,2.3,2.3,0,0,1-.5,1l-2.1,2a65.4,65.4,0,0,1-5.6,4.6c-1.6,1-3.4,2.3-5.2,3.3s-2.3.8-3.3,1.5l-1.1.8c5.5,5.2,12.8,13.8,20.2,16.9,2.9,1.4,7.1,3.1,9.3,4.7a3.4,3.4,0,0,1,.4,1.8C447.8,177.6,447.2,177.8,447.3,177.9Zm-25.4-52.4-1.1.2a11,11,0,0,1,.9,2.8,19,19,0,0,1-.3,3.8,66.8,66.8,0,0,1-2.6,7.6l-2.1,5.8c.2-.2.4-.2.7,0s.6-.9.9-1.1c3.3-2.3,6.5-3.7,9.8-7v-.7c2.2-2.2,4.6-4.9,5.2-7C431.1,127.5,425.9,125.5,421.9,125.5Z"/><path class="d" d="M458.8,172.5c0,.4.3.6.9.8a11.4,11.4,0,0,0-.9,1.9c-1.3-.3-2.1,1.5-2.1,2.7a7.5,7.5,0,0,1-3.1.5c-.4.3,0,.3.3.3s-2,.8-2.9.9v.3h-.3c-1,0-3.3-1.6-3.6,0l-.8-1.2c-2.4-.5-3-1.1-5-3.3s-.7.8-2.2-5.6a14.2,14.2,0,0,1,.6-6.2,39.1,39.1,0,0,1,2.7-7.1c.7-1.3,1.5-3.1,2.7-5.1a24.3,24.3,0,0,0,2-2.9c1.2-1.1,1.4-1.9,3-2.8s2.4-.8,2.2-1.7-.2.1-.2.2.1.2.3.2-.1-.2.5-.2,1.5.7,2.2.9,0,1.5.6,1.5,0-.2.6-.2.6.4.9.7c0,3.4,1.6,1.6,1.6,3.7a58.1,58.1,0,0,1-1.5,6.5,28.7,28.7,0,0,1-3.7,5.3c-2.3,2.8-6.9,7.4-6.9,8.1s1.5,1.6,2.4,2a6.6,6.6,0,0,0,2.4.3c.8,0,1.5-.8,2.8-.3l5.7-1.7.8.3C459.9,171.7,459.5,172.3,458.8,172.5Zm-11-13.9a22.5,22.5,0,0,0-1.6,3.1l-.5,2.2c1.2-1.6,2.4-3,3.4-4.5s3.2-3.9,3.6-7.1C450.5,153.5,449.8,155.1,447.8,158.6Z"/><path class="d" d="M493.7,171.1c-.4.4-.6.8-.3,1.2a32.2,32.2,0,0,1-3.1,2.6c0,.1.4.6.7.6-1.7.2-4.4,2.7-5.1,2.7h-3.4c-3.3,0-6.2-6.7-6.2-7.2a21.3,21.3,0,0,0-.3-4.1c-.9,1.5-1.7,2.6-2.7,4.2s-5,7.3-7.4,7.3l-1.6.3c-2.7,0-3.6-1.6-5.1-2.9s-.6-2-.6-2.4c0-4.9,6.5-15.9,9.2-19.5a15.6,15.6,0,0,1,3.2-3,13.7,13.7,0,0,0,2.3-2c.2-.2-.1-.5.2-.7s1.2-.2,1.6-.5a2.2,2.2,0,0,0,1-1.1h.6a2.3,2.3,0,0,0,1.4.7l1.3.2c.9-1.1.3-1.6,1.3-1.6s.2.6.8.6,0-.2.4-.2a6.2,6.2,0,0,1,3.6,1.6c.2.4.6,1.5.3,1.8s.2-.3.2.3-1.7,5.9-2.3,8.9-1.8,12.2-1.8,12.7.3,1.8.3,2.5a6.3,6.3,0,0,0,2.4-.1c1.2,0,10.1-4.1,10.5-4.4S493.9,170.6,493.7,171.1Zm-18.3-14.9c-.3-.3,0-.7,0-.9a65.3,65.3,0,0,0-7.1,11.3l.5.5c2.6-3.1,4.7-7.6,7.1-11.4Z"/><path class="d" d="M524.6,130.8a6.2,6.2,0,0,0-1.1,1.9c-.1,2.9-2,5.4-3.9,10.8-.2.4.1,1.2-.1,1.8l-1.1,3.8c-.2.9-.7,2.1-.9,2.8s-.8,3.3-1.3,5A66.6,66.6,0,0,0,515,165c.2.4.5.9.3,1.2,0,1.8-.8,5.1-.8,5.7l.2,1.3a7.4,7.4,0,0,0,2.8.6c3.2-.4,10.3-4.3,11-5-.2.9-.3,1.9-.4,2.7A6.3,6.3,0,0,1,526,174a3,3,0,0,0-.7,1.5c-1,.4-2.4.8-2.6,1.6a30.6,30.6,0,0,1-4.4,1.2l-2,.3c-.6.1,0-.3-.5-.2s-3.1-1.3-4.2-1.9-1.4-1.8-2.3-3.2a15.4,15.4,0,0,1-1.2-3.8c-.3-1.9-.6-3.1-.6-3.8a21.1,21.1,0,0,0-2.4,4.1,26.1,26.1,0,0,1-3.6,5.3,10.9,10.9,0,0,0-1.7,2.2c.2.3.5.4.7.2-2.7,1.9-2.6,3.3-4.4,3.5l-2.6-.3c-2.8-2.4-3.8-3.9-4-6.2-.7-6.1,4.7-16.7,7.4-21.5a13,13,0,0,1,2.6-3.3,5.6,5.6,0,0,1,1.5-1,2.9,2.9,0,0,1,1.7-.4c.4,0,.3.7.9.7s.3-.3.3-.6,2.2.7,3.1,1.3a10,10,0,0,0,1.8,1.9c.3-.3.2-.1.4-.4,3.1-9.7,5.3-16.5,10-25.5,1.3,0,5.6.4,5.9,3.1A8.4,8.4,0,0,1,524.6,130.8Zm-20.1,24.4c-.4.4-1.2,1.1-1.5,1.1a.7.7,0,0,1-.2.8c-.6,1.1-1.9,2.6-2.5,3.8a29.8,29.8,0,0,0-2,5.1c0,.3.2.3.2.7a11.9,11.9,0,0,0-.7,2.3,10.1,10.1,0,0,1,2.8-3.4c.1-.5.3-1.7.7-1.7s.6.4.6,0v-.4c.9-.4.7-1,1.1-2.2s-.3.6.3.5.6-1,.4-1.4,1.1-.5,1.4-1.6-.1-1-.1-1.4A6.3,6.3,0,0,0,504.5,155.2Z"/><path class="d" d="M585.8,155.1l-.4.4c.3.3.6.4.6.8a7.5,7.5,0,0,1-2.4.8c-.1,1.4-2.5.8-3.7,1.1s-3.6,1.4-4.1,1.4-.1-.2-.7-.2-3.9,1.4-6,1.8c-4.4,1.3-9.5,2.2-14,3.5a2.1,2.1,0,0,0-.8,1.2c-1.6,5.6-3.2,15.2-4.3,21.5-.1,0-.1-.3-.4-.8a3.8,3.8,0,0,0-.5,1.4c-.1,1.2-.4,3.5-.4,4v5.3c1.6.9.8,2.6.9,4l.4-.4c-.2,1,.4.7.4,1a8.5,8.5,0,0,1-.8,2.4h-.2q-.1,0-.3-.3c-.3,0-.4.3-.4.7a15.2,15.2,0,0,1-3.5-3.2,65.3,65.3,0,0,1-.8-6.8l1.5-15.6c0-.7,2.1-8.7,2.5-13a1,1,0,0,0-1.2.3c-.2-.4-.9-.6-1.5-.6s-.1.1-.1.4a1,1,0,0,0-.9-.4,2.2,2.2,0,0,1-1.3-.6l-1.5-1.3a20.7,20.7,0,0,1-1.8-5.2c0-.3,1,0,.5-1.2,2.1,1.4,1.9.4,3.7.4s0-.4.4-.4a8.6,8.6,0,0,0,3-.3,8.5,8.5,0,0,1,2.7-.4c.9-4.1,1.7-8.6,2.7-12.4.6-2.2,1.1-4.9,1.8-7,2.2-6.7,4.6-15.6,8.5-21.8.4-.9,2.8-3.4,3.5-3.4a1.7,1.7,0,0,1,1.2.5,5.1,5.1,0,0,0,2.2.4l2,1.1a31.9,31.9,0,0,1,3.2,2.9,19.4,19.4,0,0,1,1.6,3.7,39.3,39.3,0,0,1-1.3,4.7c-.7,0-1.5.8-2.1,1.7s-.6-.4-.7-.4l-.7.4a.9.9,0,0,0-.8-.2l.4-.4-1.6-.9a7,7,0,0,1-.8-2.6c0-.6.3-.7.5-.9s.2.3.5.6a4.2,4.2,0,0,0,.5-2c0-.4.1-.9-.5-.9s-4,7.1-4.2,8.3-.8,2.1-1.7,3.9a43.6,43.6,0,0,0-2,5.3c-.7,2.5-1.9,6.5-2.6,9.8a41.7,41.7,0,0,1-1.7,5.5c-.2.3-.4.1-.7.4a1.3,1.3,0,0,0,.3.8c.1.3-.2.8-.5,1.2v.5c1.6.6,4.1-.1,5.8-.4s4.4-.1,6.7-.5a1.5,1.5,0,0,0,1.1-.4c2.3.1,5.9-.1,8.8-.1.2-.1.6,0,.7-.3a12.8,12.8,0,0,0,3.9-.1h.1a.6.6,0,0,1,.5-.2c.5,0-.3.4.3.4l2.2-.4c.6,0,.6.4.9.4A5.2,5.2,0,0,0,585.8,155.1Zm-37.7,36.4v-1.3h-.4v1.3Zm1.4.4h-.3v-1.3h.3Zm38-37.8v-.3h-.8v.3Zm.7-.4v0Z"/><path class="d" d="M597,155.9a9.5,9.5,0,0,0-3.4,0,16.7,16.7,0,0,0-.4-2.4c-3.2,1.2-5.8,5-7.8,8.1,0-.2-.1-.4-.3-.4s-.4.8-.2,1-.2,0-.2.1l-.3.3c-.1.2.3.3.3.6s-.3.2-.6.2h-.3c-.3.4.3.5.3.6a28.6,28.6,0,0,1-1.9,3c0,.3.2.4.1.5a7,7,0,0,1-1.3,1.7c-.4.6-.3,1.4-.7,2-1,2.2-2,4.8-1.3,7a2.3,2.3,0,0,1-1.5.5,7.6,7.6,0,0,1-2.3-.9c-.3-.3,0-1.3-.9-1.1-.5-1.7-1.3-2.9-1.3-4.1s1.3-4.9,1.4-7.1a52.8,52.8,0,0,0,1.5-9c.3-1.9.6-4.3.8-6.6s.4-3.3.8-4.8h.9a4.1,4.1,0,0,1,2.9,2.3,14.7,14.7,0,0,1,.8,3.5c.1.9-.2,1.6-.2,2.8.8-2,5.2-5.4,7.7-5.4a11.3,11.3,0,0,1,7.7,3.6c.3.4.5,1.1.9,1.8S596.7,155.1,597,155.9Z"/><path class="d" d="M607.9,176.4c-.4.3-.4.9-.7,1.2a9.6,9.6,0,0,1-4.9,1.7c-2.5,0-3.8-1.5-5.4-2.8s-.9-2.4-1.8-2.4a21.2,21.2,0,0,1-.7-3.2c0-3.5,3.1-10.2,3.9-11.3s0-.9.4-1.3,1.4-1.9,1.8-2.8.3-.2.6-.3.2-.5.5-.9,1.5-1.2,2-1.9.2-1,.5-1.6-.7-.4-1,.2a.6.6,0,0,0-.2-.5c-.2.1-.2.3-.2.6s-.2-.5-.6-.5h.2l.3-.2c-.4-3.1,5-4.1,5.9-5,.4.9,1,.3,1.9.7l2.5,2.4.2.3a.9.9,0,0,0,.3.6c.2.1.5,0,.8.2,2.5,3.5,4.1,6.6,4.1,10C618.3,165.4,613.7,171.3,607.9,176.4Zm2.8-22.4c-.8,1.7-2.7,3.8-3.4,5-1.8,3.2-5,9.7-5,10.3v.7c1-.7,2.8-2.4,3.2-2.4s-.4.5.2.5,4-5.2,4.2-5.6a57.3,57.3,0,0,0,1.8-5.5A10.5,10.5,0,0,0,610.7,154Zm-.8-.6v-1.2h-.4v1.2Z"/><path class="d" d="M669.3,173.4c-.2.4,0,.6.4.8s-.6.6-1,.9a1,1,0,0,1-.1.8,31.6,31.6,0,0,1-3.2,1.4c-.6,0-2.2-.7-2.7-.7s.3.3-.3.4a14.2,14.2,0,0,1-3.7-2.7c-1.6-1.8-1.9-4.9-2.5-7.9a5.4,5.4,0,0,0-.5-2.6,23,23,0,0,0-1.5,2.3c-.9,1.3-3.7,4.2-5.3,6.6a15.8,15.8,0,0,1-3.6,3.7c-.2.3.1.5-.2.6a11,11,0,0,1-2.8,1.3c-1.7.2-5.9-2.5-6.1-4-.4-3.6,1.7-9.7,1.8-12.1.3-.4-.1-.4-.1-.7l.2-.3a2.4,2.4,0,0,1-.3-.9c-2.6,2.7-5.5,6.8-8,10a8.4,8.4,0,0,1-.4,1.2l-1.8,2v.7c-1,.9-1.9,2.7-2.9,3.7a5.6,5.6,0,0,1-2.3,1.2,6.6,6.6,0,0,1-2.4-1.6c-.9-.5-.9-1.8-1-3s.9-7.2,2.2-11.3,2.7-7.6,2.9-8.9.8-2.4,1-3.6.4-.2.4-.5c0-2.3.4-3.5,1.8-6.7.6,0,1.3-.4,1.8-.4a1.6,1.6,0,0,1,1.5.4l.2.4c1.2.2,2,2.4,2,2.8a11.9,11.9,0,0,1-.3,2.6,17.1,17.1,0,0,1-.8,3.4c-.2,1.6-2.1,5.2-1.9,6.6s.2-.5.9-.6,5.3-6.6,7.6-10a7.9,7.9,0,0,1,3.1,0,10.7,10.7,0,0,1,4.1,2.3,13.9,13.9,0,0,1,1.2,3.2c0,.5-.8,5.8-1.1,8.7-.9.2-.8,1.6-.9,2.6h0a.4.4,0,0,0,.1.3c.6-.6.5-1,1.5-1l10.4-12.6c.2.1,1-.2,1.7.1s1.1.8,1.5,1,.7-.1,1,.2l1.4,1.2c.5.7.4,1.5,1.1,2s.1.5.1.9-.8,5.2-.8,7.5a16.3,16.3,0,0,0-.1,2.5,11,11,0,0,0,.1,2.2c.2,2.1.4,3.1,3.2,2.8a13.7,13.7,0,0,0,3.7-1.3C670,172,669.4,172.8,669.3,173.4Zm-15.5-7.2h-.3l-.4.7.4.2Z"/><path class="d" d="M519.7,220.7l-3-.4c-.3,0-.4-.4-.2-1s-1.3-1.2-2-1.9.8-.5.8-.9-4.6-3.7-5.3-4.2-1.1-.1-2.1-.4l-4.7,19.2a1.2,1.2,0,0,0,.2,1c1.4,1.5,2.7,3,4.1,4.3s1,1.9,1.7,2.5c2.9,3.9,3.7,6.7,3.7,9.4,0,4.7-2.2,8.9-8,11.2-1,.2-3.1.8-3.7.8h-4.3s0,.1-.2.2l-.9,7.4c.4-.3.7-.8,1.3-.8s.4.3.7.3a4,4,0,0,1-.9,1.4c-.2.6.2,1.4.4,2.1a9.8,9.8,0,0,0-.5,2.6c.1.3.2.3.4.3l-1.1,2c1.1,1-.4,2.4-1.4,3.4a1.4,1.4,0,0,1-.5-.9c-.4-.2-.5-.1-1.1-.1h-.3v.2a25.9,25.9,0,0,0-1.2-2.5,2.4,2.4,0,0,0-.3,1.4c-.3-1.6-1-4.3-1-4.8s.3-4.5.7-6.8c0,2.5-.9,5.7.3,6.9.3-2.1.3-4.6.4-6.8h-.3l.2-.2a.4.4,0,0,1,.1-.3c.3-1.9.4-3.9.8-5.8l-.3-.2c-.9,1.8-.6,4.1-.9,6.1-.2-.3-.4,0-.6,0,.2-2.2.6-4.2.9-6.4a18.7,18.7,0,0,1-3.2-1.5c-.3-.2,0-.3-.1-.5-1.9-1.9-3.6-5-5-6.6v-1.7c-.1-.4-.6-.9-.9-1.6v-1.3a23.5,23.5,0,0,0-.4-2.4,3.6,3.6,0,0,1,1.3-2.1c-.9,1.9-.9,1.3-.9,2.8s.4,1.3,1.2,2.7l.5-.5h-.3l.3-.4a2.9,2.9,0,0,1-.5-1.3,4.8,4.8,0,0,1,.7-1.5c.7,0,1.3-.6,1-1.2l-.4.4c.6-1.2.5-2.2,1.8-3.2s-.5.5-.2.9.7-1.2,1.3-1.8c-.2,1.5-.3,3-.6,4.5s.2.5.4.8l.4-.4a28.2,28.2,0,0,1,.5,4.7v.2c.6.4,1.1,1.8,1.8,2.7s1.6.4,2.2,1.2.3-.4.4-.7c.8-5,3.8-18.1,3.8-18.7s-1.5-2.2-1.8-3.1a21,21,0,0,1-2.1-5.5c0-.3-.6-.8-.7-1.4a17,17,0,0,1-.4-4,4.8,4.8,0,0,1,1.1-3.6c.1-.3.1-1.2.5-1.6a16,16,0,0,1,4.2-4.2h.6c.4,0,.4.1.8-.6h0c0,.1.1.1.4.1s4-.9,2.4-2.5c.3.3.5,0,.8-.3.7-2.2,1.3-5.2,2-7.4a34.1,34.1,0,0,1,2.4-4.5c.1-.2.4-.3.8-.3a11.6,11.6,0,0,0,1.6.3,2.1,2.1,0,0,0,.4,2.2,2.1,2.1,0,0,1,.9,1.4c0,.6-.2.2-.2.6s-.1,2.6-1,5.2v1.2l.4.4.8.2c3.4,2.1,6.3,2.3,8.8,6.1a7.6,7.6,0,0,1,1.3,1.7,25.8,25.8,0,0,1,.5,4.8C521.2,218.7,520.5,220.7,519.7,220.7Zm-35.6,19.8-.2.5h-.3l.3-.5Zm2.9-2.2-1.1.8-.2-.3,1.1-.8Zm-.8,2.3h-.3l-.2.7h.3Zm.4-.4-.3-.3h-.2l.3.3Zm4.2,36.6h-.3v-.9h.3Zm2.6-25.3v.9a3.3,3.3,0,0,0,.5-1.8C493.6,250.9,493.4,250.9,493.4,251.5Zm4.2-30.9c0,.5.8,2.1.9,3,.7-2.8,1.3-5.3,2-7.7A6,6,0,0,0,497.6,220.6Zm4.1,18.1c-1.3,4.5-2.5,10.2-3.4,14.8a6,6,0,0,1,2.5-.3,6.1,6.1,0,0,0,1.7-.7.4.4,0,0,1,.4-.4c.6,0-.2.2.4.2s2.8-3.7,2.8-4a3.1,3.1,0,0,0,.4-1.5C506.5,243.9,504.1,242.7,501.7,238.7Z"/><path class="d" d="M557,251.1a1,1,0,0,0-.3,1.2,21.5,21.5,0,0,1-3,2.6c0,.1.4.6.6.6-1.7.2-4.4,2.7-5.1,2.7h-3.4c-3.3,0-6.2-6.7-6.2-7.2a21.3,21.3,0,0,0-.3-4.1c-.8,1.5-1.7,2.6-2.7,4.2s-4.9,7.3-7.3,7.3l-1.7.3c-2.7,0-3.5-1.6-5.1-2.9,0-.7-.6-2-.6-2.4,0-4.9,6.5-15.9,9.2-19.5a23.4,23.4,0,0,1,3.2-3,13.7,13.7,0,0,0,2.3-2c.3-.2-.1-.5.2-.7s1.3-.2,1.7-.5a2,2,0,0,0,.9-1.1h.7a1.9,1.9,0,0,0,1.3.7l1.3.2c1-1.1.3-1.6,1.4-1.6s.1.6.7.6.1-.2.5-.2a6.2,6.2,0,0,1,3.5,1.6c.2.4.6,1.5.3,1.8s.2-.3.2.3-1.6,5.9-2.3,8.9-1.7,12.2-1.7,12.7.2,1.8.2,2.5a6.2,6.2,0,0,0,2.4-.1c1.2,0,10.1-4.1,10.6-4.4S557.3,250.6,557,251.1Zm-18.3-14.9c-.3-.3,0-.7,0-.9a64.8,64.8,0,0,0-7,11.3l.4.5c2.6-3.1,4.8-7.6,7.1-11.4Z"/><path class="d" d="M576.2,251.9a.8.8,0,0,0,.1.4l1.2-.5c-.6.1-.6.4-.2.8s-1.9,2.2-.7,2.3c-.6.3-.9,1.4-1.1,1.7s-2.2,1.3-3.1,2-1.1,1.3-2,1.5l-2.7.8-.4-.5c-1,.7-1.2.3-1.8.3s-.1.4-.6.4a21.3,21.3,0,0,1-3.1-1.2c-5.3-2-7.4-9.3-7.4-13.2,0-6.7,1.7-12.2,3.3-18,0-.8.8-1.3.8-1.9s.9-4.5,1.6-6.7,2-5.9,3.3-9.8c.3-.8,1.1-1.5,1.4-2.4.9-2.9,2.3-4,2.2-5.9h1.1c.5,0,1.2.8,1.9.8h.8c.3.7.9,1.9,1.1,2.6s0,1.6.3,2.2l-7.8,25.4a30.4,30.4,0,0,0-1.8,5.6,78.6,78.6,0,0,0-1.7,11.4c0,.4,0,2.4.1,3.4a3.8,3.8,0,0,0,.9,1.3,4.1,4.1,0,0,0,1.9.6c.7,0,.7-.4,1.1-.4s.6.3,1.2.3.9-.4,2.8-1,.8-.7,1.2-.7.1.2.7.2,1.8-1.3,3.7-2.3c-.2.1-.2.2,0,.5s0-.4.4-.4a11.4,11.4,0,0,0,2.8-1.1C577.1,250.9,576.9,251.7,576.2,251.9Z"/><path class="d" d="M594.5,251.9v.4l1.2-.5c-.5.1-.6.4-.2.8s-1.8,2.2-.6,2.3c-.7.3-.9,1.4-1.2,1.7s-2.2,1.3-3.1,2-1.1,1.3-2,1.5l-2.6.8-.5-.5c-1,.7-1.2.3-1.8.3s0,.4-.6.4a26.5,26.5,0,0,1-3-1.2c-5.3-2-7.5-9.3-7.5-13.2,0-6.7,1.8-12.2,3.3-18,.1-.8.8-1.3.9-1.9s.9-4.5,1.5-6.7,2-5.9,3.4-9.8c.3-.8,1.1-1.5,1.3-2.4,1-2.9,2.3-4,2.3-5.9h1c.6,0,1.2.8,1.9.8h.8c.3.7.9,1.9,1.1,2.6s0,1.6.4,2.2l-7.9,25.4a29.9,29.9,0,0,0-1.7,5.6,67.3,67.3,0,0,0-1.8,11.4c0,.4.1,2.4.2,3.4a2.6,2.6,0,0,0,.8,1.3,4.5,4.5,0,0,0,2,.6c.6,0,.7-.4,1-.4s.6.3,1.3.3.9-.4,2.8-1c.4-.3.8-.7,1.1-.7s.2.2.7.2,1.9-1.3,3.7-2.3c-.2.1-.2.2,0,.5s0-.4.4-.4a9,9,0,0,0,2.8-1.1C595.3,250.9,595.2,251.7,594.5,251.9Z"/><path class="b" d="M1661.9,350.4l262-2.8,1.1-29.2,75.8,71.1-76.9,71.4.9-29.7s-261-.7-261,.6S1661.9,350.4,1661.9,350.4Z"/><path class="c" d="M1665.4,435c-.2-3.6-.2-7.3-.3-11-.1-5.9-.1-11.8-.1-17.7V367.7c0-4.4,0-8.8-.2-13.2-.1-1.9-2.1-3.9-3.5-5.1s-3.7-3-3.6-1.4c.4,9.6.2,19.4.2,29,0,12.9-.1,25.7.1,38.5,0,4.3,0,8.7.3,13,.1,1.9,2.1,3.9,3.5,5.1s3.7,3,3.6,1.4Z"/><path class="c" d="M1920.9,427l-47.2.2-53,.2-54.8.3-53.6.2-48,.2h-5.4c-2.3.1-1.5,2.6-.7,3.7s3.6,3.6,5.9,3.6l47.2-.2,53-.2,54.8-.3,53.7-.2,47.9-.2h5.5c2.2-.1,1.5-2.6.6-3.7s-3.6-3.6-5.9-3.6Z"/><path class="c" d="M1923.8,345.7l-47.2.2-53,.2-54.8.2-53.6.3-48,.2h-5.4c-2.1,0-5,1.3-4.9,3.8s3,3.5,5,3.5l47.3-.3,53-.2,54.8-.2,53.6-.3,48-.2h5.4c2.1,0,5-1.3,4.9-3.7s-3-3.5-5.1-3.5Z"/><path class="c" d="M1921.2,315.2c.8,10.4.2,21,.6,31.4.1,2,2.1,4,3.5,5.2s3.7,3,3.7,1.4c-.5-10.5.1-21-.7-31.5-.1-2-2-3.9-3.4-5.2s-3.8-2.9-3.7-1.3Z"/><path class="c" d="M1921.2,321.6c19.1,19.6,38.9,38.4,59.3,56.6,5.8,5.2,11.7,10.3,17.6,15.4a5.3,5.3,0,0,0,6.8,0c1.7-1.5,2.8-4.7.8-6.4-20.8-17.8-40.9-36.2-60.4-55.4l-16.5-16.5a5.1,5.1,0,0,0-6.9,0c-1.7,1.6-2.6,4.4-.7,6.3Z"/><path class="c" d="M1929.1,464.8l7.3-7.5,3.4-3.4,1-1,.2-.2c.7-.6,1.3-1.3,2-2l14.7-14.2q14.7-14.1,30-27.6c5.7-5.2,11.6-10.2,17.4-15.2,1.7-1.5,2.5-4.2.5-5.8a5.6,5.6,0,0,0-7,.1c-20.8,17.8-41.1,36.4-60.7,55.7-5.7,5.6-11.4,11.3-17,17a3.6,3.6,0,0,0,1.3,5.6,6.2,6.2,0,0,0,6.9-1.5Z"/><path class="c" d="M1920.5,431.2v1.2a13.4,13.4,0,0,1,.1,2c0,1.3,0,2.6.1,3.9s-.1,5.1-.1,7.7c-.1,5.1-.2,10.3,0,15.5.1,2.4,1.5,5.1,4.1,5.8s4.8-.8,4.7-3.3c-.5-10.9.3-21.8-.3-32.7-.2-2.3-2.8-4.8-5.1-4.8s-3.7,2.3-3.5,4.7Z"/><path class="d" d="M1740.1,78.1l-1.1,3.5c-.1.4.3,1.1.2,1.8-.7,3.2-2.3,5.3-3.9,8.1a2.3,2.3,0,0,0-.2,1.5c0,.4-.6.6-1,1.3a3.5,3.5,0,0,1,.1.6,20.1,20.1,0,0,1-3.9,6,11.4,11.4,0,0,1-.6,1.4c-.8.9-3.5,4.1-4.9,4.5a3.8,3.8,0,0,1-1.9.3h-1.5a15.5,15.5,0,0,1-4.1-1.7,14.6,14.6,0,0,0-2.4-2.7c-1.1-2.2-1.4-6.1-1.4-8.3,0-.2-.4-3.6-.4-4V84.7a5.6,5.6,0,0,0,.2-2,22.5,22.5,0,0,0-3.7,4,90.3,90.3,0,0,0-7.3,11.9l-.7.8a21.4,21.4,0,0,1-1.6,3.5c0,.2-5.1,8-6.9,8s-1.2-.6-1.6-.6-.6.4-.8.4c-3.5-3.2-5.4-5.4-5.7-7.6a6.6,6.6,0,0,1-.5-3.9c0-6.6,1.9-13.3,4.4-19.8s5.7-12.3,9.3-19.1a1,1,0,0,0-.1-.9c.7-.1.6-.5.9-1.1a3.7,3.7,0,0,1,1-1.6c.1-.3,0-.8.2-1.2a24.5,24.5,0,0,1,3.8-5.3c.5-.7,1.7-.6,2.7-.9a9,9,0,0,1,2.4,5.2c0,.2-2.8,6.6-4.3,9.4-.6,1.2-1.5,2.7-2.5,4.5a14.1,14.1,0,0,0-1.8,4.3l-.4.8c-2.2,5.7-5.2,11.7-6.8,17.5-.4,1.6-1.9,6.9-1.9,7.1v3.7c0,.1.1.1.3.1s1.5-1.8,2.1-2.5c2.6-3.1,5.5-8.3,8.5-12.7.1,0,.2-.4.4-.9s0-.3-.2-.3h.4c.4-.6.4-2.1.9-2.1s-.1.1.1.4a9.4,9.4,0,0,1,1.7-1.8c.7-1.2.8-2.6,2.1-3.6h0c0-.1,0-.1-.1-.1h-.5c.2-.4.6-1.2.9-1.2s-.1.1.1.4.1-.8.4-1.2l.5.2a4.7,4.7,0,0,1,1.1-1.8c0-.4-.3-.6,0-1a.7.7,0,0,0,.1.5,1.2,1.2,0,0,0,.3-1.5h0c0,.1.1.3.2.3s.9-1.3.2-.9.8-1,1.4-1.6.2-1.1.8-1.4l-.3.4h0v.2a2.3,2.3,0,0,1,.8-.7.4.4,0,0,0-.4-.4,4.1,4.1,0,0,0,2.2,0c.3.1.6.7.8.7s0-.2.4-.2a14.6,14.6,0,0,1,2.2.9c.6.1,1.5,1.7,1.7,2.4a12.6,12.6,0,0,1,.7,2.8l-1,15.4a38.1,38.1,0,0,1,.2,6.5c.3.3,0,.4.5.4s5.1-7.5,5.9-8.6a18.5,18.5,0,0,1,.6-2,6,6,0,0,0,1.4-2c.4-.7.4-2.1.8-2.8s1.1-2.5,1.5-3.7l.8-2c.6-1.9.5-3.9.8-5.7a.7.7,0,0,0,.4-.6c.4-2.1.6-4.9,1.2-7.2a17,17,0,0,1,.9-2.4c.9,0,.8,1.8,1.2,1.8h1.1a17.1,17.1,0,0,1,.7,2.1c.2.4.8.4,1,.6a26.4,26.4,0,0,0,.2,2.8c.2-.1.4-.4.6-1a7.5,7.5,0,0,0,.1,3.3c.1.2.3,0,.3.5S1740.4,76.5,1740.1,78.1ZM1707.7,80h-.2l-.5.6.3.2Zm1.9-5-.5.5-.2-.3.5-.5Z"/><path class="d" d="M1763.9,85.9a9.5,9.5,0,0,0-3.4,0,9,9,0,0,0-.4-2.4c-3.2,1.2-5.8,5-7.8,8.1,0-.2-.1-.4-.3-.4s-.3.8-.2,1h-.2l-.3.3c0,.2.3.3.3.6s-.3.2-.6.2h-.3c-.2.4.3.5.3.6a28.6,28.6,0,0,1-1.9,3c0,.3.2.4.2.5a7.5,7.5,0,0,1-1.4,1.7c-.4.6-.3,1.4-.6,2-1.1,2.2-2.1,4.8-1.4,7a2.3,2.3,0,0,1-1.5.5,10.4,10.4,0,0,1-2.3-.9c-.3-.3,0-1.3-.8-1.1-.6-1.7-1.4-2.9-1.4-4.1s1.3-4.9,1.4-7.1a52.9,52.9,0,0,0,1.6-9c.2-1.9.5-4.3.8-6.6a39.7,39.7,0,0,1,.7-4.8h.9a4.1,4.1,0,0,1,2.9,2.3,14.7,14.7,0,0,1,.8,3.5c.1.9-.2,1.6-.2,2.8.8-2,5.2-5.4,7.7-5.4a11.1,11.1,0,0,1,7.7,3.6c.3.4.5,1.1.9,1.8S1763.6,85.1,1763.9,85.9Z"/><path class="d" d="M1779.6,99.9c.2.1.5,0,.8.4s-.7.8-1,1.1a1.8,1.8,0,0,0-.2,1.3,21,21,0,0,0-4.2,3.7c0,.3.2.8-.5,1.1a8.1,8.1,0,0,1-3.2,1.1c-5.3.4-8.1-6.3-8.4-9.9a27.6,27.6,0,0,1,.6-5.2l.9-3.4a40,40,0,0,1,2.6-8.4,5.4,5.4,0,0,1,.1-1.1c.3-.3.4-.9,1-1.5a11.6,11.6,0,0,0,1.8-.4,5.1,5.1,0,0,1,3.2,1.3,4.2,4.2,0,0,1,1.9,2.9c0,.4-.3.9-.4,1.5s-.5,2.4-.8,4.3a9.6,9.6,0,0,1-1.2,4.2c-.3.7-.5,2.2-.7,2.9-1,3.3-1.7,4.3-1.1,6.2a35.8,35.8,0,0,0,10.1-7.3C1779.9,95.6,1781.3,98.4,1779.6,99.9ZM1776,71.2a6.7,6.7,0,0,1-3.2-1c-.1-.3,0-.3-.3-.6s-1.9-2.6-2.3-4-.1-2-.5-2.7c3.6.2,4-.6,6-.9s1.3,1.1,1.6,1.7-.2,1.5.8,2.4C1776.7,68.1,1779.8,71,1776,71.2Z"/><path class="d" d="M1810.6,81.2c0,.3.2.3.4.3s-1,.6-.1,1.3l-2.8,1.3c0,.3.4.4.7.6s-2.5,1.8-4.1,2.1-1.3,1.9-1.8,1.9,0-.2-.3-.4-.3.2-.3.7a55.7,55.7,0,0,0-5.5,1.7c-.3.1,0,.3,0,.5s0-.1-.7-.1l-3.6,1.2-.7,1a7.6,7.6,0,0,0-2.3,1.3c-.6,2.6-1.5,7.7-1.5,8.2s.8,3.6.8,4-1,1.1-1,1.9h-1.3c-.5,0-.6-.9-.9-1.3-2.5-2.2-2.1-4.2-2.4-6.2s.3-4.3.2-8.2c0-.6-2.2-3.2-2.2-3.7s.4-2,.4-3.2.4-.5.4-.6a2.4,2.4,0,0,1,.9-.3c.7,0,.1.2.8.2s1-.6,1.1-1.2c.9-2.4,1.8-9.9,2.7-13.3s2.1-7.1,3-10.7c.4-1.7,1.1-4,1.8-6s.6-4.2,2.2-5.2a2.7,2.7,0,0,1,1.4-.6c.6,0,1.2,1.3,1.8,1.3h.6v.4c0,.7,1.5,3.1,1.5,3.8a13.2,13.2,0,0,1-.9,3.4,6.9,6.9,0,0,1,.2,1.3c-1.6,5.5-3.3,10.8-4.9,15.8a46.8,46.8,0,0,1-1.6,7v.4c.6.4.9.2,1.6.2a4.2,4.2,0,0,1,1.7-.2c.6,0,.1.4.7.4a19.4,19.4,0,0,0,2-.5,116.9,116.9,0,0,1,12.7-1.4C1811.3,80.7,1810.9,80.9,1810.6,81.2Z"/><path class="d" d="M1822.7,102.5c0,.4.3.6.9.8a11.4,11.4,0,0,0-.9,1.9c-1.4-.3-2.1,1.5-2.1,2.7a7.5,7.5,0,0,1-3.1.5c-.4.3,0,.3.3.3s-2.1.8-2.9.9v.3h-.4c-.9,0-3.2-1.6-3.5,0l-.9-1.2c-2.3-.5-2.9-1.1-4.9-3.3s-.7.8-2.3-5.6a13.8,13.8,0,0,1,.7-6.2,39.1,39.1,0,0,1,2.7-7.1,49.8,49.8,0,0,1,2.6-5.1,16.7,16.7,0,0,0,2.1-2.9c1.2-1.1,1.4-1.9,3-2.8s2.4-.8,2.1-1.7-.1.1-.1.2.1.2.3.2-.2-.2.5-.2,1.5.7,2.2.9,0,1.5.6,1.5,0-.2.5-.2.7.4,1,.7c0,3.4,1.6,1.6,1.6,3.7a58.1,58.1,0,0,1-1.5,6.5,34.5,34.5,0,0,1-3.7,5.3c-2.3,2.8-6.9,7.4-6.9,8.1s1.5,1.6,2.4,2a6.3,6.3,0,0,0,2.3.3c.9,0,1.6-.8,2.8-.3l5.8-1.7a1.3,1.3,0,0,0,.8.3C1823.8,101.7,1823.4,102.3,1822.7,102.5Zm-11-13.9a14.3,14.3,0,0,0-1.6,3.1l-.5,2.2c1.2-1.6,2.4-3,3.4-4.5s3.1-3.9,3.5-7.1C1814.4,83.5,1813.7,85.1,1811.7,88.6Z"/><path class="d" d="M1884.1,103.3c-1.5,1.5-4.8,3.5-6.8,3.8h-1.7a10.1,10.1,0,0,1-2.3-.8c-.7-.3-1.6-1.6-2.8-1.6s-1.1-1.5-1.4-2.2l-.5-3.5a11.4,11.4,0,0,0-.3-2.4c-.2-4.2.8-5.1,2.1-9.4a4.5,4.5,0,0,0,.7-.7,9.8,9.8,0,0,0,.6-2.2l-3.4.5-2.3.5-6.2.8c-.2.6-1.2.8-2.1,1.1-1.3,3-1.5,6.6-2,9.5,0,.4-.7.7-1.1,1.1,0,3.3-1.3,7.9-.1,8.9-1,.8-.7,1.7-1.2,2.7l-1.8.9c-.4-.2-1.2-1.2-1.5-1.2s.1.2-.4.3-1.2-1.6-1.3-2.6a2.3,2.3,0,0,1-.4-1,24.4,24.4,0,0,0-.2-4.7c.4-4.3,1.7-11.1,1.7-12.1v-.8c-1.6,0-4.5.7-6.5.9v-.8c0-.4-.7-.1-1.1-.1s-1.9-1.9-1.9-2.5.9-.6,0-1.4a24.2,24.2,0,0,1,3.9-2.1c.7-.1,2.3-.2,3.6-.5s1.7-.8,2.3-.9,0,.2.6.2a.8.8,0,0,0,.8-.6c.4-1.5.7-3.3,1-4.5s2.2-6.5,3.4-9.8c.1-.3,0-1.2.1-1.5,1.1-2.5,1.5-4.7,2.7-6.3s.3-.7.6-.9.8-.5,1.2-.9-.2-1.5.2-2.2h1c.3.2.3.9.4,1.5s.3,0,.6.3,0-.6.4-1.1.3,1,.8,1,.2-.1.5-.1v2.4c0,.3.4.4.4.9a22.8,22.8,0,0,1-1.1,4c-.1.3,0,1.1-.3,1.6l-2.9,10h-.1c0,.1,0,.2.1.2l.5-.4a14.7,14.7,0,0,1-1.1,3.8l.5.5,15.7-2.2c.6,0,0,.5.5.5s.7-.3,1.2-.3,3.2,1.3,4.4,2.9l.4.5a8.7,8.7,0,0,1,1.4-1.2h0l-.2-.3c.4.3,1.2-.2,1.9,0a15.8,15.8,0,0,1,4.6,1.8,8.5,8.5,0,0,1,2.9,5.8C1892.9,91.7,1889,98,1884.1,103.3Zm0-18.5-1.5-.9a1.4,1.4,0,0,1-1.2,1c-.2,0-.4,0-.4-.1h0c-1.8,4.8-4,10.2-4.9,14.4a1,1,0,0,0,.8.3,63.6,63.6,0,0,0,5.2-5.3c.7-.6.8-1.8,1.1-2.4s1.9-3.6,1.9-5.4S1883.9,85.1,1884.1,84.8Z"/><path class="d" d="M1673.9,179.9c.3.1.6,0,.8.4s-.6.8-.9,1.1a1.8,1.8,0,0,0-.3,1.3,20.5,20.5,0,0,0-4.1,3.7,1,1,0,0,1-.5,1.1,8.7,8.7,0,0,1-3.2,1.1c-5.4.4-8.2-6.3-8.4-9.9a21.2,21.2,0,0,1,.6-5.2l.8-3.4a39.6,39.6,0,0,1,2.7-8.4,5.4,5.4,0,0,1,.1-1.1c.3-.3.4-.9.9-1.5a12.9,12.9,0,0,0,1.9-.4,5.3,5.3,0,0,1,3.2,1.3,4.2,4.2,0,0,1,1.9,2.9c0,.4-.3.9-.4,1.5a23.8,23.8,0,0,0-.8,4.3,13.4,13.4,0,0,1-1.2,4.2c-.3.7-.5,2.2-.7,2.9-1,3.3-1.7,4.3-1.2,6.2a35,35,0,0,0,10.2-7.3C1674.3,175.6,1675.7,178.4,1673.9,179.9Zm-3.6-28.7a6.7,6.7,0,0,1-3.2-1,.7.7,0,0,0-.2-.6c-1.2-.6-1.9-2.6-2.3-4s-.1-2-.5-2.7c3.6.2,4-.6,6-.9s1.3,1.1,1.5,1.7-.1,1.5.8,2.4C1671.1,148.1,1674.2,151,1670.3,151.2Z"/><path class="d" d="M1707.8,180.3c-.3.2.1.6.1.7l-.8.7.7.2h-.1c-.2.2-.2.3-.3.2s-.1,1-.7,1.4,0,.8.4,1.2-1.1.8-1.2,1.4-1.8,1.3-2.4,2-1.2,1.4-1.5,1.8l-3.2-.2c-.9,0-4.6-1.9-4.9-2.7a23.1,23.1,0,0,1-2.6-7.5,46.8,46.8,0,0,1-.5-7c-.2-.1.1-.3-.1-.4-2.2,2.5-4.8,6.2-7,8.8-.1.1-.1.2,0,.6a19.5,19.5,0,0,1-2.6,4c-.7,1-2.4,2.8-2.8,2.8s-1-.8-1.4-.7.1.3-.5.3-2.3-3.8-2.6-4.1a2.4,2.4,0,0,1-.8-1.5c0-.4.6-3,.7-4.6a13,13,0,0,0,1-2.5c.4-1.2.3-2.6.6-3.8,1.5-4.4,3.8-10.8,5.9-16.5,0-.3-.1-1-.1-1.7a10.4,10.4,0,0,1,2.3-1.7l1.4,1.7a1.9,1.9,0,0,0,.3-1.3,6.2,6.2,0,0,0,2,1.1c0,.4-.4.9,0,1.3h.5v.9c.1.5-.4,1.1-.6,1.8s-.4,3.4-.8,5a2.1,2.1,0,0,1-.4,1.2,8.7,8.7,0,0,0-.5,3.5c1.2-1.2,3.1-4.5,4.7-5.1s1.6-.1,2.6-.7a3.1,3.1,0,0,1,.9,1.2c.4-.2.6-.5,1.1-.5s1.5,1,2.1,1.6h0v.3c0,.2.4.3.4.3,2,3.8,1.5,2.3,1.7,4.5.3.5-.4,6.9-.1,10.2a16.5,16.5,0,0,0,.1,4.4,1.4,1.4,0,0,0,1.1.2c1.3,0,4.1-2.3,5.5-2.8h-.1c-.2,0-.2.1-.2.1v.2h.3c.5-.1,1.7-1.3,2.9-1.9A4.8,4.8,0,0,0,1707.8,180.3Zm-12.7-17.9V162h-.6v.4Z"/><path class="d" d="M1741.4,140.8a6.2,6.2,0,0,0-1.1,1.9c-.1,2.9-2,5.4-3.9,10.8-.2.4.1,1.2-.1,1.8l-1.1,3.8c-.2.9-.7,2.1-.9,2.8s-.8,3.3-1.3,5a66.6,66.6,0,0,0-1.2,8.1c.2.4.5.9.3,1.2,0,1.8-.8,5.1-.8,5.7l.2,1.3a7.4,7.4,0,0,0,2.8.6c3.2-.4,10.3-4.3,11-5-.2.9-.3,1.9-.4,2.7a6.3,6.3,0,0,1-2.1,2.5,3,3,0,0,0-.7,1.5c-1,.4-2.4.8-2.6,1.6a30.6,30.6,0,0,1-4.4,1.2l-2,.3c-.6.1,0-.3-.5-.2s-3.1-1.3-4.2-1.9-1.4-1.8-2.3-3.2a15.4,15.4,0,0,1-1.2-3.8c-.3-1.9-.6-3.1-.6-3.8a21.1,21.1,0,0,0-2.4,4.1,26.1,26.1,0,0,1-3.6,5.3,10.9,10.9,0,0,0-1.7,2.2c.2.3.5.4.7.2-2.7,1.9-2.6,3.3-4.4,3.5l-2.6-.3c-2.8-2.4-3.8-3.9-4-6.2-.7-6.1,4.7-16.7,7.4-21.5a13,13,0,0,1,2.6-3.3,5.6,5.6,0,0,1,1.5-1,2.9,2.9,0,0,1,1.7-.4c.4,0,.3.7.9.7s.3-.3.3-.6,2.2.7,3.1,1.3a10,10,0,0,0,1.8,1.9c.3-.3.2-.1.4-.4,3.1-9.7,5.3-16.5,10-25.5,1.3,0,5.6.4,5.9,3.1A8.4,8.4,0,0,1,1741.4,140.8Zm-20.1,24.4c-.4.4-1.2,1.1-1.5,1.1a.7.7,0,0,1-.2.8c-.6,1.1-1.9,2.6-2.5,3.8a29.8,29.8,0,0,0-2,5.1c0,.3.2.3.2.7a11.9,11.9,0,0,0-.7,2.3,10.1,10.1,0,0,1,2.8-3.4c.1-.5.3-1.7.7-1.7s.6.4.6,0v-.4c.9-.4.7-1,1.1-2.2s-.3.6.3.5.6-1,.4-1.4,1.1-.5,1.4-1.6-.1-1-.1-1.4A6.3,6.3,0,0,0,1721.3,165.2Z"/><path class="d" d="M1757.9,179.9c.2.1.5,0,.8.4s-.7.8-1,1.1a1.8,1.8,0,0,0-.2,1.3,21,21,0,0,0-4.2,3.7c0,.3.2.8-.5,1.1a8.1,8.1,0,0,1-3.2,1.1c-5.3.4-8.1-6.3-8.4-9.9a21.2,21.2,0,0,1,.6-5.2l.9-3.4a40,40,0,0,1,2.6-8.4,5.4,5.4,0,0,1,.1-1.1c.3-.3.4-.9.9-1.5a12.9,12.9,0,0,0,1.9-.4,5.1,5.1,0,0,1,3.2,1.3,4.2,4.2,0,0,1,1.9,2.9c0,.4-.3.9-.4,1.5a37.9,37.9,0,0,0-.8,4.3,9.6,9.6,0,0,1-1.2,4.2c-.3.7-.5,2.2-.7,2.9-1,3.3-1.7,4.3-1.1,6.2a35.8,35.8,0,0,0,10.1-7.3C1758.2,175.6,1759.6,178.4,1757.9,179.9Zm-3.6-28.7a6.4,6.4,0,0,1-3.2-1c-.1-.3,0-.3-.3-.6s-1.9-2.6-2.3-4-.1-2-.5-2.7c3.6.2,4-.6,6-.9s1.3,1.1,1.5,1.7-.1,1.5.8,2.4C1755,148.1,1758.1,151,1754.3,151.2Z"/><path class="d" d="M1797.1,174.8l-1,2.1a57.4,57.4,0,0,0-2.1,8.9,2.9,2.9,0,0,0,.6,1.6h0v.2a2.1,2.1,0,0,0,.1,1.4c0,.3.1.4.2.4,0,1.5-1.6,1.7-2,2.7-.7-.9-1.2-.3-1.8-.3a1.9,1.9,0,0,1-1.3-1,2.7,2.7,0,0,1-.8-1c-.7,0-.3.2-.3.3s-.8-.1-1-.8a17.3,17.3,0,0,1-1.3-3.9c0-.6.3-.2.3-.5a38.8,38.8,0,0,1,.6-6.7c.9-4.4,3.4-11.7,3.4-12.4v-3.5a2.4,2.4,0,0,0-1.6-.4,21.9,21.9,0,0,0-4.2,1.1l-3.2,1.2c-1.2,0-2.6,1.7-2.9,2.4l-.9,3c-.4,1.5-1.2,2.9-1.2,4.2a63.9,63.9,0,0,0-2.9,7c-2.6,3.7-4.4,9-7,9.9.3-.3.6-.3.6-.6l-.3-.3a2.7,2.7,0,0,1-1.6.8c-.4,0-1.6-.8-2.3-.9s-3-5-3.2-6.2a27.6,27.6,0,0,1,0-2.9,3.1,3.1,0,0,0-.3-1.3c-.1-1.3-.1-3.4-.1-4s.2-4.9.4-7.4.3-4.6.3-6.5c0-.4-.3-.9-.3-1.5s.3-.6.6-1a11.5,11.5,0,0,1,.3-2.6c.2-.9,1-1.8,1.2-2.5s1-.4,1.6-.4,1.1,2.4,2.6,2.4.2,1.6.5,2,.2,3.8.2,4.4a34.3,34.3,0,0,1-.3,4v.2c0,.1,0,.2.1.2s-.6,5.3-.6,7.5c0,.2-.1.6-.1,1v1.5c.2.3,0,.2.3.5a5.3,5.3,0,0,0,1.1-2.5.1.1,0,0,0,.1.1h.2c.6-1.3.9-2.3,1.6-4a23,23,0,0,0,.8-2.7c.6-1.2,1-4.2,1.7-5.6s3.5-3.6,5.1-4.5,9.9-2.4,12.8-2.4,3,.9,6.8,2.4a10.5,10.5,0,0,0,1.7,2.1c.9,1.2.7,2.1.7,3.4C1799.1,167.9,1797.7,171.3,1797.1,174.8Zm-23.5-15.4-.2.6-.3-.2.3-.5Zm31-8.1c-.3.4-.9,1.1-1.5,1.1s-.8.3-1.2.3a13.6,13.6,0,0,1-4.1-1.6c-2.7-1.7-1.3-4.2-2.1-6h.4l2.3-2.2c1,.2,2.3.2,3.3.5s.4,1.3.8,1.3-.2-.1.4-.1,1.4,2.3,1.7,3.5a5.2,5.2,0,0,1,.2,1.7C1804.8,150.3,1804.3,150.9,1804.6,151.3Z"/><path class="d" d="M1837.2,140.8a6.2,6.2,0,0,0-1.1,1.9c-.1,2.9-1.9,5.4-3.8,10.8-.3.4,0,1.2-.2,1.8l-1,3.8c-.3.9-.8,2.1-1,2.8s-.8,3.3-1.3,5a66.6,66.6,0,0,0-1.2,8.1c.3.4.6.9.3,1.2,0,1.8-.8,5.1-.8,5.7l.2,1.3a7.5,7.5,0,0,0,2.9.6c3.2-.4,10.2-4.3,10.9-5-.2.9-.3,1.9-.4,2.7a6.9,6.9,0,0,1-2,2.5c-.4.3-.5.7-.8,1.5s-2.4.8-2.6,1.6a30.6,30.6,0,0,1-4.4,1.2l-2,.3c-.6.1.1-.3-.5-.2s-3-1.3-4.1-1.9-1.5-1.8-2.4-3.2a15.4,15.4,0,0,1-1.2-3.8l-.6-3.8a21.4,21.4,0,0,0-2.3,4.1,38,38,0,0,1-3.6,5.3,11.6,11.6,0,0,0-1.8,2.2c.3.3.5.4.7.2-2.7,1.9-2.5,3.3-4.4,3.5s-1.7-.3-2.6-.3c-2.8-2.4-3.8-3.9-4-6.2-.6-6.1,4.7-16.7,7.4-21.5a19.8,19.8,0,0,1,2.6-3.3,5.6,5.6,0,0,1,1.5-1,3,3,0,0,1,1.8-.4c.4,0,.2.7.9.7s.3-.3.3-.6,2.1.7,3,1.3a11.2,11.2,0,0,0,1.9,1.9l.4-.4c3.1-9.7,5.2-16.5,10-25.5,1.2,0,5.6.4,5.8,3.1A5.3,5.3,0,0,1,1837.2,140.8Zm-20.1,24.4c-.4.4-1.2,1.1-1.5,1.1s.2.5-.1.8a31.1,31.1,0,0,0-2.5,3.8,30.6,30.6,0,0,0-2.1,5.1c0,.3.2.3.2.7a11.9,11.9,0,0,0-.7,2.3,10.1,10.1,0,0,1,2.8-3.4c.1-.5.3-1.7.7-1.7s.7.4.6,0v-.4c1-.4.7-1,1.1-2.2s-.3.6.3.5.7-1,.4-1.4,1.2-.5,1.4-1.6-.1-1-.1-1.4A6.3,6.3,0,0,0,1817.1,165.2Z"/><path class="d" d="M1871.9,178.1l-1.2,1.1a9.1,9.1,0,0,0,.8,1.3l-1.2,1.9q-.1.4,0,.6l-1.2,1.3c.4.3.6.2.9-.1a.5.5,0,0,1-.6.6c-.7,0-.1-.1-.3-.4s-.2.7-.5,1a6,6,0,0,1-1.4,1.3,11.3,11.3,0,0,1-3.4,1.8,16.5,16.5,0,0,1-5.8-1.4,5.3,5.3,0,0,1-1.5-1.5c-1-1.9-1.8-4.1-2.5-5.7a6,6,0,0,1-.1-2.3,2.1,2.1,0,0,0-.3-1.3c-2.9,3.6-6.2,7.1-8.5,11.5l-1.6.9h-.2l.2.3c-.7,0-1.6-.3-2.5-.3s-1.4-1.2-2.1-1.9a5,5,0,0,1-1.3-1.9,10.4,10.4,0,0,1-.5-2.9c0-3.8.9-6,1.6-9.6a5.7,5.7,0,0,0,1.3-2.7,7.6,7.6,0,0,1-.1-1.5,3.8,3.8,0,0,1,1.2-1.5c.4-.4.3-1.3.5-2.1s.5-.3.7-.6-.1-.3,0-.6c1.6-3,2.7-8,6.4-8,.5,0,.9.4,1.6.2s.8,1.4,1.2,2,.3.6.3,1.2-2.1,5.4-3.3,8.2-1.5,3.2-2.2,4.7-1.6,3.3-2.4,5.3a1.8,1.8,0,0,0,.1,1,16.1,16.1,0,0,0-1.2,3.3v.5h.2c5.3-6,10.3-11.2,13.6-17.6a28.1,28.1,0,0,1,2.3-3.9c.3.3.9.5,1.3.9s.1-.4.1-.6.3.6.8.6,0-.2.4-.2a5.9,5.9,0,0,0,2.3,1.5,7.9,7.9,0,0,1,1.1,3c0,.3-1.2,2.3-1.6,3.5a31.5,31.5,0,0,0-1.8,5.9h-.1a.5.5,0,0,0-.3.4,45,45,0,0,0-.6,4.9c0,.4.2.7.6.7l.5.2,2.2-.4,2.9-.8a19.4,19.4,0,0,0,4.7-2.5Z"/><path class="d" d="M1903.5,181.1a1,1,0,0,0-.3,1.2,21.5,21.5,0,0,1-3,2.6c0,.1.4.6.6.6-1.7.2-4.4,2.7-5.1,2.7h-3.4c-3.2,0-6.2-6.7-6.2-7.2a31.8,31.8,0,0,0-.2-4.1c-.9,1.5-1.8,2.6-2.8,4.2s-4.9,7.3-7.3,7.3l-1.7.3c-2.6,0-3.5-1.6-5-2.9s-.7-2-.7-2.4c0-4.9,6.5-15.9,9.2-19.5a23.4,23.4,0,0,1,3.2-3,13.7,13.7,0,0,0,2.3-2c.3-.2,0-.5.2-.7s1.3-.2,1.7-.5a2,2,0,0,0,.9-1.1h.7a1.9,1.9,0,0,0,1.3.7l1.3.2c1-1.1.3-1.6,1.4-1.6s.1.6.7.6.1-.2.5-.2a6,6,0,0,1,3.5,1.6c.2.4.6,1.5.3,1.8s.3-.3.3.3-1.7,5.9-2.4,8.9-1.7,12.2-1.7,12.7.2,1.8.2,2.5a6.2,6.2,0,0,0,2.4-.1c1.2,0,10.1-4.1,10.6-4.4S1903.8,180.6,1903.5,181.1Zm-18.3-14.9c-.3-.3,0-.7,0-.9a64.8,64.8,0,0,0-7,11.3l.5.5c2.5-3.1,4.7-7.6,7-11.4Z"/><path class="d" d="M1922.7,181.9a.8.8,0,0,0,.1.4l1.2-.5c-.5.1-.6.4-.2.8s-1.9,2.2-.7,2.3c-.6.3-.8,1.4-1.1,1.7s-2.2,1.3-3.1,2-1.1,1.3-2,1.5l-2.6.8-.5-.5c-1,.7-1.2.3-1.8.3s-.1.4-.6.4-2.3-.9-3.1-1.2c-5.2-2-7.4-9.3-7.4-13.2,0-6.7,1.8-12.2,3.3-18,.1-.8.8-1.3.9-1.9a51.8,51.8,0,0,1,1.5-6.7c.6-2.2,2-5.9,3.3-9.8.4-.8,1.2-1.5,1.4-2.4,1-2.9,2.3-4,2.2-5.9h1.1c.5,0,1.2.8,1.9.8h.8c.3.7.9,1.9,1.1,2.6s0,1.6.3,2.2l-7.8,25.4a40.4,40.4,0,0,0-1.8,5.6,78.6,78.6,0,0,0-1.7,11.4c0,.4.1,2.4.1,3.4a3.8,3.8,0,0,0,.9,1.3,4.1,4.1,0,0,0,1.9.6c.7,0,.8-.4,1.1-.4s.6.3,1.3.3.8-.4,2.8-1c.4-.3.8-.7,1.1-.7s.1.2.7.2,1.8-1.3,3.7-2.3c-.2.1-.2.2,0,.5s0-.4.4-.4a10.1,10.1,0,0,0,2.8-1.1C1923.6,180.9,1923.5,181.7,1922.7,181.9Z"/><path class="d" d="M1715.3,237.5a13.2,13.2,0,0,1-.7,5.9,2.9,2.9,0,0,1-1.7.5,5.3,5.3,0,0,1-2.4-1.2c-.4.1-.5.4-.6.7-.7,6-.1,12.2-1.1,18.3-.4,3-1.3,10.5-6,10.5-.7,0-.5-.3-.8-.3s0,0-.7,0-3.3-2.2-3.6-2.2c-2.6-1.5-6.2-7.7-6.2-11a10.7,10.7,0,0,1,1.7-4.8l.6-.2c.1.4-.2,1-.3,1.6s.4.2.7.6.1.5.1,1.2.7.3,0,1a2,2,0,0,1,.3,1.4c.3.7,1.2,1.3.8,2.2l.3.3a1.4,1.4,0,0,1,.9-.5c.9,1.6.9,3.6,2.5,4.7a8.2,8.2,0,0,0,2-3.5c1.9-4.5,1.5-12.8,1.5-16.4,0-1.2.6-2.7.6-4s-.3-.8-.3-1.2.3-2,.5-3.7.3-8.1,2.3-8.1.5.1.8.3a7.1,7.1,0,0,1,4.2,1.2,18.6,18.6,0,0,1,3.5,2.6,2.5,2.5,0,0,1,.1.9,3.6,3.6,0,0,1,1.3,2.2A1.3,1.3,0,0,1,1715.3,237.5Zm-18.8,23.9h-.4v-1.2h.4Z"/><path class="d" d="M1747,241.2c0,.3.2.3.4.3s-1,.6-.1,1.3l-2.8,1.3c0,.3.4.4.7.6s-2.5,1.8-4.1,2.1-1.3,1.9-1.8,1.9,0-.2-.3-.4-.3.2-.3.7a55.7,55.7,0,0,0-5.5,1.7c-.3.1,0,.3,0,.5h-.7a24.3,24.3,0,0,0-3.6,1.2l-.7,1a7.6,7.6,0,0,0-2.3,1.3c-.6,2.6-1.5,7.7-1.5,8.2s.8,3.6.8,4-1,1.1-1,1.9h-1.3c-.5,0-.6-.9-.9-1.3-2.5-2.2-2.1-4.2-2.4-6.2s.3-4.3.2-8.2c0-.6-2.2-3.2-2.2-3.7s.4-2,.4-3.2l.4-.6a2.4,2.4,0,0,1,.9-.3c.7,0,.1.2.8.2s1-.6,1.1-1.2c.9-2.4,1.8-9.9,2.7-13.3s2.1-7.1,3-10.7c.4-1.7,1.1-4,1.8-6s.6-4.2,2.2-5.2a2.7,2.7,0,0,1,1.4-.6c.6,0,1.2,1.3,1.8,1.3h.6v.4c0,.7,1.5,3.1,1.5,3.8a13.2,13.2,0,0,1-.9,3.4,6.9,6.9,0,0,1,.2,1.3c-1.6,5.5-3.3,10.8-4.9,15.8a46.8,46.8,0,0,1-1.6,7v.4c.6.4.9.2,1.6.2a4.2,4.2,0,0,1,1.7-.2c.6,0,.1.4.7.4a19.4,19.4,0,0,0,2-.5,116.9,116.9,0,0,1,12.7-1.4C1747.7,240.7,1747.3,240.9,1747,241.2Z"/><path class="d" d="M1763.2,245.9a9.5,9.5,0,0,0-3.4,0,16.7,16.7,0,0,0-.4-2.4c-3.2,1.2-5.8,5-7.8,8.1,0-.2-.1-.4-.3-.4s-.4.8-.2,1-.2,0-.2.1l-.3.3c-.1.2.3.3.3.6s-.3.2-.6.2h-.3c-.3.4.3.5.3.6a28.6,28.6,0,0,1-1.9,3c0,.3.2.4.1.5a7,7,0,0,1-1.3,1.7c-.4.6-.3,1.4-.7,2-1,2.2-2,4.8-1.3,7a2.3,2.3,0,0,1-1.5.5,7.6,7.6,0,0,1-2.3-.9c-.3-.3,0-1.3-.9-1.1-.5-1.7-1.3-2.9-1.3-4.1s1.3-4.9,1.4-7.1a52.8,52.8,0,0,0,1.5-9c.3-1.9.6-4.3.8-6.6s.4-3.3.8-4.8h.9a4.1,4.1,0,0,1,2.9,2.3,14.7,14.7,0,0,1,.8,3.5c.1.9-.2,1.6-.2,2.8.8-2,5.2-5.4,7.7-5.4a11.3,11.3,0,0,1,7.7,3.6c.3.4.5,1.1.9,1.8S1762.9,245.1,1763.2,245.9Z"/><path class="d" d="M1780.5,262.5c0,.4.4.6.9.8s-.5,1.2-.9,1.9-2,1.5-2,2.7a8.3,8.3,0,0,1-3.2.5c-.4.3,0,.3.4.3s-2.1.8-3,.9v.3h-.3c-1,0-3.3-1.6-3.5,0l-.9-1.2c-2.3-.5-3-1.1-5-3.3s-.7.8-2.2-5.6a14.2,14.2,0,0,1,.6-6.2,39.1,39.1,0,0,1,2.7-7.1c.7-1.3,1.5-3.1,2.7-5.1s1.5-1.9,2.1-2.9,1.3-1.9,2.9-2.8,2.4-.8,2.2-1.7-.2.1-.2.2.1.2.3.2-.1-.2.5-.2,1.5.7,2.3.9,0,1.5.5,1.5,0-.2.6-.2.6.4.9.7c0,3.4,1.6,1.6,1.6,3.7a41.7,41.7,0,0,1-1.5,6.5,28.7,28.7,0,0,1-3.7,5.3c-2.3,2.8-6.8,7.4-6.8,8.1s1.4,1.6,2.4,2a5.8,5.8,0,0,0,2.3.3c.9,0,1.5-.8,2.8-.3l5.7-1.7.8.3C1781.7,261.7,1781.3,262.3,1780.5,262.5Zm-11-13.9a22.5,22.5,0,0,0-1.6,3.1l-.5,2.2,3.5-4.5c1.2-1.6,3.1-3.9,3.5-7.1C1772.2,243.5,1771.5,245.1,1769.5,248.6Z"/><path class="d" d="M1815.4,261.1a1,1,0,0,0-.3,1.2,21.5,21.5,0,0,1-3,2.6c0,.1.4.6.6.6-1.7.2-4.4,2.7-5.1,2.7h-3.4c-3.3,0-6.2-6.7-6.2-7.2a21.3,21.3,0,0,0-.3-4.1c-.8,1.5-1.7,2.6-2.7,4.2s-4.9,7.3-7.3,7.3l-1.7.3c-2.7,0-3.5-1.6-5.1-2.9,0-.7-.6-2-.6-2.4,0-4.9,6.5-15.9,9.2-19.5a23.4,23.4,0,0,1,3.2-3,13.7,13.7,0,0,0,2.3-2c.3-.2-.1-.5.2-.7s1.3-.2,1.7-.5a2,2,0,0,0,.9-1.1h.7a1.9,1.9,0,0,0,1.3.7l1.3.2c1-1.1.3-1.6,1.4-1.6s.1.6.7.6.1-.2.5-.2a6.2,6.2,0,0,1,3.5,1.6c.2.4.6,1.5.3,1.8s.2-.3.2.3-1.6,5.9-2.3,8.9-1.7,12.2-1.7,12.7.2,1.8.2,2.5a6.2,6.2,0,0,0,2.4-.1c1.2,0,10.1-4.1,10.6-4.4S1815.7,260.6,1815.4,261.1Zm-18.3-14.9c-.3-.3,0-.7,0-.9a64.8,64.8,0,0,0-7,11.3l.4.5c2.6-3.1,4.8-7.6,7.1-11.4Z"/><path class="d" d="M1861.5,263.4c-.2.4,0,.6.4.8s-.6.6-1,.9a1,1,0,0,1-.1.8,31.6,31.6,0,0,1-3.2,1.4c-.6,0-2.2-.7-2.7-.7s.3.3-.3.4a14.2,14.2,0,0,1-3.7-2.7c-1.6-1.8-1.9-4.9-2.5-7.9a5.4,5.4,0,0,0-.5-2.6,23,23,0,0,0-1.5,2.3c-.9,1.3-3.7,4.2-5.3,6.6a15.8,15.8,0,0,1-3.6,3.7c-.2.3.1.5-.2.6a11,11,0,0,1-2.8,1.3c-1.7.2-5.9-2.5-6.1-4-.4-3.6,1.7-9.7,1.8-12.1.3-.4-.1-.4-.1-.7l.2-.3a2.4,2.4,0,0,1-.3-.9c-2.6,2.7-5.5,6.8-8,10a8.4,8.4,0,0,1-.4,1.2l-1.8,2v.7c-1,.9-1.9,2.7-2.9,3.7a5.6,5.6,0,0,1-2.3,1.2,6.6,6.6,0,0,1-2.4-1.6c-.9-.5-.9-1.8-1-3s.9-7.2,2.2-11.3,2.7-7.6,2.9-8.9.8-2.4,1-3.6.4-.2.4-.5c0-2.3.4-3.5,1.8-6.7.6,0,1.3-.4,1.8-.4a1.6,1.6,0,0,1,1.5.4l.2.4c1.2.2,2,2.4,2,2.8a11.9,11.9,0,0,1-.3,2.6,17.1,17.1,0,0,1-.8,3.4c-.2,1.6-2.1,5.2-1.9,6.6s.2-.5.9-.6,5.3-6.6,7.6-10a7.9,7.9,0,0,1,3.1,0,10.7,10.7,0,0,1,4.1,2.3,13.9,13.9,0,0,1,1.2,3.2c0,.5-.8,5.8-1.1,8.7-.9.2-.8,1.6-.9,2.6h0a.4.4,0,0,0,.1.3c.6-.6.5-1,1.5-1l10.4-12.6c.2.1,1-.2,1.7.1s1.1.8,1.5,1,.7-.1,1,.2l1.4,1.2c.5.7.4,1.5,1.1,2s.1.5.1.9-.8,5.2-.8,7.5a16.3,16.3,0,0,0-.1,2.5,11,11,0,0,0,.1,2.2c.2,2.1.4,3.1,3.2,2.8a13.7,13.7,0,0,0,3.7-1.3C1862.2,262,1861.6,262.8,1861.5,263.4Zm-15.5-7.2h-.3l-.4.7.4.2Z"/><path class="d" d="M1883.9,237.5a13.1,13.1,0,0,1-.6,5.9,3.4,3.4,0,0,1-1.7.5,4.8,4.8,0,0,1-2.4-1.2,1,1,0,0,0-.7.7c-.7,6,0,12.2-1.1,18.3-.4,3-1.3,10.5-6,10.5-.6,0-.5-.3-.8-.3s0,0-.6,0-3.4-2.2-3.7-2.2c-2.6-1.5-6.2-7.7-6.2-11a12.1,12.1,0,0,1,1.7-4.8l.7-.2c0,.4-.3,1-.4,1.6s.4.2.8.6,0,.5,0,1.2.8.3,0,1a2.2,2.2,0,0,1,.4,1.4c.3.7,1.2,1.3.8,2.2l.3.3a1.1,1.1,0,0,1,.9-.5c.8,1.6.8,3.6,2.4,4.7a8.2,8.2,0,0,0,2-3.5c2-4.5,1.6-12.8,1.6-16.4,0-1.2.5-2.7.5-4s-.2-.8-.2-1.2a21.1,21.1,0,0,1,.5-3.7c0-1,.2-8.1,2.2-8.1a1.1,1.1,0,0,1,.9.3,6.9,6.9,0,0,1,4.1,1.2,16.8,16.8,0,0,1,3.6,2.6v.9a3.2,3.2,0,0,1,1.3,2.2A1.3,1.3,0,0,1,1883.9,237.5Zm-18.8,23.9h-.3v-1.2h.3Z"/><path class="b" d="M57.9,210.3l6.2,342.8s41.4,29.3,158,27.2,147.1-36.5,147.1-36.5l1.7-328.9s-28.6,8-156.5,8S57.9,210.3,57.9,210.3Z"/><path class="c" d="M242.9,190.3c-10.4-2.6-21.3-3.2-32-3.6-12.5-.5-25.1-.4-37.7-.3-25.3.4-50.7,1.6-76,3.7-12.1,1-24.3,2-36.4,4.1-5.2.8-10.9,1.7-15.8,4.2-1.6.8-3.7,1.9-4.3,3.8s1.1,4.8,3,6.3c4.3,3.3,10.4,4.5,15.7,5.6s10.8,2.3,16.3,3.2c11.7,1.8,23.6,3.1,35.4,4.1,25.3,2.2,50.6,3.4,76,4.1s51.6,1,77.5.6,49.4-1,73.9-4c6-.8,12-1.7,18-3a52.2,52.2,0,0,0,13.4-4.2c2.9-1.5,6-3.9,4.2-7.5s-7.6-6.1-11.8-7.4c-11-3.3-22.7-4.7-34-6.2s-23-2.9-34.6-3.9c-24.8-2.1-49.8-3.2-74.8-3.2H200.5c-2.2.1-2.9,2.1-1.9,3.8a8,8,0,0,0,6.4,3.1q35.9-.6,71.5,1.6c22.2,1.4,44.4,3.6,66.4,7.1,5.4.9,10.8,1.7,16,3l3.5,1,1.3.4.9.3c-.4-.1-.6-.2-.1,0l1.3.6c.9.4-.7-.5,0,0s-.6-.8,0,0-.5-.8-.3-.3-.4-.9-.1-.3-.2-.7-.1-.2.2-.4,0,0h-.1a4.6,4.6,0,0,1-.7.7l-.8.6-.6.3-2.6,1.1a72.5,72.5,0,0,1-14.4,3.7c-23,4.1-46.6,4.9-69.9,5.5s-49.2.7-73.8.3-48.2-1.4-72.3-3-45.6-3.2-67.9-7.8l-1.4-.3-1.3-.3-4-.9-3.9-1.1-1.8-.6c.9.3-.6-.3-.8-.4s-.7-.5.1.1h0a2.8,2.8,0,0,1,.6.9v.2s-.2.6,0,.3-.2,0,.3-.5a16.9,16.9,0,0,1,5.4-2.6,99.8,99.8,0,0,1,15.4-3c5.8-.8,11.7-1.4,17.6-2,23.9-2.4,48-3.8,72-4.5,12.3-.4,24.7-.6,37.1-.5a294.4,294.4,0,0,1,32.5,1.4c2.3.2,4.7.5,7,.9l3.3.6h.6c-.8-.2,0,0,.1,0l1.7.4c1.6.4,4.6.6,4.7-1.7s-2.8-4.1-4.6-4.6Z"/><path class="c" d="M38.8,211.7c0,19.4.2,38.8.4,58.2q.3,32.3.9,64.5.6,34.2,1.4,68.2l1.8,70q.9,34.5,1.9,69c.1,2.8.1,5.5.2,8.3s1.7,4.6,3.1,6.1,3,2.6,2.9.3q-1-34.3-1.9-68.7l-1.8-70q-.7-34.2-1.4-68.4c-.4-21.8-.8-43.5-1-65.2-.3-19.7-.5-39.4-.5-59.2v-6.7c0-2.2-1.7-4.6-3.1-6.1s-2.9-2.5-2.9-.3Z"/><path class="c" d="M366.5,213.1c-1,27.7-1.5,55.3-1.6,83-.2,24,0,47.9.3,71.9.2,16.2.4,32.4.5,48.6s.1,34.2.1,51.3q-.3,34.2-.8,68.2c-.1,3.5-.1,6.9-.2,10.4a6.3,6.3,0,0,0,4,5.7c1.8.7,4.6.3,4.7-2.2.4-23.7.7-47.5.9-71.2.1-17.6.1-35.2,0-52.7s-.3-32.1-.5-48.2c-.2-22.6-.5-45.2-.4-67.8,0-27.8.5-55.5,1.3-83.3.1-3.4.3-6.8.4-10.2a6.4,6.4,0,0,0-4-5.7c-1.8-.7-4.6-.3-4.7,2.2Z"/><path class="c" d="M48.9,559.6c17.7,8.6,37.1,13.7,56.4,17.1,21.3,3.9,43,5.3,64.7,6.4s45.5,1.5,68.3.4a417.9,417.9,0,0,0,65-7.8c19.6-4,38.9-9.7,57-18.3l6.2-3.1c1.8-1,4-3.2,2.9-5.4s-4.3-1.8-6.1-.9c-4,2.1-8.1,4.1-12.3,5.9l-6.5,2.6-.7.3-1.7.6-3.5,1.3a256.9,256.9,0,0,1-28.5,8.1,379.2,379.2,0,0,1-62,8.6,639.4,639.4,0,0,1-66.4.4c-21.5-.9-43.2-2.1-64.5-5.4-19.1-2.9-38.3-7.4-56.1-15.1l-6-2.8c-2.2-1-5.2.3-6.7,2s-1.6,4,.5,5.1Z"/><path class="d" d="M163.7,375.6c0,.3-.4.8-.6,1.5a1.3,1.3,0,0,1-.7-.4l-.7.7h.1a.4.4,0,0,1,.1-.3h0c0-.1,0-.1-.1-.2a3.2,3.2,0,0,0-1.3,1,1.7,1.7,0,0,0-.1-.8,8,8,0,0,1-1.9-1.8l-.2-.6c.1-.3,0-.9.2-1.3h-.1a.3.3,0,0,1-.3-.3,4.7,4.7,0,0,1,.2-1.6c.1-.1.2,0,.3-.2l.3-.4c-.1-.2,0,.2,0-.4s-.9-5-2-5.8a7.5,7.5,0,0,0-2.8-1.6c-.5,0,.1.1-.4.1s-.5-.4-.8-.5h-.8c-.8,0-4.4,2.5-4.7,2.9a17.3,17.3,0,0,0-1.6,3.7,4,4,0,0,0-.3,1.5,18.1,18.1,0,0,0,.3,3.7c0,.4.7,1,.7,1.7s.1,2.9,1.1,4.2l1.8,5.8c0,.2.3.5.6.9,1.3,3.7,1.9,6.3,3.8,11,1.1,1.9,2.1,8,2.1,11a19.8,19.8,0,0,1-.6,3.8c-.1.3.2.7,0,1.1a6.8,6.8,0,0,1-2.6,3.4,7.8,7.8,0,0,1-1.3,1.3h-.6a9.8,9.8,0,0,1-4.3,1.1h-1.8c-.6,0-3.6-1.4-4.2-1.4s.2.3-.4.3-1.1-.9-1.3-1.3-2.7-1.5-3.9-2.8-3.2-3.9-3.5-5.5-.7-1.6-1.3-2.6.4-.5.2-.7l-.5-.6c.3-.6-.1-2-.1-2.7s-.4-.5-.4-1,.2-.5.2-.8.2.3.6.5a5.2,5.2,0,0,1,0-2.5,2.5,2.5,0,0,1,.4.6,3.7,3.7,0,0,0-.3-2.7c.3,0-.1-.4.5-.4s.2.1.5.1.3-.9.3-1.6-.3,1.1-.1,1.7.3.2.3.3,0,1.6.8,1.6a12.1,12.1,0,0,0,.5,1.8l.4-.4c0,2.2,1.1,5.7,2,6.6s1.2,2.4,1.8,2.4.1-.2.1-.4c.6,1.5,5.8,3.3,8.1,3.3h1l.4.3c.2-.3,1.2-.5,1.6-.7a4.8,4.8,0,0,0,1.8-2.3,4.4,4.4,0,0,0,.2-2c0-.5-.2-.3-.2-.4a3.8,3.8,0,0,0,0-2.1,127.9,127.9,0,0,0-6-16c0-.4-4.5-13.6-4.5-17.5v-1.7c.1-1.1.3-2,.4-2.7a27,27,0,0,1,2.4-5.5c0-.2-.2-.2-.2-.5s1.3-1.1,1.7-1.1-.2.4.2.4,2.1-1.8,2.8-1.8l5.1-.4c.3,0,2.9,1.2,4,1.4a9.1,9.1,0,0,0,2.8,1.3c3.6.4,5.3,9.4,5.3,12.5A14.5,14.5,0,0,1,163.7,375.6Z"/><path class="d" d="M173.7,416.4c-.4.3-.4.9-.7,1.2a9.6,9.6,0,0,1-4.9,1.7c-2.5,0-3.8-1.5-5.4-2.8s-.9-2.4-1.8-2.4a21.2,21.2,0,0,1-.7-3.2c0-3.5,3.1-10.2,3.9-11.3s0-.9.4-1.3,1.4-1.9,1.8-2.8.3-.2.6-.3.2-.5.5-.9,1.5-1.2,2-1.9.2-1,.5-1.6-.7-.4-1,.2a.6.6,0,0,0-.2-.5c-.2.1-.2.3-.2.6s-.2-.5-.6-.5h.2l.3-.2c-.4-3.1,5-4.1,5.9-5,.4.9,1,.3,1.9.7l2.5,2.4c0,.1.1.2.2.3a.9.9,0,0,0,.3.6c.2.1.5,0,.8.2,2.5,3.5,4.1,6.6,4.1,10C184.1,405.4,179.5,411.3,173.7,416.4Zm2.8-22.4c-.8,1.7-2.7,3.8-3.4,5-1.8,3.2-5,9.7-5,10.3v.7c1-.7,2.8-2.4,3.2-2.4s-.4.5.2.5,4-5.2,4.2-5.6a57.3,57.3,0,0,0,1.8-5.5A10.5,10.5,0,0,0,176.5,394Zm-.8-.6v-1.2h-.4v1.2Z"/><path class="d" d="M219.7,408.1l-1.3,1.1a10.1,10.1,0,0,0,.9,1.3l-1.2,1.9q-.3.5,0,.6l-1.2,1.3c.3.3.5.2.8-.1s0,.6-.6.6-.1-.1-.3-.4-.2.7-.5,1a3.6,3.6,0,0,1-1.4,1.3,9.4,9.4,0,0,1-3.4,1.8,16.5,16.5,0,0,1-5.8-1.4,5.3,5.3,0,0,1-1.5-1.5c-.9-1.9-1.7-4.1-2.5-5.7s0-1.7,0-2.3a2.2,2.2,0,0,0-.4-1.3c-2.8,3.6-6.2,7.1-8.5,11.5l-1.6.9H191q0,.1.3.3c-.8,0-1.7-.3-2.6-.3s-1.4-1.2-2.1-1.9a5,5,0,0,1-1.3-1.9,10.4,10.4,0,0,1-.5-2.9c0-3.8.9-6,1.6-9.6a5.7,5.7,0,0,0,1.3-2.7,7.6,7.6,0,0,1-.1-1.5,4.9,4.9,0,0,1,1.2-1.5c.4-.4.3-1.3.5-2.1s.5-.3.8-.6-.2-.3-.1-.6c1.7-3,2.7-8,6.4-8,.5,0,.9.4,1.6.2s.9,1.4,1.3,2a9.7,9.7,0,0,1,.2,1.2c0,2-2.1,5.4-3.3,8.2s-1.5,3.2-2.1,4.7-1.6,3.3-2.5,5.3a1.8,1.8,0,0,0,.1,1,16.1,16.1,0,0,0-1.2,3.3v.5h.2c5.4-6,10.3-11.2,13.6-17.6a43.5,43.5,0,0,1,2.3-3.9c.3.3.9.5,1.3.9s.1-.4.1-.6.3.6.9.6-.1-.2.3-.2a5.9,5.9,0,0,0,2.3,1.5,6.5,6.5,0,0,1,1.1,3c0,.3-1.2,2.3-1.6,3.5a31.5,31.5,0,0,0-1.8,5.9h-.1a.4.4,0,0,0-.2.4,31.3,31.3,0,0,0-.7,4.9c0,.4.2.7.6.7l.5.2,2.2-.4,2.9-.8a19.4,19.4,0,0,0,4.7-2.5Z"/><path class="d" d="M240.9,395.9a8.9,8.9,0,0,0-3.3,0c-.1-.6-.2-1.3-.4-2.4-3.2,1.2-5.9,5-7.9,8.1,0-.2,0-.4-.3-.4s-.3.8-.1,1h-.3l-.2.3c-.1.2.2.3.2.6s-.2.2-.5.2h-.4c-.2.4.4.5.4.6a31.1,31.1,0,0,1-2,3c0,.3.3.4.2.5a5.5,5.5,0,0,1-1.4,1.7c-.4.6-.3,1.4-.6,2-1,2.2-2.1,4.8-1.4,7a2,2,0,0,1-1.5.5,8.4,8.4,0,0,1-2.2-.9c-.3-.3,0-1.3-.9-1.1-.6-1.7-1.4-2.9-1.4-4.1s1.3-4.9,1.5-7.1a52.8,52.8,0,0,0,1.5-9c.2-1.9.6-4.3.8-6.6a39.7,39.7,0,0,1,.7-4.8h1a4.1,4.1,0,0,1,2.9,2.3,14.7,14.7,0,0,1,.8,3.5c0,.9-.3,1.6-.3,2.8.8-2,5.2-5.4,7.8-5.4a11.5,11.5,0,0,1,7.7,3.6c.3.4.4,1.1.8,1.8S240.6,395.1,240.9,395.9Z"/><path class="d" d="M264.2,405.6c-.5,0-.2-.3-.5,0s-.3.4.1.4.3-.1.6-.1-.7,1.2-.5,1.6a37.6,37.6,0,0,0-3.1,2.5c0,.3.1.3.4.3v.8l-6.9,4.2c-.3.3-.6,1-1,1.4s-5,1.9-6.8,1.9c-4.1,0-7.7-4.4-8-7.9v-2a24.3,24.3,0,0,1,.5-4.8,15.8,15.8,0,0,1,1.8-5.2c.2-.1.1-.7.2-1.1a17.6,17.6,0,0,1,2.6-4.4,8.8,8.8,0,0,0,1.8-2.1.4.4,0,0,0-.1-.3l-.3.4c1-1.2,2.1-3.4,3.4-4.8s1.2-.5,1.8-.8.7-.9,1.4-.9a13,13,0,0,1,3.3.8,9.8,9.8,0,0,1,3.2,3.2,9.6,9.6,0,0,1,.8,3c0,.8-.9,5.5-1.8,6s-.6.2-1.2.2-1.9-.9-2.2-2.1-1.1-1.6-.8-2.5h-.2a51.8,51.8,0,0,0-6.6,10.9,50.6,50.6,0,0,0-2.2,6.9v1.1a8.7,8.7,0,0,0,2.3.6,19.7,19.7,0,0,0,3.5-1.5c2.9-1.2,6.6-2.4,10.4-4.3a59.1,59.1,0,0,1,5.4-2.9C265.1,404.4,264.9,405.6,264.2,405.6Z"/><path class="d" d="M281.7,412.5c0,.4.4.6.9.8s-.5,1.2-.9,1.9-2,1.5-2,2.7a8.3,8.3,0,0,1-3.2.5c-.4.3,0,.3.4.3s-2.1.8-3,.9v.3h-.3c-1,0-3.3-1.6-3.5,0l-.9-1.2c-2.3-.5-3-1.1-5-3.3s-.7.8-2.2-5.6a14.2,14.2,0,0,1,.6-6.2,39.1,39.1,0,0,1,2.7-7.1c.7-1.3,1.5-3.1,2.7-5.1s1.5-1.9,2.1-2.9,1.3-1.9,2.9-2.8,2.4-.8,2.2-1.7-.2.1-.2.2.1.2.3.2-.1-.2.5-.2,1.5.7,2.3.9,0,1.5.5,1.5,0-.2.6-.2.6.4.9.7c0,3.4,1.6,1.6,1.6,3.7a41.7,41.7,0,0,1-1.5,6.5,28.7,28.7,0,0,1-3.7,5.3c-2.3,2.8-6.8,7.4-6.8,8.1s1.4,1.6,2.4,2a5.8,5.8,0,0,0,2.3.3c.9,0,1.5-.8,2.8-.3l5.7-1.7.8.3C282.9,411.7,282.5,412.3,281.7,412.5Zm-11-13.9a22.5,22.5,0,0,0-1.6,3.1l-.5,2.2,3.5-4.5c1.2-1.6,3.1-3.9,3.5-7.1C273.4,393.5,272.7,395.1,270.7,398.6Z"/><path class="b" d="M2057.9,210.3l6.2,342.8s41.4,29.3,158,27.2,147.1-36.5,147.1-36.5l1.7-328.9s-28.6,8-156.5,8S2057.9,210.3,2057.9,210.3Z"/><path class="c" d="M2242.9,190.3c-10.4-2.6-21.3-3.2-32-3.6-12.5-.5-25.1-.4-37.7-.3-25.3.4-50.7,1.6-76,3.7-12.1,1-24.3,2-36.4,4.1-5.2.8-10.9,1.7-15.8,4.2-1.6.8-3.7,1.9-4.3,3.8s1.1,4.8,3,6.3c4.3,3.3,10.4,4.5,15.7,5.6s10.8,2.3,16.3,3.2c11.7,1.8,23.6,3.1,35.4,4.1,25.3,2.2,50.6,3.4,76,4.1s51.6,1,77.5.6,49.4-1,73.9-4c6-.8,12-1.7,18-3a52.2,52.2,0,0,0,13.4-4.2c2.9-1.5,6-3.9,4.2-7.5s-7.6-6.1-11.8-7.4c-11-3.3-22.7-4.7-34-6.2s-23-2.9-34.6-3.9c-24.8-2.1-49.8-3.2-74.8-3.2h-18.4c-2.2.1-2.9,2.1-1.9,3.8a8,8,0,0,0,6.4,3.1q35.9-.6,71.5,1.6c22.2,1.4,44.4,3.6,66.4,7.1,5.4.9,10.8,1.7,16,3l3.5,1,1.3.4.9.3c-.4-.1-.6-.2-.1,0l1.3.6c.9.4-.7-.5,0,0s-.6-.8,0,0-.5-.8-.3-.3-.4-.9-.1-.3-.2-.7-.1-.2.2-.4,0,0h-.1a4.6,4.6,0,0,1-.7.7l-.8.6-.6.3-2.6,1.1a72.5,72.5,0,0,1-14.4,3.7c-23,4.1-46.6,4.9-69.9,5.5s-49.2.7-73.8.3-48.2-1.4-72.3-3-45.6-3.2-67.9-7.8l-1.4-.3-1.3-.3-4-.9-3.9-1.1-1.8-.6c.9.3-.6-.3-.8-.4s-.7-.5.1.1h0a2.8,2.8,0,0,1,.6.9s.3.7.1.2-.2.6,0,.3-.2,0,.3-.5a16.9,16.9,0,0,1,5.4-2.6,99.8,99.8,0,0,1,15.4-3c5.8-.8,11.7-1.4,17.6-2,23.9-2.4,48-3.8,72-4.5,12.3-.4,24.7-.6,37.1-.5a294.4,294.4,0,0,1,32.5,1.4c2.3.2,4.7.5,7,.9l3.3.6h.6c-.8-.2,0,0,.1,0l1.7.4c1.6.4,4.6.6,4.7-1.7s-2.8-4.1-4.6-4.6Z"/><path class="c" d="M2038.8,211.7c0,19.4.2,38.8.4,58.2q.3,32.3.9,64.5.6,34.2,1.4,68.2l1.8,70q.9,34.5,1.9,69c.1,2.8.1,5.5.2,8.3s1.7,4.6,3.1,6.1,3,2.6,2.9.3q-1.1-34.3-1.9-68.7l-1.8-70q-.7-34.2-1.4-68.4c-.4-21.8-.8-43.5-1-65.2-.3-19.7-.5-39.4-.5-59.2v-6.7c0-2.2-1.7-4.6-3.1-6.1s-2.9-2.5-2.9-.3Z"/><path class="c" d="M2366.5,213.1c-1,27.7-1.5,55.3-1.6,83-.2,24,0,47.9.3,71.9.2,16.2.4,32.4.5,48.6s.1,34.2.1,51.3q-.3,34.2-.8,68.2c-.1,3.5-.1,6.9-.2,10.4a6.3,6.3,0,0,0,4,5.7c1.8.7,4.6.3,4.7-2.2.4-23.7.7-47.5.9-71.2.1-17.6.1-35.2,0-52.7s-.3-32.1-.5-48.2c-.2-22.6-.5-45.2-.4-67.8,0-27.8.5-55.5,1.3-83.3.1-3.4.3-6.8.4-10.2a6.4,6.4,0,0,0-4-5.7c-1.8-.7-4.6-.3-4.7,2.2Z"/><path class="c" d="M2048.9,559.6c17.7,8.6,37.1,13.7,56.4,17.1,21.3,3.9,43,5.3,64.7,6.4s45.5,1.5,68.3.4a417.9,417.9,0,0,0,65-7.8c19.6-4,38.9-9.7,57-18.3l6.2-3.1c1.8-1,4-3.2,2.9-5.4s-4.3-1.8-6.1-.9c-4,2.1-8.1,4.1-12.3,5.9l-6.5,2.6-.7.3-1.7.6-3.5,1.3a256.9,256.9,0,0,1-28.5,8.1,379.2,379.2,0,0,1-62,8.6,639.4,639.4,0,0,1-66.4.4c-21.5-.9-43.2-2.1-64.5-5.4-19.1-2.9-38.3-7.4-56.1-15.1l-6-2.8c-2.2-1-5.2.3-6.7,2s-1.6,4,.5,5.1Z"/><path class="d" d="M2173.1,365.6c-.6,0-.4-.4-.8-.4s-1.7.9-2.4.9a72.4,72.4,0,0,0-12.4,2.2c-.3,1.6-.4,4-.8,6a12.3,12.3,0,0,0-.8,2.9c-.4,1.9-.9,3.5-1.2,5.1-.6,3.6-2.3,9.8-2.3,13.5l-3.3,22a3.7,3.7,0,0,0-1.5,1.1l-.4-.4c-.5.6-.6,1.2-1.3,1.2s-2.2-1.5-3.4-2.5c.4-.6,1.3-1.2,1.3-1.7.2-3.2.3-6,.5-9.2l.2-5.1c.6-6.1,1.5-12.5,2.2-18.9l2.9-12.5h-2.8c-1.7.2-6.6,1.2-9.8,1.5h-1.1l-.4.4c-.9-.3-2.5.2-3.2.2s-2.9-1.6-3.8-2.1a8.1,8.1,0,0,1-1.9-2.9c-.6-1-.3-2.6-.7-3.6s.1-.8.7-.8l2.5.3c1.2,0,2.2-.1,2.6-.7h.1a.1.1,0,0,0,.1.1c.7.3,1.4.1,2,.4l18.1-2.4a32.7,32.7,0,0,1,4.4-.1v-.3h.4c7.9,0,11.5-.3,21.5,1.9-.2.2-.1.4.1.6s-.1.4-.6.8.5.6.8.7A37.1,37.1,0,0,1,2173.1,365.6Z"/><path class="d" d="M2192.3,411.1c-.4.4-.6.8-.4,1.2a21.5,21.5,0,0,1-3,2.6c0,.1.4.6.6.6-1.6.2-4.4,2.7-5.1,2.7h-3.3c-3.3,0-6.3-6.7-6.3-7.2a31.8,31.8,0,0,0-.2-4.1c-.9,1.5-1.8,2.6-2.7,4.2s-5,7.3-7.4,7.3l-1.7.3c-2.6,0-3.5-1.6-5-2.9s-.7-2-.7-2.4c0-4.9,6.5-15.9,9.2-19.5a23.4,23.4,0,0,1,3.2-3c.8-.3,1.6-1.4,2.4-2s-.1-.5.1-.7,1.3-.2,1.7-.5a2.7,2.7,0,0,0,1-1.1h.6a2.3,2.3,0,0,0,1.4.7l1.2.2c1-1.1.4-1.6,1.4-1.6s.2.6.7.6.1-.2.5-.2a5.7,5.7,0,0,1,3.5,1.6c.3.4.7,1.5.3,1.8s.3-.3.3.3-1.7,5.9-2.3,8.9-1.8,12.2-1.8,12.7.2,1.8.2,2.5a6.2,6.2,0,0,0,2.4-.1c1.2,0,10.1-4.1,10.6-4.4S2192.5,410.6,2192.3,411.1Zm-18.4-14.9c-.3-.3,0-.7,0-.9a64.8,64.8,0,0,0-7,11.3l.5.5c2.5-3.1,4.7-7.6,7-11.4Z"/><path class="d" d="M2213.6,395.9a9,9,0,0,0-3.3,0l-.4-2.4c-3.2,1.2-5.9,5-7.9,8.1,0-.2-.1-.4-.3-.4s-.3.8-.2,1h-.2c-.2.2-.2.3-.2.3s.2.3.2.6-.2.2-.6.2h-.3c-.2.4.3.5.3.6a18.1,18.1,0,0,1-1.9,3c0,.3.3.4.2.5a5.5,5.5,0,0,1-1.4,1.7c-.4.6-.3,1.4-.6,2-1.1,2.2-2.1,4.8-1.4,7a2.1,2.1,0,0,1-1.5.5,8.4,8.4,0,0,1-2.2-.9c-.4-.3,0-1.3-.9-1.1-.6-1.7-1.4-2.9-1.4-4.1s1.3-4.9,1.5-7.1a65,65,0,0,0,1.5-9c.2-1.9.5-4.3.8-6.6a39.7,39.7,0,0,1,.7-4.8h1a4.1,4.1,0,0,1,2.8,2.3,11.1,11.1,0,0,1,.8,3.5c.1.9-.2,1.6-.2,2.8.8-2,5.2-5.4,7.8-5.4a11.1,11.1,0,0,1,7.6,3.6c.4.4.5,1.1.9,1.8S2213.3,395.1,2213.6,395.9Z"/><path class="d" d="M2237.7,399.1c-2.8,13.5-3.5,18.8-5.7,26.8-.6,2.8-1.2,6.9-2.4,10.1s-2.6,6.6-3.5,9.7c-.1.6-.7.9-1,1.2s-1,3.2-1.9,4.2-2.1,2.4-3,3.4a4.8,4.8,0,0,1-2.3,1.4c-.5,0-1,.3-1.6.3l-2.8-.3c-.2-.1,0-.2-.3-.5a11.3,11.3,0,0,1-2.9-1.5c-.6-.4-1.7-1.6-2.7-2.5a11.4,11.4,0,0,0-.6-1.5c-.4-.7-3.4-4.9-3.4-6.3l-.3-6.7c0-.2.7-2.4,1-3.4l.4.5c0-.3.6-1,0-1.4,1-1.1,1.9-3.1,2.9-4.5a11.3,11.3,0,0,1,1.9-1.9c-.6.6-.7,1.4-1.3,2.5h.3c.2,0,.4-.2.6-.8s.4,0,.4.6-1.7,3-2,4.2h0c0,.1,0,.2.1.2a2,2,0,0,0,.6-1.1c0,.8-.6,1.6-.7,2.3l-.4-.3h0c-.1.3,0,.5.4.7s-.3.4-.4.6-.4,3.5-.4,4.1a30.7,30.7,0,0,0,.7,3.6c0,.5,3.4,8,4.7,8s.4.1,1,.1a4.8,4.8,0,0,0,2-.5c.6-.1,1.3-1.9,2-2.7a16.3,16.3,0,0,0,4-6.9c.3-.6.4-1.1.7-1.7,4.5-10.4,6.5-26.4,7.7-34.4-.2-.2.4-1,.4-1.4h0c-.4.2-.7.8-1.2,1.4a1.7,1.7,0,0,0,.3-1.2c-1.3,1.9-3.1,3.7-3.7,4.7a2.7,2.7,0,0,0-.2,1.2,33,33,0,0,1-5.2,6,40,40,0,0,1-2.9,3.2c0,.2.1.4.1.6a6.7,6.7,0,0,1-1.9.6,10.4,10.4,0,0,1-3.3-1,7.4,7.4,0,0,0-.9-1.2c0-.2,0-.3-.1-.4s-.9-1.9-1.1-3.3c0-4,3.2-10.2,5.2-13.1,6-8.6,8.8-15.4,15.7-15.8.4,0,1.3,1.6,1.9,2.1s-.1,1.1.2,1.4,2.7,1.3,3.9,2,1.7,1.7,1.8,3S2238.1,397.2,2237.7,399.1Zm-8.6-5c-.2,0-.1.3-.4.6s-.4-.4-.7-.3v-.9l-.3.4a1.7,1.7,0,0,1-.1-1.4,26,26,0,0,0-2.9,4.2,40.7,40.7,0,0,1-2.5,3.5c-1.6,3.1-3.4,7.3-4.8,10.3,2.2-2.2,4.6-5.1,6.2-7,.3-.3,5.6-7.3,5.6-8.8Zm-2.7,13.6-.9.9v-.2l.8-.9Zm2.2-2.6-1.7,2.2-.2-.2,1.6-2Zm.5-1.5c.7-.3,1.3-.5,1.2-1.3S2229.5,403.4,2229.1,403.6Z"/><path class="d" d="M2262.2,412.5c0,.4.3.6.9.8a6.7,6.7,0,0,0-.9,1.9c-1.4-.3-2.1,1.5-2.1,2.7a7.8,7.8,0,0,1-3.1.5c-.4.3,0,.3.3.3s-2.1.8-3,.9v.3s0,.1-.3.1-3.3-1.6-3.5,0l-.9-1.2c-2.3-.5-2.9-1.1-4.9-3.3s-.8.8-2.3-5.6a12.5,12.5,0,0,1,.7-6.2,39.1,39.1,0,0,1,2.7-7.1,49.8,49.8,0,0,1,2.6-5.1,24.3,24.3,0,0,0,2.1-2.9c1.2-1.1,1.4-1.9,3-2.8s2.4-.8,2.1-1.7-.1.1-.1.2,0,.2.3.2-.2-.2.5-.2,1.5.7,2.2.9,0,1.5.6,1.5,0-.2.5-.2.7.4,1,.7c0,3.4,1.6,1.6,1.6,3.7a58.1,58.1,0,0,1-1.5,6.5,43.3,43.3,0,0,1-3.7,5.3c-2.3,2.8-6.9,7.4-6.9,8.1s1.4,1.6,2.4,2a6.3,6.3,0,0,0,2.3.3c.9,0,1.5-.8,2.8-.3l5.8-1.7a1.1,1.1,0,0,0,.8.3C2263.3,411.7,2262.9,412.3,2262.2,412.5Zm-11.1-13.9c-.9,1.7-1.5,2.8-1.6,3.1l-.4,2.2c1.2-1.6,2.4-3,3.4-4.5s3.1-3.9,3.5-7.1C2253.9,393.5,2253.1,395.1,2251.1,398.6Z"/><path class="d" d="M2294.3,391.2c0,.3.1.3.4.3s-1.1.6-.2,1.3l-2.7,1.3c0,.3.3.4.6.6s-2.5,1.8-4.1,2.1-1.2,1.9-1.8,1.9.1-.2-.2-.4-.4.2-.4.7a55.7,55.7,0,0,0-5.5,1.7c-.2.1,0,.3,0,.5h-.6l-3.7,1.2-.6,1a8,8,0,0,0-2.4,1.3c-.6,2.6-1.5,7.7-1.5,8.2s.8,3.6.8,4-.9,1.1-.9,1.9h-1.3c-.6,0-.7-.9-1-1.3-2.5-2.2-2.1-4.2-2.4-6.2s.3-4.3.3-8.2c0-.6-2.3-3.2-2.3-3.7s.4-2,.4-3.2.4-.5.4-.6a2.9,2.9,0,0,1,1-.3c.6,0,.1.2.7.2s1-.6,1.1-1.2c.9-2.4,1.9-9.9,2.7-13.3s2.1-7.1,3.1-10.7c.4-1.7,1-4,1.7-6s.7-4.2,2.3-5.2a2.2,2.2,0,0,1,1.3-.6c.7,0,1.2,1.3,1.8,1.3h.6v.4c0,.7,1.6,3.1,1.6,3.8a10.8,10.8,0,0,1-1,3.4,3.2,3.2,0,0,1,.2,1.3c-1.6,5.5-3.2,10.8-4.8,15.8-.4,2.2-1,4.7-1.6,7v.4c.5.4.8.2,1.6.2a3.7,3.7,0,0,1,1.6-.2c.6,0,.1.4.8.4s1.2-.4,2-.5a117.6,117.6,0,0,1,12.6-1.4C2294.9,390.7,2294.6,390.9,2294.3,391.2Z"/></svg>