<svg xmlns="http://www.w3.org/2000/svg" viewBox="0 0 1920 1080"><defs><style>.a{fill:#fff;}.b,.c{fill:#c7e6c4;}.b{opacity:0.35;}.d{fill:#5ab552;}.e{fill:#ddeefd;}.f{fill:#0d47a1;}</style></defs><rect class="a" width="1920" height="1080"/><rect class="b" y="704" width="1920" height="376.01"/><polygon class="a" points="457.2 755.4 464.9 922.2 584.6 945 614.5 948.6 726.1 971.2 853.3 990 880 996 1033.4 1020.4 1049.6 1014.1 1152.9 992 1152.9 799.3 1156.8 594 1152.9 594 1151.6 583 1155.9 583.6 1156.6 399.5 1052 390.4 896.7 382 875.2 385.9 732.9 382.7 726.1 572 583 579.3 581 612.7 579.4 726.4 579.4 735.3 469.9 749.6 457.2 755.4"/><path class="c" d="M1069.5,634c-1.4,14-5,27.6-5.9,41.7l-2.8,41.8c-1,13.6-1.9,27.1-2.6,40.7-.3,6.9,1,14,1.6,20.9s.2,16.3,4.5,22.6,12,5.9,16.2,0,3.9-13.4,4.8-20.1,2.6-14.9,2.8-22.4c.4-13.8-.5-27.8-.9-41.7l-1.1-40.8c-.5-14.3-3.5-28.4-4.4-42.7-.5-7.9-11.4-7.7-12.2,0Z"/><path class="c" d="M1060.9,622.4c-2.5,7.9-5.5,15.9-7,24s-5.6,20.8,2.2,28.6a11.5,11.5,0,0,0,15.9,0c7.5-6.9,4.5-17.7,3.8-26.6s-2.3-16.2-3-24.4c-.5-6.7-9.8-8.5-11.9-1.6Z"/><path class="c" d="M1050,624.1c-5,30.3-8.7,60.7-12,91.2a423.3,423.3,0,0,0-1.9,45c0,9,0,17.7,1.4,26.6.5,3.3.9,6.6,1.6,9.8,1.5,6.9,5.8,11.8,10.2,16.9s12,6.9,18.5,6,11.9-4.7,16.1-10.5c2.9-3.9,5.1-7.4,6.2-12.4s1.4-11,2-16.3c.9-6.9.2-14,.2-20.9.1-14.8.3-29.4-.5-44.2-1.6-28.8-2.7-57.6-5.9-86.3-1.1-9.2-6.2-16.7-15.9-18-8.2-1.1-18.5,4.1-20,13.1Z"/><path class="c" d="M1054.8,611.8c-1.4,3.1-3,6.2-4.5,9.2s-2.7,8.1-3.5,12.6a246.3,246.3,0,0,0-3.6,25.8c-1,15.7-1.8,31.5-2.3,47.3s.4,31.4,1.6,47.2c.7,8.9,2.3,17.8,3.7,26.6.8,5.1,1.3,9.9,3.9,14.6s7,8.1,11.5,11.4,14.5,2.3,18.7-2.4,7.1-8.3,8.5-13.2,1.2-10.2,1.1-15.4c-.2-7.5,0-15.1-.6-22.6-1.2-15.4-2-30.8-3.8-46.2s-3.4-30.2-4.7-45.3c-.8-8.8-2.2-17.3-3.6-26-.6-3.7-1-7.6-2.3-11.1s-3.2-6.9-4.7-10.5c-2.3-5.9-12.1-9.4-15.4-2Z"/><path class="c" d="M1094.2,643.5c1.6-3.1-2.3,1.3-.4.2a16.7,16.7,0,0,0,2.8-2.5l-39.2-22.9c-.6,1.5-1.2,3-1.7,4.6s-2.1,12.5-.8,4.7c-.8,4.6-1.3,9.2-1.9,13.8-.8,6.3-1.6,12.5-2.3,18.8-1.5,12.9-3,25.7-3.1,38.7-.1,25.4.5,50.9,1.5,76.3.7,16.9,14.4,33.1,32.3,32.3s32.6-14.2,32.4-32.3c-.4-25.4-1.4-50.8-1.3-76.2,0-12.3-.4-24.6-.3-37,0-6.5.1-12.9.3-19.4a23.6,23.6,0,0,1,.2-3.9c-.5,3.1-.6,3.7-.2,1.8l.3-1.9c.6-3.5,1.3-7,1.9-10.5l-49.6-13.7c-3.8,27.4-6.7,54.7-8.2,82.3-.7,12.6.8,25.6,1.9,38.2,1.2,14.9,2.8,29.4,6.6,43.9,3.2,12.1,15.5,19.6,27.6,18s23.1-12.2,21.8-24.7.1-25,.2-37.2.5-25.5.9-38.2l.3-8.8c0-1.6.2-3.3.1-4.9-.2-3.2-.7,4.3.1-1.4s1.7-12.2,2.6-18.3c1.9-12.6,4-25.1,6.3-37.6l-44.6-6c-2.8,24.4-5.6,49-6.9,73.6-.7,12.1-.4,24.2-.3,36.3,0,15.7,1,35.5,17.4,43.2,8.7,4,17.9,4.3,25.8-1.8s11-15.5,8.3-24.5l-.9-3.1c.6,2.5.8,2.6.8,0a50.7,50.7,0,0,0,.3-5.5,116.3,116.3,0,0,0,.1-13.2c-.5-9.2-2.7-18.5-4.9-27.4s-16.9-9.4-19.9,0c-2.4,7.8-5.6,15.2-8.3,22.9-1.3,3.6-2.4,7.2-3.7,10.8l-2.1,5.4c-.4,1.2-.9,2.3-1.4,3.5,3.1-4.9,3.5-6.1,1.1-3.7l39.8,16.5a42.9,42.9,0,0,0-1.7-11.3l-.8-2.9c-.8-2.9.3,5.8.3,1.3l.3-15.1c.4-11.8,1.3-23.6,1.2-35.3q-.2-34.9,1-69.7c.3-11.9-10.8-23.3-22.8-22.7s-21.4,10-22.7,22.7-2.3,24.6-3.1,37q-.7,9.8-1.2,19.5a25.5,25.5,0,0,0-.2,3.9c-.1-3.4,0,.4-.1,1.4-.5,3.2-.9,6.4-1.4,9.6-1.8,13.6-3.6,27.2-5.2,40.8-.8,6.2-1.5,12.4-2.3,18.6-.3,3.3-.7,6.6-1.1,9.8-.2,1.3-.3,2.7-.5,4s-1.6,7.2-.2,1.1l49.4,6.7c.6-6.2,1.5-12.4,1.4-18.6s-.2-12.4-.2-18.6c0-12.7,1-25.5.4-38.2-1.3-25.1-1.5-50.3-.7-75.4.4-13.5-12.2-26.3-25.8-25.7s-24.5,11.3-25.7,25.7c-.3,3.2-.5,6.4-.7,9.7-.2,1.6-.3,3.2-.4,4.8-.1,3.5,1.2-5.9-.1.1s-2.2,12.7-3.2,19c-2.3,14.3-4.5,28.7-5.8,43.2-2.2,25.6-3.9,51.4-4.9,77.1h64.7c-2.1-25.4-3.3-50.9-3.9-76.3-.3-12.6-1.6-25.1-2.6-37.7-1.2-14.2-1.1-29-4.6-42.9-2.5-9.6-12.6-17.7-22.7-17.2s-20.6,6.9-22.6,17.2c-1.7,8.7-.8,17.7,4.4,25.2,3.9,5.5,9.2,9.2,16.2,9.2s13.2-3.5,16.2-9.2Z"/><path class="c" d="M1094.7,636.2c-1.2,4.3-2.6,8.7-3.5,13.1s-1.4,11.7-2,17.5c-1,9.2-1.8,18.3-2.4,27.5s-1.2,19.1-1.5,28.6c-.2,4.2-.5,8.5-.4,12.8,0,6.3,1.4,12.7,2.3,18.9.6,4.1,1.2,8.3,1.9,12.4,1.4,9.2,7.1,16.2,16.2,18.9,5.1,1.5,10.3.3,15-2.3s8.9-7.6,10.1-12.8a91.1,91.1,0,0,0,1.1-10.5c.7-9.5,2.2-19,1.8-28.6s-.6-18.3-.7-27.5,0-20.4.3-30.5c.1-5.3.3-10.5.5-15.7s-.5-11.2-.9-16.7c-.7-9.6-6.8-17.6-16.7-18.9a19.3,19.3,0,0,0-21.1,13.8Z"/><path class="c" d="M1105.1,618c-2.7,24.8-5.2,49.6-7.3,74.4-1,12.3-.9,24.5-.8,36.8a153.1,153.1,0,0,0,.7,17.9c.5,5.4.9,10.7,4,15.4s5.6,6,9.2,8.2a13.5,13.5,0,0,0,13.7,0c7.8-4.4,11.8-10.5,13.1-19.2,1-7.1,1.6-14.1,1.9-21.3.6-12.6,1.6-25.2,1.4-37.8q-.6-37.2-.3-74.4c.1-9.3-8.2-18.2-17.8-17.8s-16.7,7.8-17.8,17.8Z"/><path class="c" d="M1114.7,631.1q-5.1,35.4-8.7,70.9c-1.2,11.1-2.7,22.4-3,33.5s.5,23.7.9,35.5,9,20.7,20.1,20.2,20-8.9,20.2-20.2.6-22.3.9-33.5-.8-23.1-1.2-34.5q-1.1-34.1-.6-68a14.5,14.5,0,0,0-12.6-14.3c-6.4-.8-14.9,3.2-16,10.4Z"/><path class="c" d="M1126.2,595c-2.9,23.4-5.2,46.8-7.3,70.3-2.4,26.7-5.4,53.5-5.4,80.3,0,12.5-.1,25,.4,37.5.4,10.5,9,20.6,20.1,20.1s19.9-8.8,20.2-20.1c.5-23.8,1.5-47.6,1.1-71.4-.5-26.7-.7-53.3-.6-80,.1-12.3.2-24.5.6-36.7.2-7.9-6.9-14.6-14.5-14.6s-13.6,6.8-14.6,14.6Z"/><path class="c" d="M1040.2,828.8c-.4,2.9-.4,6.3-1.8,9s-3.3,4.8-4.1,7.8c-1.7,6.3-1.7,13.6-2.4,20.1-1.5,13-1.5,25.7-1.5,38.8s-.8,25.2-.2,37.7,1.2,25.9,1.1,38.8c-.2,10.8,9.5,21.1,20.6,20.6s20.3-9,20.6-20.6.7-25.2.6-37.8-2.1-25.9-3.7-38.7-3.1-26.9-6.6-40c-1.5-6-2.8-12.1-4.7-18-1.2-3.8-3.3-6.2-5.7-9.3s-2.3-5.5-3.1-8.4-8.4-4.8-9.1,0Z"/><path class="c" d="M1048.6,817c-.6,24-.8,47.9-.4,71.9q.3,17.7.9,35.4c.4,11.9,2,23.6,3.4,35.3,1.8,13.8,4.1,41.9,23.6,41.3,16.4-.4,19.6-19.3,19-32.4-1.1-23.7-4.2-47.2-6.8-70.7q-4.3-40.3-6.9-80.8c-.5-8.5-7.2-16.8-16.4-16.4s-16.2,7.2-16.4,16.4Z"/><path class="c" d="M1060.3,821q-2.4,38.8-1.9,77.8c.2,12.7.2,25.5,1.2,38.2.7,8.3,2.3,16.7,3.6,24.8s2.2,12.8,4.7,19c4.7,11.8,14.2,19.8,27.5,18s20.6-12,21.8-24.6c.6-6.7-.1-12.9-.7-19.6s-1.1-14.2-2.1-21.2-2.2-14.1-3.3-21.1l-1.5-9.6c-.2-1.6-.4-3.3-.7-4.9s-1.2-6,0,0c-2.5-12.2-3.1-25.1-4.3-37.4s-2.3-26.2-3-39.4c-.7-10.8-9.1-21.1-20.7-20.6s-19.9,9-20.6,20.6Z"/><path class="c" d="M1071.9,816q-2.4,44.3-3.4,88.5c-.2,7.3-.7,14.6-.3,21.9s1.2,14.6,1.8,21.8c1.6,19.1,1.2,43.7,20,54.6,8.8,5,17.7,2.5,25-3.2,9.1-7.2,11-19.6,11.9-30.5.6-7.2-.2-14.7-.3-21.9s-.1-14.5-.4-21.8-1.4-14.6-2.1-21.9q-4.2-43.7-7.2-87.5c-.8-11.7-9.8-23.1-22.5-22.5s-21.8,9.9-22.5,22.5Z"/><path class="c" d="M1089.7,828.1a649.9,649.9,0,0,0-9.1,73.5c-.8,11.6-1.1,22.8.2,34.3.9,7.5,1.9,14.9,2.9,22.4s1.6,15.5,5.8,22c5.3,8.2,14.1,12.8,23.9,11.4a24.2,24.2,0,0,0,20-17.2c2.2-6.9.8-13.9.3-21s-.9-11.7-1.2-17.6-.7-14.4-1.7-21.6c-.1-.7-.1-3.4-.6-3.8.5,3.2.5,3.8.3,1.9l-.3-2c-.3-2.9-.7-5.9-1-8.8a605.6,605.6,0,0,1-3.6-68.7c.1-9.1-7-16.7-15.8-17.9s-18.5,4.1-20.1,13.1Z"/><path class="c" d="M1095.4,820c-2.2,23.7-4.7,47.5-4.1,71.2.3,11.6.6,23.1,1.1,34.6.3,7.9,2.1,15.5,3.8,23.2,2.3,10.9,5.4,19.9,15.4,26.2s21.2,3.1,29.1-3.7,8.9-18.5,9.8-28.9c.4-5.5,1.3-11.2.8-16.8-.9-11.8-1.7-23.7-2.4-35.5-1.4-23.5-5.1-46.9-7.6-70.3-.7-6.3-2.1-11.6-6.7-16.2s-10.6-7-16.3-6.8c-13.3.6-21.8,10.1-22.9,23Z"/><path class="c" d="M1120,814.9c-4.5,21.3-9.8,42.5-14,63.9a306.9,306.9,0,0,0-4.8,37c-.8,14.1-2.6,34.3,8.7,44.5,5.8,5.3,12.5,7.7,20.3,6.7s12.9-5.3,17.6-11.6,4.1-16.1,3.6-24.4c-.3-5.1-.7-10.1-.9-15.2l-1.2-33c-.7-21.3-.4-42.7-.8-64a14.5,14.5,0,0,0-12.6-14.3c-6.7-.8-14.4,3.2-15.9,10.4Z"/><path class="c" d="M1042.1,1015c3,.6,6.3,1.5,9.3,1.4s6.8-1.2,10.1-2l15.5-4.2c4.9-1.4,9.6-3,14.4-4.9l8.4-3.3c4.7-2,7.7-5.7,10.4-10l-5.8,5.8,11.1-7.4c4.7-3.2,7.4-8.8,5.9-14.5s-6.9-9.9-12.4-9.3c-3,.2-6.1.4-9.1.9-.8.1-2.7.5-.8.4-2.9.1-5.8-1.1-8.8-.7-7.1,1-14.8,4.2-21.3,6.9l-3.5,1.5c-5.5,2.4,1.5-.6-1.7.7l-7.9,3.3-9,3.6a31.5,31.5,0,0,0-11,8.1c-6.9,7.2-4.7,21.6,6.2,23.7Z"/><path class="c" d="M1151.8,966.2c-1.7-12-15.7-19.1-26.2-19.5a47.2,47.2,0,0,0-10.6,1.2c-3.9.7-7.8,1.6-11.7,2.5-5.7,1.4-11.1,2.8-16.2,5.9s-7.2,4.6-10.6,7.1c-10.1,7-15,18.7-10,30.5s16.6,16.2,28.8,14.1c1.7-.3,5.6-1.7,7.3-1.2-4.1.6-4.6.6-1.8.3l9.1-1.2c4.1-1.4,8.1-3.2,12.2-4.7s11.5-3.4,16.5-6.5a27.8,27.8,0,0,0,13.2-28.5Z"/><path class="c" d="M1049,853.9c2.6.8.8,0-5.3-2.2a30.7,30.7,0,0,0,8.2,3.3c4.2,1.1,7.8.9,11.9,1.4l-8.6-1.2c14.9,2.4,31.4.9,46.4-1.1,6.9-.9,13.2-3.1,19.8-5.1,4.7-1.5,9.5-2.9,13.8-5.4,8.7-5,13.8-11.8,16.9-21.5l-6.4,10.9,2-2.2c10.1-11.5,7.7-26.4-4.5-35l-2.5-1.8,8.9,8.9c-5.4-8.7-13.1-15.2-23.5-16.8a159.5,159.5,0,0,0-18.2-1.5,122.4,122.4,0,0,0-28.9,3.1c-7.5,1.5-15.3,2.6-22.7,4.5s-18.7,9.5-23,17.1-5.3,16.4-3.5,25.5,10.4,16.7,19.2,19.1Z"/><path class="c" d="M1049.5,412.1c-2.2,37.8-6.5,75.5-6.7,113.2-.3,42.4-.7,84.8-.8,127.2,0,10.5-.1,20.8.7,31.2.6,6.6.6,14.1,2.5,20.3,1.4,4.1,3,8.3,4.5,12.4,3,8.1,10.2,15.2,19.5,14.8s16.3-6.1,19.4-14.8c1.3-3.6,2.6-7.3,3.8-10.9,2.1-5.8,2.2-12,2.8-18.1.8-9,1.2-17.8,1.3-26.7.2-20.5.6-40.9,1-61.4s.8-43.3,1.1-65c.2-10.8.9-21.7.3-32.6s-1.1-19.8-1.7-29.7c-1.1-20-2.2-39.9-3.7-59.9-.8-11.4-9.5-22.6-22-22s-21.3,9.7-22,22Z"/><path class="c" d="M1088.2,417.9c-.6,3.7-1.2,7.5-1.7,11.3-.3,1.5-.4,3.1-.7,4.7s-.2,1.2.5.5a6.7,6.7,0,0,0-1.9,2.8c-1.3,3.1-1.2,7.2-1.7,10.5l-1.5,11.7c-2,14.7-4.1,29.3-3.8,44.2s.5,28.8,1.8,43.2c.2,1.9.3,3.9.5,5.9a22.3,22.3,0,0,0,5.6,13.6l-2.2-3.2.6,2.8c.3,1.6.7,3.2,1.1,4.8,1.8,8,2.5,18,9.3,23.5s13.5,4,18.4-2.3,3.6-15.8,3.8-23.6c0-1.9.1-3.9.1-5.8s.1-2,.1-3-.2-1.3-1,2.9c3.3-4.5,2.6-10.5,2.1-15.6-1.3-14.8-3.3-29.4-4.7-44.2s-5-29.7-7.9-44.5l-2.1-10.4c-.6-3.4-.8-7.3-2.2-10.5-.2-.6-2-4.3-1.3-2.4a36.9,36.9,0,0,1-1.1-5.6c-.7-3.8-1.3-7.5-2-11.3s-7.5-4.1-8.1,0Z"/><path class="c" d="M1100.2,420c-2.1,17.8-5,35.6-6.7,53.5s-2.1,35.7-3.2,53.5a268.1,268.1,0,0,0,2.5,58.7l3.9,24.6c.7,4.4,1.2,8.8,2.1,13.2a26.8,26.8,0,0,0,2.9,8.2c3.4,4.3,4,5.2,2,2.8l1.5,3.1c4.7,10.1,21,9.4,25.9,0l2.4-4.7-6.4,6.4c6.5-4.9,9.6-9.9,11.2-17.7l2.6-13.2,4.9-24.6c3.8-19.1,4.5-38.4,4.1-57.8-.3-17.5-.2-35.1-1-52.5s-3.2-35.7-4.6-53.5c-.9-11.5-9.5-22.6-22.1-22.1s-20.5,9.8-22,22.1Z"/><path class="c" d="M1119.1,401.4a48.1,48.1,0,0,0-4,6c-2.9,5.6-3.9,10.6-4.6,16.8s-1.4,12.6-2.2,18.9c-1.7,14.1-3.5,28-3.9,42.2s-1,28.5-1.4,42.8a385.1,385.1,0,0,0,.9,41.6c.4,5.5.3,11.7,2,16.9.8,2.3,2,4.4,2.9,6.6s-.9-4.4-1.1-1.8.7,3.5,1,5c1.9,10.4,2.6,21.2,12.6,27.3,5.3,3.3,13.5,3.7,18.8,0s9.1-8.3,10.1-14.9c.5-3.2,1-6.4,1.6-9.6.2-1.5,2.1-7.2,1.4-8.5s-2.5,4.5-1.2,2.5a27.7,27.7,0,0,0,3.1-7.3,63.8,63.8,0,0,0,1.3-10.7c1.1-14.1,2.2-28,2.2-42.1s-.2-28.5-.2-42.8c-.1-7.1.3-14.5-.4-21.5s-1.6-14-2.4-21-1.8-14.8-2.8-22.1-1.4-11.5-4.4-17.2c-1.9-3.7-4.6-6.8-7.2-9.9-6.4-7.7-17.2-3.7-22.1,2.8Z"/><path class="c" d="M1050.8,399.9c5.8,3,11.7,3.7,18,4.7s9.8,1.9,14.8,2.5l10.3,1.3,1.9.2h.8l4.2.6c6.6.9,13.4,2,20.1,2.6,4.5.4,9.1.6,13.6.7s6.4-.3,9.6-.4,6.7.1,9.9-1.7,3.5-5.8,1-7.8c-4.5-3.6-12-4.4-17.7-5.4s-9.4-1.3-14.1-2c-6.7-.9-13.5-1.4-20.3-2.2s-12.2-1.5-18.3-2c-4.4-.3-8.8-.3-13.2-.3-6.7-.1-13.1-.6-19.6,1.4-3.2,1.1-4.4,6-1,7.7Z"/><path class="c" d="M1089.5,398.3l6.9,7-27.1,35.2c5.7,1,11.3,2.5,17.2,2.9s9.6.6,14.4,1.2c.9.1,4.9.6.5,0s-.3,0,.6.1l7.3,1.2c4.6.8,9.2,1.8,13.8,2.8,13.8,3.1,30.1-4.2,33.4-19,3.1-13.3-4-30.7-18.9-33.4-21.9-4-46.6-8.7-68.3-2a23.9,23.9,0,0,0-17.2,19.9c-1.3,9.2,3,19.3,11.4,23.9a27.1,27.1,0,0,0,8,3.1c11.6,1.9,22.8-2.1,27.6-13.6s0-22.4-9.6-29.3Z"/><path class="c" d="M1143.1,991.2l55.9-4.9c18.9-1.7,37.8-5.4,56.5-8.2,36.8-5.5,73.6-10.9,110.5-15.8,6-.8,12.3-.9,17.7-3.6s9.3-3.3,14.1-4.6l31.4-8.9c5.5-1.6,4.6-10.5-1.3-10.2l-27.5,1.5-13.8.7a36.2,36.2,0,0,1-5.7-.1,32.4,32.4,0,0,0-10.3.4c-18.5,3.4-36.9,7.6-55.5,11-36.8,6.9-73.6,13.4-110.5,20.1-21,3.9-41.8,10.1-62.5,15.2-4,1-3.3,7.7,1,7.4Z"/><path class="c" d="M1041.1,1014.2l55.9-4.9c18.9-1.7,37.8-5.4,56.5-8.2,36.8-5.5,73.6-10.9,110.5-15.8,6-.8,12.3-.9,17.7-3.6s9.3-3.3,14.1-4.6l31.4-8.9c5.5-1.6,4.6-10.5-1.3-10.2l-27.5,1.5-13.8.7a36.2,36.2,0,0,1-5.7-.1,32.4,32.4,0,0,0-10.3.4c-18.5,3.4-36.9,7.6-55.5,11-36.8,6.9-73.6,13.4-110.5,20.1-21,3.9-41.8,10.1-62.5,15.2-4,1-3.3,7.7,1,7.4Z"/><path class="c" d="M1093.3,987.7l56-4.9c18.9-1.6,37.7-5.3,56.5-8.1,36.8-5.5,73.6-10.9,110.5-15.8,5.9-.8,12.3-.9,17.7-3.6s9.3-3.3,14.1-4.6l31.4-9c5.4-1.5,4.6-10.4-1.4-10.1l-27.5,1.5-13.7.7a36,36,0,0,1-5.7-.1,32.4,32.4,0,0,0-10.3.4c-18.5,3.4-37,7.5-55.5,11-36.8,6.8-73.7,13.4-110.5,20.1-21,3.8-41.8,10.1-62.6,15.2-4,1-3.3,7.7,1,7.3Z"/><path class="c" d="M1142.2,972.9c4.2-1.6,9.2-1.5,13.6-2l10.8-1.1c7.2-.8,14.4-1.4,21.7-2.1,14.6-1.3,29-2.7,43.4-5.7,29.2-6.2,58.4-12.1,87.8-17.4,2.4-.4,1.3-4-1-3.6-29.6,4.5-59.3,8.5-89,12.2a168,168,0,0,0-20.9,3.3l-21.2,5.2c-7,1.7-14.1,3.5-21.2,5.1l-10.6,2.4c-4.3,1-9.1,2.8-13.5,2.7-.8,0-.6,1.2.1,1Z"/><path class="c" d="M1080.1,971.5c12.7-2.1,25.3-3.9,38-5.3,5.9-.7,11.6-1,17.3-2.6l18.4-4.7c3-.7,2.4-5.6-.8-5.5-6.3.2-12.6.6-18.9,1s-12,2.1-18,3.8c-12.3,3.5-24.4,7.3-36.5,11.5a.9.9,0,0,0,.5,1.8Z"/><path class="c" d="M1076.3,972.2c8.6-1.8,17.2-3.4,25.9-4.6,4.6-.6,9-1,13.5-2.3s8.3-2.5,12.6-3.6,4.7-8.3,0-9.1l-14.6-2.1a54.7,54.7,0,0,0-13.4.3q-14.4,1.5-28.8,4.2c-11.1,2.1-6.5,19.6,4.8,17.2Z"/><path class="c" d="M1322,938.5l8-1c.6-.1.6-1.1,0-1l-8,1c-.6.1-.6,1.1,0,1Z"/><path class="c" d="M1064.3,963.5c4.5,1.2,9.6,3.2,14.3,3.4s9.3-.8,13.7-1.1,9.2-.6,13.8-1.2,9.2-2.2,13.7-3.4c19.2-5.1,38.1-9.7,58-11.1s38-2.4,57-3.3l28.6-1.4c9.9-.4,19.4-2,29.2-3.6,6.9-1.1,5.1-12-1.6-12a223.6,223.6,0,0,0-29.5,1.8l-27.2,4q-28.6,4.2-57.3,8.7c-19.4,3.1-38.6,3.1-58.2,2.8-4.8-.1-9.8-.5-14.7.1s-9.3,1.6-13.9,2.4-9.4,1.2-13.6,2.5-8.8,4.7-12.9,7.1a2.4,2.4,0,0,0,.6,4.3Z"/><path class="c" d="M1067.8,952.7q109-13.5,219.1-17.1l30.5-.8c4.9,0,9.9.1,14.8-.2s10.9-1.7,16.3-2.7,5.4-10,0-10.8-8.8-1.5-13.2-2.1-9.3-.2-13.9-.1l-27.6.7c-18.1.6-36.2,1.4-54.2,2.4q-55.2,3-110.1,8.6-30.9,3.1-61.7,7.1c-4,.6-7.5,3.1-7.5,7.5s3.4,8,7.5,7.5Z"/><path class="c" d="M1090.2,975.1q33.1-5,66.4-8.8c21.8-2.6,43.4-5.8,65.1-8.6q65.7-8.4,131.8-13.3l36.2-2.5c6.2-.3,12.7-.2,18.8-1.3s12.5-2.7,18.7-4,3.6-8.6-1.2-9.2l-15.7-1.8c-5.9-.6-11.7-.1-17.6.2l-33.3,2.2q-33.3,2.4-66.5,5.7c-43.8,4.3-88.2,8.8-131.5,17q-36.9,7.2-73.7,15.3c-6,1.4-3.3,9.9,2.5,9.1Z"/><path class="c" d="M1387.1,374.6c-1.1,2.9-2.3,6.1-2.4,9.3s.1,6.6,1.8,8.7a3.3,3.3,0,0,0,5.6,0c1.4-1.9,1.9-5.1,2.4-7.4s.8-5.4,1.5-8.1c1.6-5.9-6.9-8-8.9-2.5Z"/><path class="c" d="M1386.2,369.2c-5.4,12.3-9.8,27-7,40.4,1.3,6.4,10.4,5.5,12.2,0,3.7-11.4,4.5-23.4,8.4-34.7,2.8-7.8-10.2-13.5-13.6-5.7Z"/><path class="c" d="M1385,407.8c5.9.2,14.3-.2,16.7-6.5.8-2-.5-4.5-2.2-5.6-4.2-2.5-9.9.4-14.5.6-7.4.3-7.4,11.3,0,11.5Z"/><path class="c" d="M1404.9,403.8c1-10.1,8.5-21.3,4.2-31.1-1.6-3.7-6.3-3.9-9.4-2.5-5.5,2.5-7.7,10.3-8.7,15.8a88.2,88.2,0,0,0-1.9,17.8c.2,10.3,14.8,9.9,15.8,0Z"/><path class="c" d="M1257.1,300.5c3,.4,5.6.8,8.4-.6a62.5,62.5,0,0,0,6-4,164.7,164.7,0,0,0,13.5-10.2l12-9.8a47,47,0,0,0,5.8-5.1c2.9-3,3.3-5.7,3.7-9.6l-1.1,4.1a23.8,23.8,0,0,0,2.8-7.7c.4-3-2.9-5.3-5.5-5.5a10.3,10.3,0,0,0-3.9.6c-2.9,1.1,2.2.2-1.3.3s-6.8,1.3-10.2,3.9-9.3,7.7-13.8,11.5a166.8,166.8,0,0,0-12.7,11.2c-4.3,4.4-8.5,7.7-8.8,14.3-.1,2.7,2.2,6.3,5.1,6.6Z"/><path class="c" d="M1266.4,286.7c1.2,1.6,1.1,1.4-.5-.6a5.5,5.5,0,0,0-2.7-1.7,9.1,9.1,0,0,0-3.7-.8,10.1,10.1,0,0,0-7.5,3.2,20.8,20.8,0,0,0-4.6,7.7c-1.1,3.2.8,7.5,3.7,9a8.3,8.3,0,0,0,9.8-1.2,7.6,7.6,0,0,1,.9-.9c0,.1-1.7,1.3-.7.6l1.9-1.3a10.5,10.5,0,0,0,4-4.1c1-2.3,1.8-4.6.9-7.2v3.3c.3-2.1.2-4.6-1.6-6Z"/><path class="c" d="M1246,306.3c3.8,4.6,11.8,5.5,17.4,7s13.6,3.7,20.5,5.2,12.9,2.9,19.3,4,16,3.5,18.2-4.8-7.5-10.4-13.6-11.7l-19.3-4.2c-6.6-1.6-13.3-3-20-4.5s-13.7-4.5-19.5-2.5-6.5,7.4-3,11.5Z"/><path class="c" d="M1310.6,357.6c6.2-3.7,5.6-9.4,6.9-15.4s1.7-9.4,2.6-14.1c2-9.9-11.9-17.2-17.2-7.2a58.1,58.1,0,0,0-5.8,15.7c-1.3,6.4-3.7,14.5,1.8,19.5a10.2,10.2,0,0,0,11.7,1.5Z"/><path class="c" d="M790.5,486.1c9.2,2.5,17.1-13.1,21.4-19.1,6-8.3,12.2-16,16.3-25.4,1.5-3.6,1.7-7.9-1.4-10.8a10.7,10.7,0,0,0-4-2.3,8.9,8.9,0,0,0-8.7,2.3c-5.4,6.3-40.9,50.6-23.6,55.3Z"/><path class="c" d="M773.9,441.2c6.1,4.2,16.6,3.5,23.7,3.8s18.4,2.5,23.1-3.3c2-2.4,3-5.8,1.2-8.6-4.7-7.3-14.9-5.6-22.4-5.7-3.7-.1-7.3-.2-11-.5s-8.4-1.4-12.7-.4c-7.2,1.7-7.2,11-1.9,14.7Z"/><path class="c" d="M793.1,482c5.9,2.2,14.8,3.1,18.6,8.7,2.6,3.7,3.3,9.5,3.5,13.8a21.9,21.9,0,0,1-3.2,13c-2.1,3.7-5.1,5.8-8.4,8.3-1.4,1.1-3.3,2.2-4.6,3.4s-1.7,1-.9.7,1.7.2.3-.1a70.4,70.4,0,0,1-11.6-4.3c-3.4-1.6-8-4-10.4-4.4s-5.5.4-7.1,2.9c-4.5,7.2.5,15.6,7.3,19.1s12,5.7,18.2,6.8c8.2,1.4,13.8-2.5,19.2-8.2s9.1-9.1,12-15.1c6.1-12.4,3.6-29.3-3.7-40.9-5.5-8.4-19.7-13.2-29.2-10.5-3.6,1-3.1,5.6,0,6.8Z"/><path class="c" d="M792.6,489.4a21.2,21.2,0,0,1,4.9.6c2.2.7,4.9,4.2,6.4,6a66.3,66.3,0,0,1,4.9,6.9c1.5,2.2,2.2,5,4.2,6.8s4.9,1.5,5.9-.8c3.9-8.4-5.4-18.8-11.4-23.6-3.3-2.6-6.5-4.7-10.8-4.5s-6.6,2.1-7.2,5.4,1.1,3.9,3.1,3.2Z"/><path class="c" d="M820.6,527.5c4.7-4.2,9.2-12.2,6.1-18.4l.7,2.7a54,54,0,0,0-.9-5.8c-.6-3.1-5.6-3.9-6.9-.9-.3.6-.7,1.3-1,2s-.7,1.6.1.6c-1.6,1.9-2.6,2.7-3.5,5.3a84.8,84.8,0,0,0-2.6,9.9c-.8,4.7,4.3,7.9,8,4.6Z"/><path class="c" d="M635.1,646.2c2.5-2.9,2.2-7.1,5.2-8.4s9.9-6,13.6-2.7c1.2,1,1.4,3.6,1.8,4.9s1.8,4.5,2.7,6.8c2.1,5.4,1.1,9.7-2,14.6-10.6,17.1-26.5,32.1-31.8,52.1-1.3,5.1-.5,11.6,5.5,13.3s9.9-5.1,11.6-10.2c3-9,9.1-16.7,14.3-24.5a94.3,94.3,0,0,0,13.1-28c1.3-4.6,3.2-9.4,2.8-14.3s-2.9-10.2-4.3-15.2c-3-11.5-13.1-16.7-24.6-14-5.1,1.2-11.5,4.4-15.1,8.2s-5.5,10.1-3.9,14.4,7.5,7.1,11.1,3Z"/><path class="c" d="M626.7,735.1c6.4,3.3,15.7,2.4,22.7,2.7s14.5.4,21.7-1.1a5.8,5.8,0,0,0,4.1-4.1,6.5,6.5,0,0,0,0-3.1,6.2,6.2,0,0,0-5.7-4.3c-6.7-.7-13.4-.7-20.1-.8H638.7c-3.5-.1-7.2-.6-10.6.5s-5.9,8-1.4,10.3Z"/><path class="c" d="M625.4,724.1c4.7,6.9,16,7.1,23.5,7.9a86.9,86.9,0,0,0,14.4.7c4-.2,8.8.1,11.2-3.6,1.4-2.1.7-4.8-.8-6.5s-6.5-2.1-9.6-2.5c-4.7-.7-9.3-1-14-1.4-7.3-.6-15.1-2.4-22.2-.8-2.5.6-4.1,4-2.5,6.2Z"/><path class="c" d="M664.9,660.9c8-5.3,2.5-17.3-1.9-23.3s-13.7-14.1-22.3-8.6c-5.3,3.3-2,12.7,4.4,10.5,1-.3,0-.4.7-.1a11.9,11.9,0,0,1,2.5,1.8,20.7,20.7,0,0,1,4.6,5.2c2.7,4.1,4.1,8.7,6.3,13a4.2,4.2,0,0,0,5.7,1.5Z"/><path class="c" d="M500.7,893.4c7.5,2.7,15.2,5.4,23,6.7,6,.9,18.2,2.9,20.5-5.2s-9.8-11.5-15.4-13c-7.7-2.2-15.7-3.5-23.4-5.6-11.2-2.9-15.3,13.3-4.7,17.1Z"/><path class="c" d="M515.4,794.3a35.4,35.4,0,0,0-3.5,9.9,75.7,75.7,0,0,0-1,11.6q-.4,11.9-.6,23.7a236.5,236.5,0,0,0,.7,23.8c.5,7,0,15.8,4.7,21.4,2.2,2.7,6.5,1.6,8.1-1,3.7-5.8,2-14.9,2-21.4s-.4-15.2-.7-22.8-.4-14.5-.4-21.7-.2-15.2-3.1-22.7c-1-2.4-4.8-3.7-6.2-.8Z"/><path class="c" d="M506.8,817.2c4.2-.7,7.4-4.7,10.4-7.4s4.9-5.8,7-8.9c4.8-7-4.4-15.4-11.2-11.3-3.4,2-6.6,3.8-9.4,6.6s-6.7,5.8-7.6,10.1c-1.6,7,4.1,12,10.8,10.9Z"/><path class="d" d="M1038.6,597.7c-1.8,8.2-.8,17.6-1,26.1s-.2,17.1-.3,25.7c-.1,18.2-.3,36.3-.4,54.5l-.5,53.5c0,8.9-.1,17.8-.2,26.8s-.7,18.6.5,27.7c.1,1.4,2.5,2.1,2.7.4,1.2-8.6.8-17.5.9-26.2l.3-27.7.4-53.5c.2-17.8.3-35.7.5-53.5,0-9.2.2-18.5.1-27.7s1.2-17.9-.5-26.1a1.3,1.3,0,0,0-2.5,0Z"/><path class="d" d="M1028,814.2c4.8.6,10-.4,14.7-1l14.4-1.9,30.8-4.1c10.6-1.5,21.1-3,31.7-4.3s20.1-1.1,29.1-4a2.9,2.9,0,0,0-.8-5.7c-9.1-1-19.3,1.6-28.3,2.9l-31.6,4.7-30.8,4.8-14.4,2.1c-5,.7-10.5,1-15.3,2.8a1.9,1.9,0,0,0,.5,3.7Z"/><path class="d" d="M1155.3,593.6c-2.1,15.6-2.4,31.6-3.1,47.4-.9,17.4-1.4,34.7-1.8,52.1s-.6,34.7-.6,52.1c0,8.4.2,16.7.3,25.1s.1,15.9,1.1,23.7a1.2,1.2,0,0,0,2.3,0c.9-7.8.7-15.9.9-23.7l.6-25.1.9-51.2c.3-17.1.8-34.2,1.3-51.3s1.6-32.5,1.3-48.7c0-1.8-3-2.3-3.2-.4Z"/><path class="d" d="M1043.9,595.7c19.3-1.1,38.6-1.8,57.9-1.6,9.5.1,18.9.4,28.4.4s19.3.9,28.4-1.8a1.1,1.1,0,0,0,0-2.1c-9.5-2-19.7-1-29.4-1.1s-18.8-.5-28.3-.6c-19.3-.3-38.5,0-57.3,4.8a1,1,0,0,0,.3,2Z"/><path class="d" d="M1048.3,391.1c-2.5,33.4-4.7,66.9-6.1,100.4-.6,16.6-.9,33.2-1.1,49.7-.1,8.3-.2,16.6-.1,24.9s-.9,15.9,2,22.5c.5,1,1.9.5,2.2-.3,2.9-7,1.4-16.7,1.4-24.2s0-15.9-.1-23.9c0-16.5.3-33.1.5-49.7.5-33.1,1.7-66.3,3.9-99.4.1-1.6-2.4-1.6-2.6,0Z"/><path class="d" d="M1156.2,402c-1.7,30.5-2.6,60.9-3.1,91.5-.3,15.1-.2,30.2-.1,45.3.1,7.5.3,14.9.6,22.3s-.1,15.2,1.4,22.3c.3,1.5,2.8,1.6,3,0,1.1-6.9.6-14.3.6-21.3s.1-14.9,0-22.4c-.2-15.4-.2-30.8-.4-46.2-.3-30.5-.3-61-.3-91.5a.9.9,0,1,0-1.7,0Z"/><path class="d" d="M1043.2,590.7c9-2,18.4-1.4,27.6-1.1s19.2.5,28.9.4,19.4-.5,29.1-1.2,19.2-.3,27.7-3.2a2.1,2.1,0,0,0-.6-4c-9.4-.9-19.6,1.5-29,2.2s-20.1,1.1-30.2,1.3c-17.7.3-37.1-2.9-54,3.8a.9.9,0,0,0,.5,1.8Z"/><path class="d" d="M1052,391.5c17.8,1.8,35.6,3.3,53.4,4.7,8.6.8,17.2,1.6,25.8,2.6,4.5.5,9,1,13.5,1.7s8,1.7,11.9,1.3c2-.3,3.4-3.1,1.2-4.2-6.8-3.3-16.4-3.3-23.9-4.2s-17.7-1.8-26.6-2.4c-18.5-1.3-36.8-1.6-55.3-1.6-1.3,0-1.3,1.9,0,2.1Z"/><path class="d" d="M1029.2,818.8c-1.3,32.9,0,65.9.4,98.8.2,16.6.5,33.1.8,49.7l.5,24.9c.2,7.9,0,16.3,1.2,24.2.3,1.6,2.5,1,2.7-.4,1-8.4.5-17.3.3-25.8l-.3-23.9c-.2-16.6-.5-33.1-.8-49.7-.6-32.6-.4-65.3-2.8-97.8a1,1,0,0,0-2,0Z"/><path class="d" d="M1037,1019.6c19.4-3.8,39-6.7,58.3-10.7,9.4-1.9,18.7-3.9,28-6.1q7.5-1.6,14.7-3.9c4.4-1.3,9.5-2.4,13.2-5.1,1.6-1.1,1.3-4.4-1.2-4.1-4.6.4-9,2.4-13.5,3.7s-9.2,2.3-13.9,3.3c-10.3,2.1-20.6,3.4-31,4.6-19.2,2.3-38.8,6.3-55.6,15.9a1.3,1.3,0,0,0,1,2.4Z"/><path class="d" d="M1148.3,795.4c-2.1,7.2-1.3,15.5-1.3,22.9s-.2,16.6-.2,24.9l.6,49.9c.3,33,.1,66,2.1,98.9.3,4.3,6.6,4.4,6.8,0,1.1-32.9,0-65.9-.4-98.9-.3-16.6-.5-33.2-.8-49.9-.1-8-.5-16-.8-24.1s.5-16.3-1.9-23.7a2.1,2.1,0,0,0-4.1,0Z"/><path class="d" d="M869.3,594c-3.4,32.2-5.2,64.6-5.6,97s-1.3,64.7,0,97a2.2,2.2,0,0,0,4.3,0c1.8-32.3,2.2-64.7,3.7-97s2.3-64.7,2.2-97c0-3.1-4.3-3-4.6,0Z"/><path class="d" d="M866.8,792.1c26.5,6.5,54.3,8.3,81.4,11.4l41.4,4.6,21.1,2.2c6.6.7,13.7,2.3,20.3,2.1a1.3,1.3,0,0,0,.3-2.6c-6.3-2-13.5-2.3-20.1-3.2l-20.1-2.9c-13.7-1.8-27.4-3.4-41.1-5.1-27.5-3.2-55.2-7.8-82.9-8.7a1.1,1.1,0,0,0-.3,2.2Z"/><path class="d" d="M874.6,997.3c26.7,8.9,54.9,12.3,82.7,16.5,13.4,2,26.8,3.7,40.2,5.3s28.5,4.1,42.5,2.9c1.7-.2,2.2-2.7.4-3.2-13.3-3.4-27.4-3.7-41-5.4s-28.3-3.7-42.4-6c-27.4-4.4-54.2-11.4-81.8-14.9-2.8-.4-3.1,4-.6,4.8Z"/><path class="d" d="M866,799.8c-1.8,7.7-1.6,15.7-1.7,23.6s-.2,16.4-.2,24.6c.1,15.8,0,31.7-.1,47.5s.1,31.7.5,47.6.1,32.7,2.9,48.7c.6,3.2,5.1,2.1,5.3-.8,1.6-16.4.4-33.2.4-49.8s.1-31-.1-46.6-.5-31.1-.8-46.6q-.3-12.3-1.2-24.6c-.5-7.9-.7-16-3.2-23.6a.9.9,0,0,0-1.8,0Z"/><path class="d" d="M868.4,799.7c12.7-2.4,27.1.4,39.7,2l41,5.6,39,5.2,20.2,2.8c6.7.9,13.8,2.7,20.6,2.2,4.8-.3,5.2-6.2,1.1-7.9-6.5-2.7-14.1-3.2-21-4.3s-13.6-2.1-20.5-3c-13.6-1.8-27.3-3.5-41-4.7s-27.6-1.9-41.3-2.8-26.4-3.6-38.9.9a2.1,2.1,0,0,0,1.1,4Z"/><path class="d" d="M716.3,781c-1.6,31.2-3.4,62.3-3.9,93.5S711,937.1,714,968a2.2,2.2,0,0,0,4.3,0c2.2-31,.6-62.4.1-93.5s-1.5-62.3-1.2-93.5a.5.5,0,0,0-.9,0Z"/><path class="d" d="M716.5,972.2c6.4,2.3,13.7,2.6,20.5,3.6l20.6,2.9c13.4,1.9,26.9,3.4,40.1,6.6s26.5,5.4,39.7,7.5,27,3.6,40.6,3a2.1,2.1,0,0,0,.6-4.1c-12.9-4.6-26.2-7.2-39.8-9s-26.8-3.5-40.2-4.3-27.7-3.4-41.4-5.5l-19.6-3c-6.7-1-13.7-2.9-20.4-2.5a2.5,2.5,0,0,0-.7,4.8Z"/><path class="d" d="M718.4,776.7c12,3,24.3,4.3,36.5,6.1s25.2,3.5,37.7,5.5,24.5,3.9,36.7,6.1l18.2,3.4c6.1,1.1,11.4,2.5,17.5,1.2,2.6-.5,2.7-4.1.7-5.5-5.2-3.3-10.7-3.8-16.7-4.8l-18.3-3c-12.6-2.1-25.2-4-37.8-5.9-24.2-3.6-49.3-8.6-73.8-8.3-2.9.1-3.6,4.5-.7,5.2Z"/><path class="d" d="M580.3,770c-1.3,29.3-1.5,58.6-1.5,87.9-.1,14.1-.1,28.2-.2,42.3s-.3,29.6,1.9,44.2a1.6,1.6,0,0,0,3.1,0c2.5-14.6,2.4-29.4,2.2-44.2s-.5-28.2-.7-42.3c-.6-29.3-1.2-58.6-2-87.9a1.4,1.4,0,0,0-2.8,0Z"/><path class="d" d="M585.1,950c2.2-2.6,9.6,0,12.3.5l16.5,3.2c11.7,2.3,23.5,4.4,35.2,6.4l34.4,5.7,16.7,2.6c5.7.8,12,2.4,17.7,2,2.5-.2,4.1-4,1.4-5.2-5.5-2.6-12-3.4-17.9-4.7L682,956.4l-38.9-7.8c-12.7-2.5-25.4-4.7-38.1-7-7.8-1.3-21.4-6-26.1,3.6-1.8,3.7,3.2,8.4,6.2,4.8Z"/><path class="d" d="M580,767.9c4.5-2.2,10.8-1.1,15.6-.6l17.6,1.8c11.7,1.2,23.5,2.2,35.2,3.6s24.1,2.6,36,4.6l17.4,2.9c5.6.9,11.5,2.4,17.1,2.4,2,0,2.5-3,.5-3.5-5.8-1.6-12.1-1.7-18.1-2.3l-18.6-1.9c-13.3-1.4-26.6-3.5-39.8-5.6l-36.8-6.1c-9.6-1.5-20.4-5.4-28.8,1.2-2.1,1.6.6,4.5,2.7,3.5Z"/><path class="d" d="M456,755.7a570,570,0,0,1,67.8,4.2c11.2,1.3,22.4,2.8,33.6,4.7l17.1,3.1c4.9.9,10.2,2.1,15,.5,1.5-.5,2.3-2.5,1-3.6-3.8-3.3-8.9-4.3-13.7-5.1l-17.3-2.6c-11.3-1.5-22.5-2.8-33.8-3.8-23.2-2-46.4-2.4-69.7-2.3-3.1,0-3.1,4.9,0,4.9Z"/><path class="d" d="M454.8,758c-.4,27.3-.1,54.7.3,82l.6,40.5c.2,13.5,0,27,2.3,40.3.7,3.7,5.8,2.4,6.1-.8,1.6-13.4.4-27-.1-40.5s-1-27-1.4-40.5c-.9-27-1.7-54-2.9-81-.2-3.1-4.9-3.1-4.9,0Z"/><path class="d" d="M461.9,927.4c11.4.3,22.2,2.8,33.2,5.2s22.4,4.9,33.7,7.1l32.9,6.1,17.5,3.3c5.1.9,10.7,2.7,15.8,1.6,3.5-.7,3.4-5.3.9-7-4.3-3-10.9-3.7-15.9-4.9l-17.2-4-34.5-8.1c-11.2-2.6-22.4-4.7-33.7-7s-23.2-6-33.9-1.5c-4.6,2-4.4,9.1,1.2,9.2Z"/><path class="d" d="M469.9,750.1c9.2-.5,18.3-.3,27.5-1.2s17.7-1.9,26.5-3c17.6-2.3,35.6-3.4,52.8-7.4,3-.7,2.3-5.4-.7-5.3-18,.1-36.2,3.4-54.1,5.8-8.5,1.1-16.9,2.3-25.3,3.8s-17.8,4.2-26.8,6.2c-.6.2-.5,1.2.1,1.1Z"/><path class="d" d="M579.9,581c-2.1,32.7-3.3,65.3-3.5,98s.5,64.4,5,96.3c.2,1.4,2.4,1,2.4-.3.7-32.3-.8-64.6-1.4-97s-.3-64.6.9-97c0-2.2-3.3-2.1-3.4,0Z"/><path class="d" d="M582,578.2q35.7-.6,71.4-.7c11.6-.1,23.2,0,34.7-.2l17.3-.8c5.9-.3,12.7,0,18.3-1.9,2.4-.9,2.6-4.4,0-5.1-5.5-1.5-11.7-.9-17.4-.8s-11.5.1-17.2.3c-11.9.5-23.8,1.4-35.7,2.2-23.8,1.4-47.6,2.9-71.4,4a1.5,1.5,0,0,0,0,3Z"/><path class="d" d="M583,580.9c24.4.7,48.7,2.4,73,4.1,11.9.8,23.8,1.4,35.8,1.9s23.5,1.8,34.7-.7a1.8,1.8,0,0,0,0-3.5c-10.8-2.9-22.7-2.4-33.8-2.9s-24.5-1-36.7-1.3c-24.4-.6-48.7-1.2-73-.8a1.6,1.6,0,0,0,0,3.2Z"/><path class="d" d="M723.8,593c-2.5,31.4-3.5,63-4.9,94.4-.7,15.9-1.4,31.8-1.9,47.7l-.6,23.2c-.1,7.2-.7,15,.6,22.1.3,1.5,2.7,1.5,3.1,0,1.5-6.8,1.2-14.3,1.4-21.2l.6-23.2c.4-16.2.6-32.4,1-48.6.6-31.4,1.9-62.9,1.6-94.4a.5.5,0,0,0-.9,0Z"/><path class="d" d="M730.4,385.9c-3.2,32.4-5.3,65-6.9,97.5-.8,15.9-.9,31.9-1.2,47.8s-1.8,32.7,1,48.3c.3,1.8,3.2,1.8,3.6,0,3.1-15.3,2.1-31.8,2.7-47.3s1.4-32.5,1.9-48.8c1-32.5,2.5-65,3.7-97.5.2-3.2-4.5-3-4.8,0Z"/><path class="d" d="M732.9,383.8c26.2,1.6,52.3,2.1,78.5,3.6l34.5,2.2,17.4,1.4c5.7.5,13.3,2.7,18.7.5,2.8-1.1,3.9-5.1.9-6.9-5.1-2.9-12.3-1.9-18-2.1l-18.2-.6-35.3-.8c-26.1-.4-52.8-3-78.7.6-1.3.2-.9,2,.2,2.1Z"/><path class="d" d="M725.6,581.8a49.4,49.4,0,0,1,8.7,1.4c6.1,1.2,12.4,1.3,18.5,1.9l40.8,3.7c13.6,1.3,27.3,2,40.9,2.9l19.9,1.4c6.7.4,13.9,1.3,20.6,0,2.6-.5,2.1-4.1,0-4.9-6.2-2-13.2-2.1-19.6-2.5l-20.9-1.5c-13.6-.9-27.2-2-40.9-2.6l-40.8-1.7c-8.9-.4-18.3-1.8-27.2-.8a1.4,1.4,0,0,0,0,2.7Z"/><path class="d" d="M882.1,389.6c-1.4,3.2-1.4,6.8-1.8,10.3s-.9,7.9-1.3,11.8c-.7,8.3-1.3,16.5-2,24.8q-1.9,25.2-3.6,50.4c-1.1,16.5-1.9,33-2.6,49.5l-.9,25.8c-.3,7.9-1.4,16.5-.2,24.4.3,2.2,3.9,2,4.3,0,1.8-7.8,1.2-16.5,1.5-24.4s.7-15.9,1.1-23.8c.8-16.8,1.8-33.7,2.6-50.5s1.6-33,2.5-49.5l1.5-24.7c.3-3.9.5-7.9.6-11.8s.9-8.3-.1-12.1a.9.9,0,0,0-1.6-.2Z"/><path class="d" d="M880.9,384.4c30.1,2.3,60.3,3.2,90.4,4.6l39.3,2,20.7,1c7,.4,14.4,1.5,21.3.5,2.2-.3,1.9-3.6,0-4.1-6.8-1.7-14.3-1.3-21.3-1.7l-20.7-1.2-40.2-2.3c-29.6-1.7-60.3-5.9-89.7-.1-.7.1-.5,1.2.2,1.3Z"/><path class="d" d="M880,589.5c27.3,1.9,54.6,2.7,82,3.4l40.5,1,19.8.6c6.6.2,13.8,1.3,20.4.2,2.4-.4,2.2-4.2,0-4.7-6.2-1.4-13.1-.8-19.4-.9l-20.8-.5-40.5-.8c-27.4-.4-54.6-.3-82,1.1-.4.1-.4.6,0,.6Z"/><path class="d" d="M1222.4,168c-10.2,32.4-17.2,65.5-24.2,98.7-3.5,16.9-6.8,33.8-10.6,50.6-1.8,8.1-3.9,16.1-5.9,24s-5.5,15.9-5.3,23.7a2.6,2.6,0,0,0,4.9,1.3c4-6.7,4.8-15.7,6.5-23.3s3.3-16.2,5.1-24.2c3.5-16.9,7.3-33.7,10.8-50.6s6.9-33.8,10.5-50.6,6.4-32.8,9.9-49.1a.9.9,0,0,0-1.7-.5Z"/><path class="d" d="M1388.2,366.6c-4.9,7.4-6.6,16.1-9,24.5s-4.7,17-5,25.8c0,1.7,2.2,1.8,2.8.4,3.3-8.3,4.9-17,7-25.7s4.6-16.3,4.7-24.8c0-.3-.4-.4-.5-.2Z"/><path class="d" d="M1372.7,416.4c1.7,0,2.9.5,4.9.2l11.4-1.4c6.5-.7,13.7.3,19.7-2.6,2.1-1,1.7-4.8-.6-5.2-5.6-.8-11,1.3-16.4,2.6s-11.7,2.2-17.6,3.5a1.6,1.6,0,0,0-1.2,1.2,5.7,5.7,0,0,1-.4,1.4c0,.1.1.3.2.3Z"/><path class="d" d="M1411.9,377.3c-4.8,2.6-5.6,10.5-6.7,15.4s-2.3,12.3-1.3,18c.5,2.9,4.2,2.1,5.1,0,2.1-5.1,3-11.3,4.3-16.7s4.5-10.6,2.7-15a2.9,2.9,0,0,0-4.1-1.7Z"/><path class="d" d="M1181,367.8c30.4,13.5,62.9,22.7,94.8,31.6,16.6,4.6,33.2,8.9,50.1,12.2,8.2,1.7,16.5,3.2,24.8,4.6s15.7,2.9,23.4,2.7a2,2,0,0,0,.5-3.9c-7.6-2.7-16-3.8-23.9-5.5s-16.4-3.6-24.6-5.6c-16.1-3.9-32.3-7.6-48.4-11.7-32.1-8.1-63.9-18.4-96.5-24.9-.3-.1-.5.4-.2.5Z"/><path class="d" d="M1223,169.2c2,4.9,10.6,5.6,15.2,7,7,2,14.1,3.8,21.1,5.7l40.4,10.4c27.6,7.2,55.3,14.8,83.5,19.3,5.2.9,7.3-6.2,2.2-7.9-27-9.2-55.2-14.9-83.1-21l-39.9-8.8-21.3-4.7-11.4-2.1c-2.9-.4-4.2-.9-6.4,1a1.1,1.1,0,0,0-.3,1.1Z"/><path class="d" d="M508.2,797.1a10.7,10.7,0,0,1,1.8-1.9l1.6-1.7c.5-.5-.5-1.4-.9-.6l-1.2,1.9a8.3,8.3,0,0,1-1.4,2.2c-.2.1,0,.3.1.1Z"/><path class="d" d="M494.9,809c4.7-2.9,8.7-7.3,12.5-11.2s8.5-7.3,10.3-11.9c.5-1.1-.9-2.4-2-2-4.6,1.8-8.5,6.8-12,10.2s-8.3,7.8-11.2,12.4a1.8,1.8,0,0,0,2.4,2.5Z"/><path class="d" d="M525.4,788.7c-2.1,1.3-1.8,3.6-1.8,5.8v12c0,8.7-.1,17.3,0,25.9s.1,17,.4,25.4.1,15.4,1.2,22.8c.2,1.4,2.2.9,2.3-.3.8-7.3.5-15,.7-22.5l.3-26.2c0-8.3-.1-16.7-.2-25.1l-.3-11.3c0-2.3.4-5.1-1.9-6.5a.9.9,0,0,0-.7,0Z"/><path class="d" d="M512.1,810.8c-2.1,5.1-2.2,10.5-2.7,15.9s-.6,12.3-.7,18.5,0,11.7.3,17.6.1,11.7,1.8,17c.5,1.3,2.8,1.6,3,0,.7-5.3-.1-10.9-.3-16.2s-.4-12.3-.4-18.4.2-11.7.4-17.6,1.1-11.2.1-16.8c-.1-.9-1.3-.6-1.5,0Z"/><path class="d" d="M506.2,822.3a45.2,45.2,0,0,0,5-4.8c1.4-1.5,2.9-3.6,3.1-5.7a1.7,1.7,0,0,0-1.8-1.7c-2.1.2-4.2,1.6-5.8,3a45.6,45.6,0,0,0-4.8,5c-2.4,3,1.2,6.6,4.3,4.2Z"/><path class="d" d="M492.1,807.7a44.6,44.6,0,0,0,4.1,7.8c1.4,2.4,2.9,5,5.1,6.6s3.5-.7,3.2-2.4-2.4-5.2-3.9-7.4a40.3,40.3,0,0,0-5-6.7c-1.4-1.4-4.2,0-3.5,2.1Z"/><path class="d" d="M526.6,883.4q4.4,1.4,8.7,2.4c2.6.5,5.3,1.4,8,.8s1.9-3,.5-3.9-5.1-1.7-7.6-2.4-5.4-1.4-8.1-2.3-5,4.4-1.5,5.4Z"/><path class="d" d="M497.3,895c4.2,1.4,8.8,2.1,13.1,3s8.2,2.3,12.3,2c1.8-.1,2.8-2.7.9-3.6-3.8-1.9-8.5-2.6-12.6-3.7s-8.6-2.4-13-2.7-3.3,4.1-.7,5Z"/><path class="d" d="M520.2,896.7c1.4,3.8,6.9,4.3,10.4,5.3s9.2,2.1,13.9,1.1a1.4,1.4,0,0,0,.3-2.5c-4.1-2-8.5-2.5-12.9-3.5s-8-3.6-11.2-1.6c-.4.3-.7.8-.5,1.2Z"/><path class="d" d="M542,883.5c-1.9,5.7-.7,12.9.9,18.5a1.4,1.4,0,0,0,2.7-.4c.1-3.1.2-6.2,0-9.4s.3-5.8-.3-8.7-2.8-1.5-3.3,0Z"/><path class="d" d="M494.4,876.4c-2.3,1.8-1.2,5.6-1.1,8.2a35.1,35.1,0,0,0,2.1,9.6.8.8,0,0,0,1.5,0,31.4,31.4,0,0,0,1.1-10.1c-.2-2.7.5-6.2-2-7.9a1.5,1.5,0,0,0-1.6.2Z"/><path class="d" d="M496,878.5c5.4,2.3,11.3,3.9,17,2.2a1.4,1.4,0,0,0,0-2.6c-5.1-2-10.5-2.7-15.7-4.3-3.1-1.1-4.2,3.6-1.3,4.7Z"/><path class="d" d="M515.7,785.1a4.7,4.7,0,0,0,.4,2.5,8.2,8.2,0,0,0,2.9,2.3c2,1.1,4.4,2.4,6.8,1.7s1.5-2.8,0-3.4a30.2,30.2,0,0,1-5-1.9,12.8,12.8,0,0,0-2.5-1.5l-1.7-.4a.8.8,0,0,0-.9.7Z"/><path class="d" d="M621,638.8c.2,2.5,2.3,4.2,3.9,6.1a48.5,48.5,0,0,0,6.1,6.7c1.2.9,3-.2,2.2-1.6s-3.5-4.6-5.4-6.8-3.3-4.6-5.7-5.2c-.5-.1-1.2.2-1.1.8Z"/><path class="d" d="M672.5,722c.1,2.4.2,4.8.5,7.2s1,4.3,1.5,6.4,2.2,1,2.3-.3a47.6,47.6,0,0,0,.7-6.6c0-2.2-.2-4.5-.3-6.7s-4.9-3-4.7,0Z"/><path class="d" d="M622.8,639.3c2.6-5.9,9.2-11.1,14.3-14.7s13.1-6.3,19.8-2.5c12.1,7,14.7,23,12.8,35.6s-9.2,23.9-18,33.4c-6.1,6.6-16.7,17.5-13.5,27.5a2.6,2.6,0,0,0,5,0c1.1-3.8,1.4-7.4,3.4-11a68.7,68.7,0,0,1,6.6-8.7c4.5-5.1,9.1-10.2,12.6-16,7.2-12.1,11.3-27.2,8.6-41.2-2.3-11.9-10-25.7-23.5-26.4-6.6-.4-12.6,2.8-17.6,6.9s-11.5,9.3-13.1,16c-.3,1.5,1.9,2.6,2.6,1.1Z"/><path class="d" d="M640.5,720c10.9,1.5,23.2,2.7,34.2,1.3a1.3,1.3,0,0,0,0-2.5c-5.6-.7-11.4-.4-17-.5s-11.4-.2-17,0c-.9.1-1.2,1.6-.2,1.7Z"/><path class="d" d="M622.3,736.2q12.6,1,25.2,1.5c9.5.3,19.8,1.8,29.1.2a1,1,0,0,0,0-2c-9.5-2.1-20.3-1.1-30-1.4-8.1-.1-16.5-.8-24.5.4-.8.1-.5,1.3.2,1.3Z"/><path class="d" d="M633.3,649c2.4-5.3,7.1-10.1,13.3-7.7s8.3,8.8,7.1,14.8c-2,10.4-10,18.9-16.4,27-11.3,14.4-20.2,34.2-15,52.7.5,2,3.2,1.4,3.4-.4,1.7-13.8,3.5-26.9,11.1-38.8,6.6-10.4,15.3-20,19.7-31.6,3.2-8.8,2.6-20.2-6.2-25.6s-16.3.4-18.2,9.1c-.2.7.9,1.2,1.2.5Z"/><path class="d" d="M772.9,425.3v1.2l.8-1.4c-2.5,1.7-2.4,4.7-2.8,7.6s-.6,7.3.7,10.5c.6,1.6,3,1.9,3.5,0s.7-6.2.9-9.3,1.5-5.7,0-8.2v1.7l.5-1.1c1.4-3-3.5-4.1-3.6-1Z"/><path class="d" d="M783.8,479.2a27.5,27.5,0,0,1,2.5,6.4c.6,1.9.7,4.1,1.7,5.9a1.6,1.6,0,0,0,2.8-.4c.7-2.3-.3-5.2-1.2-7.2a22.8,22.8,0,0,0-4.1-6,1.1,1.1,0,0,0-1.7,1.3Z"/><path class="d" d="M774.9,515.6c-3,1.9-5.1,4.9-7.2,7.8s-4.3,5.8-4.7,9.4c-.2,1.7,2.1,2.1,3.1,1.2s3.8-5.2,5.5-7.7,4.4-5.1,6-8.1-1-3.7-2.7-2.6Z"/><path class="d" d="M826.5,426.6c-1.5,4-.1,9.9,1.9,13.5a1.6,1.6,0,0,0,2.8-.4,17.2,17.2,0,0,0,.6-6.4,50.1,50.1,0,0,0-.3-6.7c-.5-2.7-4.2-2.1-5,0Z"/><path class="d" d="M772.3,425.1c2.6,2.6,7.2,2,10.7,2.2,5.5.4,10.9.6,16.3,1.1l15.3,1.3c5.1.4,10.7,1.6,15.7.2,2-.5,2.6-3.6.6-4.5-4.1-2-8.9-2.1-13.5-2.4s-11.4-.9-17.2-1-10.8-.3-16.2-.1c-3.7.1-9.1-.5-11.7,2.4a.6.6,0,0,0,0,.8Z"/><path class="d" d="M773.4,444.2c5.4,1.1,10.9,1.2,16.3,1.6s10.7,1.3,16,.2a1.6,1.6,0,0,0,.4-2.8c-4.5-2.4-9.6-2.8-14.6-3.1a102.3,102.3,0,0,0-17.5-.2c-2.2.3-3.2,3.8-.6,4.3Z"/><path class="d" d="M808.4,474.1c4.5-5.5,8-11.6,11.9-17.5s8.9-11.2,11.3-17.8c.4-1-.9-1.9-1.8-1.4-5.8,3.9-9.3,10.4-13,16.2s-7.5,12.7-10,19.5c-.3.9,1,1.8,1.6,1Z"/><path class="d" d="M776,520.1c9.4,12.7,29.9,17.9,37.2.3,6.7-16-5.7-32.1-22.5-32.1a2.4,2.4,0,0,0-.7,4.6c10.9,2.9,20.3,11.2,18.2,23.2-1.3,7.6-5.7,13.6-14.1,12.1-6.4-1.1-11.8-4.9-15.8-9.9-1-1.3-3.3.4-2.3,1.8Z"/><path class="d" d="M804.7,443.4c-5.1,2.6-7.7,11.4-10.2,16.2s-7.3,11.6-10.9,17.4c-.7,1.1.8,2.1,1.7,1.3,5.1-4.1,8.6-9.8,11.9-15.3,1.8-3,3.5-6,5.2-9s4-5.6,4.8-8.7a1.7,1.7,0,0,0-2.5-1.9Z"/><path class="d" d="M769.2,535.4l.7.7c.1.1.3-.1.2-.2l-.7-.7c-.1-.1-.3.1-.2.2Z"/><path class="d" d="M809.1,474.6c3.3,3.7,7.5,6.3,10.5,10.3a45.9,45.9,0,0,1,7.6,13.9c3.4,10.5,1.4,21.8-4.4,31.2a37.7,37.7,0,0,1-11.2,11.3c-5.5,3.6-10.5,3.8-16.6,2-9-2.8-19-6.1-26.7-11.5-2-1.3-4,1.6-2.5,3.2,7.8,8.6,20.6,14,32,15.7s22.4-7.9,28.2-18a46,46,0,0,0,4.6-33.3c-2.3-10-9.9-23.4-20.7-26.2a.9.9,0,0,0-.8,1.4Z"/><path class="d" d="M1248.1,293.4c5-2.7,9.3-6.7,13.8-10.1l16.2-11.9c4.9-3.7,9.8-7.4,14.6-11.2s10.8-7.9,13.9-13.1a2.2,2.2,0,0,0-3-3c-5,2.5-9.3,7.3-13.5,10.9s-10.4,8.8-15.7,13c-9.4,7.6-19.8,14.6-27.7,23.7a1.1,1.1,0,0,0,1.4,1.7Z"/><path class="d" d="M1272.7,296.5c1.7-2.5,5.1-4.4,7.4-6.1l7.5-5.5c4-2.9,8-6,11-10,.7-.9-.5-2.1-1.5-1.9-6.7,1.9-12.1,6.4-17.5,10.7-3.1,2.6-12.1,7.4-10.2,12.3a1.8,1.8,0,0,0,3.3.5Z"/><path class="d" d="M1246.2,289.5a73.3,73.3,0,0,0-3.1,10.4c-.8,3.5-1.5,6.7-.6,10.2a1.7,1.7,0,0,0,3.1.4c1.6-3.1,1.9-6.4,2.6-9.8s1.8-6.7,2.2-10.1-3.3-3.1-4.2-1.1Z"/><path class="d" d="M1243.4,309c.5,3.5,6.1,3.7,8.8,4.4,5.2,1.3,10.5,2.7,15.7,4.2l14.9,3.9c5.4,1.3,11,3.3,16.5,3.5,1.9.1,2.8-2.9,1-3.7-4.3-1.9-9.2-2.6-13.8-3.8l-14.2-3.6c-9.2-2.2-18.4-4.1-27.5-6.3-.9-.3-1.5.5-1.4,1.4Z"/><path class="d" d="M1294.7,355.8c2.9,1.3,6.3,1.8,9.4,2.4s6.6,1.7,9.9,1.6,2.3-2.8.5-3.6-6.7-1.5-10-1.9-6.1-1.2-9.2-1c-1.2.1-2,1.9-.6,2.5Z"/><path class="d" d="M1298.8,322.1c-2.8,4.2-3,10.7-4.1,15.7s-3,10.8-2.4,16.2c.1,1,1.5,1.6,2,.6,2.7-5.1,3.3-11.1,4.4-16.6s3.2-10.7,2.2-15.7c-.2-1-1.6-1-2.1-.2Z"/><path class="d" d="M1321.3,327.9c-2.6,4.7-3.8,9.7-5,15s-3.4,10.7-3,15.7a1.3,1.3,0,0,0,2.4.7c2.5-4.4,3-10.6,4.1-15.5s2.2-10.4,1.9-15.8a.2.2,0,0,0-.4-.1Z"/><path class="d" d="M1269.4,296.2c1.1,1.4,3.3,1.4,5,1.8l9.4,2.3c5,1.3,10.8,3.7,16,3.7a1.4,1.4,0,0,0,.7-2.5c-4.9-2.4-11.2-3.2-16.5-4.5-3.3-.8-11.4-4.1-14.5-2.1a.8.8,0,0,0-.1,1.3Z"/><path class="e" d="M1544,200.1c22.7,1.8,45.2.8,68-1.3,11.9-1.1,23.8-2.5,35.7-4.1l16.4-2.4c6.7-1.1,15-1.3,20.6-5.6s11.5-12.8,8.7-21.4-9.6-12.9-18.3-14c-6.4-.8-13,2.7-19,4.8l-16.5,5.5c-10.7,3.5-21.5,6.7-32.3,9.7-21.6,5.9-43.4,10.7-65,16.4-7.2,1.8-5.2,11.9,1.7,12.4Z"/><path class="e" d="M1537,202.2q-2.6-6.3-2.1-3.6a9.5,9.5,0,0,0,2.1,3.6,25.1,25.1,0,0,0,4.1,3.2c4.7,3,9.7,3.1,15.1,3.3,8.9.4,18.1,1.3,27,.8,19.3-.9,38.8-4.3,57.9-6.9s35.9-5.3,53.7-8.5l26.8-5c8.9-1.8,19-2.8,27.5-6,10.4-3.9,17.3-12.7,15.8-24.2-1.3-9.8-10.8-20.5-21.7-19.2s-20.2,4.5-30.3,7.1l-24.4,6.1c-16.9,4-34,7.8-51,11.2s-34.2,6.6-51.4,9.4c-8.3,1.3-16.2,3.6-24.3,5.8s-18.6,3.5-24.8,11.4c-2.6,3.2-3.6,8.3,0,11.5Z"/><path class="e" d="M1486.7,202.5c7.9,1.4,15.6,3.5,23.5,4.4,3.1.3,6.4,1,9.6,1s9.5-1.6,14-2.5c13.7-2.8,16.9-24.6,4-30.8-4-2-8.4-4.6-12.8-5.6s-9.3-.9-13.9-1.1c-8-.2-16.5,2-24.4,3.6-15.1,3.2-15.5,28,0,31Z"/><path class="e" d="M1396.6,192.5c3.7-10.4,13.8-16.6,22.6-22.2,10.3-6.4,20.4-12.9,30.9-18.8a340.8,340.8,0,0,1,32.6-16.2,76,76,0,0,0,14.9-9.3c4.8-3.6,11.4-7.3,15-11.9,2.3-2.9,2.1-8.3-2.4-9.2-6.2-1.2-13.6.6-19.8,1.6a60.4,60.4,0,0,0-20.7,6.6,380.3,380.3,0,0,0-33.8,21,238.9,238.9,0,0,0-31.4,25.4c-8.5,8.3-16.7,18-18.5,30.1-1,6.9,8.2,9.7,10.6,2.9Z"/><path class="e" d="M1390.2,187c-.1,2.7.5-2-.2,0a13.5,13.5,0,0,1,1.9-3.3c.5-.8.6-.9,0-.2l1-1.2,3.2-3.2c2.1-2.2-1.4.9,1.7-1.5l3.4-2.5,7.7-5.6q15.3-10.6,31.5-19.8c10.9-6.1,22.2-11.4,32.4-18.6s21.2-14,32.3-20.3c15-8.5,4.9-32.4-11.7-27.8a381.6,381.6,0,0,0-39.1,13.1c-15.4,6.1-28.3,16.2-41.3,26.5a367.2,367.2,0,0,0-31.2,27.3c-11.4,11-20.2,23.9-17.3,40.5,1.1,6.4,8.5,10.3,14.4,9.4s10.9-6.2,11.3-12.8Z"/><path class="e" d="M1475.9,124.3c9-1,17.7-.7,26.5-3.3a14.8,14.8,0,0,0,9.5-19.8c-3.4-8-13.2-11.6-20.8-7a38.9,38.9,0,0,0-12.8,11.4c-2.6,3.4-4.9,6.9-7.2,10.4s.6,8.8,4.8,8.3Z"/><path class="e" d="M1495.4,124.7l4.4-2.6c2.7-1.6-2.5.7.8-.4l3.6-1.1c1.1-.3,6.7-1,1.6-.4,10.5-1.1,18.8-8.7,17.3-20-1.2-9.4-11.9-18.7-22-14.7s-17.2,8.5-23.6,16c-4.7,5.7-5.8,13.3-1.1,19.4s12.9,8,19,3.8Z"/><path class="e" d="M1404.2,194.3a58.6,58.6,0,0,0,10.8-2.6c3.8-1.3,7.5-2.3,11.3-3.2,8-2,16.1-3.6,23.8-6.4,9.4-3.4,19.3-6.2,28.1-11s21.3-9.8,27.5-19.6l-7.6,7.5c6.3-4.2,14.3-8.2,19.4-13.8,9.9-11,3.1-29.2-12.2-29.4-7.7-.1-16,2.8-23.4,4.7h11.2c-5.4-.9-9.8-1.3-15.1.3-2.2.6-4.3,1.5-6.4,2.3l-13.5,5.2c-9.7,3.8-18.7,9.5-27.4,15.2a171.4,171.4,0,0,0-22.1,17.7,110.2,110.2,0,0,0-8.2,8.6,32.4,32.4,0,0,0-7.1,13.6c-1.9,7,4.4,12.1,10.9,10.9Z"/><path class="e" d="M1389.9,206.1c12.3,1.5,24.2,2.4,36.5.8a106.5,106.5,0,0,0,20.3-4.5c6.9-2.4,15.2-5.8,13.8-14.7a11.5,11.5,0,0,0-5.6-8.1c-3.7-2.1-7.5-1.3-11.4-.9-6.6.7-13,1.5-19.6,2.7-12.1,2.2-24.1,5.1-36.3,7.1-4.4.8-7.1,5.9-6.5,9.9s4.3,7.2,8.8,7.7Z"/><path class="e" d="M1422.7,194.3c17.8,2.9,35.4,5.9,53.4,2.9,8.3-1.4,16.5-3.2,24.8-4.9,10-2.1,22.5-2.6,26.1-14.1l-2.8,4.9,4.8-4.3c4.3-3.8,1.6-10.3-3.1-12l-6.6-2.3,4.9,2.9c-6.9-8.3-19.8-3.8-28.8-2.4s-16.8,2.1-25.2,3.5c-17.2,2.8-32.7,10.4-48.6,17.3-3.5,1.5-2.7,7.8,1.1,8.5Z"/><path class="e" d="M1470.8,194.9l13.8-.9c6-.3,11.9-1.6,17.8-2.5-5,.7,2.6-.3,3.5-.4l7.2-.6c7-.7,12.1-2.6,17.6-7.2,1.6-1.2,3.1-2.6,4.6-3.8,8.5-7.1,6.7-24.6-3.8-29.1-3-1.3-6-2.7-9.1-3.9-5.2-1.9-10.9-1.6-16.2-.2a130.4,130.4,0,0,0-14.8,5.3c-5.4,2.2-11.4,4.2-16.2,7.6a156.8,156.8,0,0,0-14.5,11.3c-9.2,7.6-2,25.7,10.1,24.4Z"/><path class="e" d="M1500,107.7c.4,1.4.7,2.8,1,4.2.9,3.9.1-2.2.1,1.3s1.5,8.1,2.6,12.2a74.8,74.8,0,0,1,2,9.4c1,5.3-.3-4.3.2,1,.1,1.6.3,3.2.4,4.9.6,7.1.9,14.3,1.7,21.4s1.3,10.6,3.4,15.7,8,10.3,14,13.4c10.9,5.6,21.9.5,26-10.6,1.7-4.3-1.6,3.4.1-.1,2.8-6.2,3.7-11.5,2.1-18.3-.9-3.4-2.1-6.9-3-10.3-1.8-7.2-3.1-14.4-5-21.5a112.8,112.8,0,0,0-7.8-21c-3.8-7.8-10.8-13-18.6-16.5-4.9-2.1-10-2.5-14.5,1.1a13.1,13.1,0,0,0-4.7,13.7Z"/><path class="e" d="M1523.7,104.9c6.8,10.2,16.4,17,27.7,21.6,13.8,5.6,27.9,4,42.2,1.9l-15.1-2c6,3.3,11.6,3.7,18.2,2.5l8.5-1.6a136,136,0,0,0,16.7-4.2c14.5-4.9,22.9-19.8,16.7-34.6s-22.6-19.1-36.4-12.3a124.2,124.2,0,0,0-14.8,9l-6.3,4.3c-5.8,4-9.6,8-11.6,14.8l9-11.7a145.9,145.9,0,0,1-13.1,9.1,27.3,27.3,0,0,1-11.2,4c-8.6,1.3-17.6-1.9-24.7-6.6-3.5-2.3-8.1,2.3-5.8,5.8Z"/><path class="e" d="M1587.6,111.3c7.5,1.7,14.9,2.5,22.5.2a208.7,208.7,0,0,0,23.8-9.2c7.9-3.5,15-10.6,21.2-16.6A57.4,57.4,0,0,0,1671,59.6c4.7-17-14.6-32-29.8-22.9a24.8,24.8,0,0,0-5.6,4q-2.4,1.9-.3.3c2.5-2-2.4,1.7-2.9,2.1a58.6,58.6,0,0,0-10.2,9.7c-5.5,6.4-11.9,12-16.7,19l-5.3,7.6h0l-1.5,1.9c-1.2,1.5-2.4,2.9-3.7,4.3-4.9,5.8-7.5,11.5-10.4,18.3-1.2,2.8-.5,6.6,3,7.4Z"/><path class="e" d="M1625.1,62.9c-6.4,9.8-5.6,22-5,33.1.5,9.5,2.4,19.1,4.3,28.4,1.4,6.8,2.8,13.9,5.1,20.5s4.3,12.5,7.2,17.6,7.1,9.6,12,13.6,9.4,7.3,15.2,8.9a34.5,34.5,0,0,0,22.4-1.8c13.1-5.5,20.2-17.4,21.2-31.4a58.3,58.3,0,0,0-.2-11.8,54.4,54.4,0,0,0-3.6-12.7c-3-7.9-6.5-15.6-9.8-23.4l3.7,8.9c-4.9-11.9-9-24-14-35.8l3.4,8.2c-3.9-9.6-6.4-21.8-14.9-28.4s-14.9-9.6-25.1-8.2-16.7,6.3-21.9,14.3Z"/><path class="e" d="M1647.3,91.2c-9-6.9-24.5-6.2-33.6-.4s-14.2,15.3-18.3,25.5c-5.7,14.5-6.7,32-3.5,47.3l58.7-24.8a71.4,71.4,0,0,1-6.9-12.4l3,7c-1.1-2.7-1.3-5.4-2-8.2a33.8,33.8,0,0,0-9.3-15.6c-13.4-12.7-34.2-10.7-45.4,3.7-5.3,6.8-8.7,18.9-8,27.6.2,2.5.7,5.1.8,7.6s0,2,.1,2.9c-.2,2.7.2,2,1-2.2s1.5-4.8.3-2.3h38.6L1612,122l2.7,9.8v-1.9l-2.8,10.2.6-1.2c5.7-11.1,2.2-22.3-7.7-29.4l-1.1-.8c-8.6-4.9-21.2-4-28.1,3.6s-8.8,15.5-10.1,25c-.7,5.3-1.1,10.2.8,15.4.9,2.5,2,5,3.1,7.4s2.3,5.4.8,1.4v-9.2l-.3,1.1,11.8-11.8-1,.2,12.9,1.6c1.6,1,3.8,4.7,1.9,1.2-.8-1.4-1.9-2.8-2.8-4.1l-5.1-7.3-2.2,16.4a19.9,19.9,0,0,0,4.9-8.7c2.3-6.7-1.4-15.6-7.7-18.9s-14.4-2.5-20.3,2.6c-11.1,9.6-11.3,25.9-7.4,39l21.7-9.1c-1.5-2.2-3.1-4.3-4.8-6.4l2.9,6.9c-.2-2.5-.3-5-.4-7.4l-3.3,7.8c4.1-4.1,6.6-8.2,6.7-14.1.2-7.5-5.3-14.2-12.3-16.3a19.2,19.2,0,0,0-19.4,5.2c-4.9,5.1-6.1,11.5-6.9,18.3a36.8,36.8,0,0,0,9.4,28.4c4.5,4.7,11.9,3.1,15.3-2s4.4-8.9,6.1-13.9a19.6,19.6,0,0,0,1.2-3.4c.7-4.6.8-5.9.5-3.7l.6-3.7a26.4,26.4,0,0,1-1.5,2.9l-7.5,4.4,1.1-.3h-9a13,13,0,0,0,3.3.7c2.5,0,3,.2,1.6.4l-6.7-5.1c1.1,2.2,2.1,4.4,3.1,6.6l-1-7.4c-.5,2.7-.8,5.4-1.1,8.1-1.5,11.7,17.1,16.1,22.1,6s11.2-14.5,13.7-25.6l-20.6,11.7a14.6,14.6,0,0,0,6.2.9l-13-9.9c1.9,6.8,3.4,15.1,6.9,21.3,5.8,10.3,20.8,13.5,29.3,4.2,2.5-2.7,3.8-5.8,5.5-9s4.2-7.4,5.1-11.8c.4-1.9.7-3.8,1.2-5.6s2.6-5.5.3-2.1a6.5,6.5,0,0,1-1.8,3.1c-2.2,3-1.4,1.9,2.6-3.3a27,27,0,0,0,3.2-12.2l-3.1,11.2.4-.5-29.4,7.7,1.3.7-7.2-7.2c-.6-1.8-.6-1.5-.1.8l.8,3.9,1.2,5.8,2.8,13.6c3.2,15.8,26.8,22.5,37.4,9.9a41.1,41.1,0,0,0,2.7-3.5c2.1-2.6,2.4-3,1-1.2s.3-.1,1-.9a99.6,99.6,0,0,0,7.3-9.8,57.3,57.3,0,0,0,4.6-8.4,55.3,55.3,0,0,0,2.2-6.5c1.9-6.3,3.4-1.3-4.5,6.2l-12.7,7.4,1-.2-22.1-2.9c-8.3-15.2-11.8-19.4-10.7-12.5l-1-7.7c.7,9.9,1.3,19.8,3.8,29.5,3.4,13.1,17.1,24.2,31,23.6a36.7,36.7,0,0,0,16.2-4.4c6.1-3.2,13.8-12.1,14.8-19.2s1.3-17.1,2.4-25.7l-1.2,8.7a128.7,128.7,0,0,0,1.7-16.3,86.7,86.7,0,0,1,.6-8.8l-1.1,8.2a17.8,17.8,0,0,1,1-3.8l-3.1,7.2c1.4-2.9,2.1-6.4,3.8-8.9s.1-.8-1,1.9a20.2,20.2,0,0,1-4.3,6.8c6.4-5.2,8.4-14.6,7.3-22.3s-5.7-14.2-12.7-19.4Z"/><path class="e" d="M1559.6,158.7l2-2.3c5.7-6.5,5.1-16.7-2.7-21.3s-16.9,0-19.9,8.1-5.1,18.8-1.5,28.4c2,5.4,6.4,9.5,12.5,9.5s11.4-4,12.5-9.5a86.4,86.4,0,0,0,1.9-12.4,60.4,60.4,0,0,1,.7-8.8l-13.1,10c1.4-.2,6.1,0,7.6-1.7Z"/><path class="e" d="M1541.9,142.9a17.1,17.1,0,0,0,11.9-4.9,11.3,11.3,0,0,0,3.5-5.4,12.2,12.2,0,0,0,1.5-6.5c-.2-4.4-1.6-8.9-5-12a16.9,16.9,0,0,0-23.8,0,12.9,12.9,0,0,0-3.5,5.5,12,12,0,0,0-1.5,6.5c.2,4.3,1.7,8.9,5,11.9a17.5,17.5,0,0,0,11.9,4.9Z"/><path class="e" d="M1529.8,187.6c-7.7,3.8-7.3,14.3-2.1,19.9a21.4,21.4,0,0,0,10.2,6.1c4.7,1.3,8.9.3,13.6.5,7.3.4,14.3-6.6,13.9-13.9s-6.1-14.3-13.9-13.9c-4.5.3-9.4.9-13.6,2.6-1.8.5-1.8.5-.1.2a2.3,2.3,0,0,1,1.8.5,10.5,10.5,0,0,0-5.4-1.5c-2.6,0-1.1,1,4.3,3.1a6.1,6.1,0,0,0-8.7-3.6Z"/><path class="e" d="M1664.2,76.8c16.6,19,45.3,20.1,68.7,18.4a206,206,0,0,0,39-6.3c15.6-4.2,37.7-9.5,42.5-27.1,3.1-11.5-3.9-23-15.1-26.5-14.6-4.6-28.7,7.8-41.4,13.7l-4,1.8c1.8-.8,2.1-.9.2-.1l-7.5,2.8a154.3,154.3,0,0,1-16,4.8c-5.1,1.3-10.3,2.3-15.4,3.2-1.5.3-2.3.4-.4.1l-4,.5-7.2.4c-2.6.1-5.3-.1-7.9-.2-.8,0-2.4-.2-.7,0a26.6,26.6,0,0,1-3.9-.7c-4-.9-9-1.7-12.5-3.3-5.4-2.4-11.5-2-15.3,3s-3,11,.9,15.5Z"/><path class="e" d="M1777.8,17.1c-3.4,4.5-7.1,8.9-9.3,14.2s-4.3,10.7-6.3,16.1c-3.7,10-7,20.2-10,30.4s-5.4,19.8-6.8,30.1c-1,6.7-2.2,13.6-2.6,20.3s.7,11.4,1.3,16.9c1.2,10.8,7.4,19.7,18.8,21.2s21.5-4.9,23.7-15.4c1.2-5.9,2.8-11.7,3.6-17.6s1.1-11.5,1.7-17.2c1-10.6,1.6-21.1,2.7-31.6.2-2.5.5-4.9.8-7.4s.3-2.4.4-3.7.6-4.2.3-1.9.2-1.6.3-2,.3-2.5.5-3.7c.5-2.8.9-5.6,1.4-8.4.9-4.9,2.1-9.8,2.9-14.8s.8-12.6,1-18.9a13.4,13.4,0,0,0-9.6-12.6c-6-1.7-11.3,1.3-14.8,6Z"/><path class="e" d="M1695.4,140.9c12.2-4.5,24.5-8.4,37-11.7,6.1-1.6,12.2-2.9,18.2-5l8.9-3c8.1-2.8,12.9-6.7,18-13.7l-43.4-11.8c-.2,2.9-1.3,2.3-.1-.7l4.9-8.3c-2,1.9-4,3.8-6.1,5.6l-3.2,2.6c-.9.8-.9.7.1-.1l-1.4,1.1c-2.2,1.6-4.5,3.5-6.9,4.9,1.5-.8-1.1.5-1.7.7l-4,1.4-3.1,1.1c-4.2,1.6,2.6.2-1.5.3a40,40,0,0,0-10.3,1.4,26.5,26.5,0,0,0-15,11.5c-4.9,8-3.5,16.5.3,24.5,4.6,9.7,16.3,12.1,25.8,10.5,12.6-2.1,25.2-4.6,37.8-6.8s18.3-15.3,16.9-25.9-11.4-20.6-23.2-20.5c-7.9.1-15.6,2.3-23.3,4.1l-20.4,5.1,25.8,10.5c-2.8,16.5-2.4,21.7,1.4,15.8l1.7-2.4c-3.5,3.1-4,3.7-1.6,1.9l2.8-2,2.8-2c1.7-.7,1.9-1.1.7-1.1,1.4-1,3.8-1.4,5.4-2,4.8-1.8,9.5-3.8,14.1-5.9a49.2,49.2,0,0,0,6.1-3c3.1-1.6,1.8-1.3-4,.9h2.5c9.8.4,20.2-7.5,22.4-17.1s-1.8-20.2-10.7-26.3-17.4-4.6-26.6-3.9a163.2,163.2,0,0,0-24.8,4.4c-12.5,3.1-24.9,6.8-37.1,11.1s-24.3,19.3-19.4,34.2,19.5,24.8,34.2,19.5Z"/><path class="e" d="M1799.6,141.4c7.9-11,11.5-24.3,15.1-37.2,1.7-6.2,2.9-12.4,4.1-18.7.7-3.5,1.5-6.9,2.1-10.4,1-5.6.2-9.8-2.2-14.9l1.7,6.3c.7-10.3,2.8-21,1.7-31.3-.5-4.2-5.9-7.9-9.4-3.9-7.1,8.3-11.2,19-15.8,28.9l4.5-4.6c-4.4,3.2-7.4,6.3-9.1,11.6-1.1,3.4-1.9,6.8-2.8,10.2a164.7,164.7,0,0,0-4.3,21.8c-1.7,13.6-2.6,27.5,2.1,40.6,2,5.7,8.8,6.4,12.3,1.6Z"/><path class="e" d="M1560.3,392.3c-5,10.8-1.7,21.5,4.9,30.8s17.9,14.5,28,15.7c6.7.8,9-7.2,6.9-12.1s-6.4-10.4-9.6-15.5c-2.1-3.3-4.7-5.4-7.3-8.1-.4-.5-1.9-3-2.1-2,1.2-5.5-1.2-11.3-6.6-13.5s-11.9-.5-14.2,4.7Z"/><path class="e" d="M1553.2,393.2c-9.3,12.3-6.4,29.6-.5,42.7,7.4,16.5,22.5,23.9,38.7,29.5,7.4,2.6,15.6-2.3,18.4-9s.7-16.2-6.4-19.5a92.1,92.1,0,0,1-15.5-9l-2.2-1.7-4.3-3.1c2,1.6-1-1.1-1.3-1.4l-1.1-1.2c1.3,1.6-1.1-1.6-1.1-1.6s-1.2-2-1.8-3-1.1-2-1.6-3.1c1,2.1-.6-1.9-.6-2a65.4,65.4,0,0,1-2.3-6.4s-.6-3.5-.5-1.9c0-.3.1-3.2-.1-1.9,1.7-11-11-16.4-17.8-7.4Z"/><path class="e" d="M1582.9,448.3c5.5,23.6,36.1,20.4,54,15.5,8.5-2.4,16.8-5.2,25.4-7.4,4.1-1,8.2-1.7,12.4-2.5a39.8,39.8,0,0,0,6-1.2c-.6.2-5.4.3-2.4.4h3.3c11.5.4,22.5-10.3,22-21.9s-9.7-21.5-22-21.9c-19.4-.7-34.1,10.4-49.4,20.5-3.3,2.1-6.6,4.2-10,6.1l-5,2.7-2.2,1c1.1-.5,1.6-.6.1-.1-4,1.3-8.1,2.8-12.4,3s-7.5,1.2-11.2-.8-9.8,1.7-8.6,6.7Z"/><path class="e" d="M1575.5,415.6l2.6.8h.2a37.1,37.1,0,0,0,6.5,2.7c1.7.5,3.5.9,5.2,1.5l2.2.8c-1.6-.8-1.5-.7.4.1a170.7,170.7,0,0,1,18.5,10.7c6.3,4.1,13.6,7.3,20.4,10.5a80.9,80.9,0,0,0,28.9,7.6c8.4.7,15.7-6.9,16.7-14.7s-4.2-15.4-12.2-18.7c2.8,1.2-2.9-1.5-3.4-1.8l-4.4-2.5c-3.6-1.9-7.2-3.6-10.7-5.6-8.1-4.6-15.7-9-24.4-12.3a114.9,114.9,0,0,0-21.5-6.2c-5-.8-10-1.5-15.1-.9s-9,2.9-12.8,5.5c-8.5,5.8-7.7,19.4,2.9,22.4Z"/><path class="e" d="M1596.1,446.2c7.1,1.6,14.2,3.5,21.4,4.8a30.1,30.1,0,0,0,23.2-5.5c2.9-2.3,2.7-6.8,1.3-9.8-3.2-6.2-11.2-11.8-17.6-13.4s-13.7-3-20.5-4.6-15.9,2.4-18.1,10.4,2.5,16.4,10.3,18.1Z"/><path class="e" d="M1720.5,474.9c-4,6.9-4.9,14.6-3.7,22.4s7.7,16.3,13.7,22.4a67.6,67.6,0,0,0,21,14.9c9.1,4,23.3,9.2,30-1.5l-9.1,5.2c4.4-.3,8.7-.8,13.1-1.5s5-8.1,1.4-10.7-4.8-3.8-7.1-5.8l3.1,7.5c1-8.6-8.9-13.9-15.2-17.6l-17.1-9.9a53.9,53.9,0,0,1-12.8-10c-4.5-4.5-8.3-7.7-9.6-14.4-.7-3.6-6-4-7.7-1Z"/><path class="e" d="M1717.9,485.1c1.4,5.4,3,10.6,6.2,15.2a157.3,157.3,0,0,0,10.3,12.9,103.3,103.3,0,0,0,8.3,7.9c5.9,4.8,12.6,7.1,19.7,9.2s18.9-1.5,23-9.3,2.9-17.5-3.2-24.6c-.5-.6-4.1-4.1-3.9-4.8,2.9,3.9,2.3,3.1-1.8-2.3a21.7,21.7,0,0,0-5.7-4.7l-2.2-1.6c-2-1.4-1.5-1,1.4,1.2-1-1.3-2.9-2.4-4.1-3.5s-5.1-5-7.5-7.7-7.9-6.7-12-9.8c-6.1-4.6-16.1-2.7-21.6,1.5a19.6,19.6,0,0,0-6.9,20.4Z"/><path class="e" d="M1739,505.9a18.9,18.9,0,0,0-4.8,7.7c-1.5,5.5.8,10.7,3.3,15.5a73,73,0,0,0,14.4,18.8c6.6,6.3,15.1,10.2,23.4,13.8,12.7,5.6,27.6,14.8,41,5.5l-11.8,3.2,5.7-.6c8.5-1,15.5-4.5,19-12.8s1.8-17-4.3-22.7l-3.9-3.6,6,10.3c-3.6-10.3-9.9-16.6-20.7-19.2l-11.1-2.6c-7.4-1.9-14.5-4.7-21.8-6.7-3-.8-5.9-1.5-8.9-2.5s3.1,1.7-1.2-.6c-1.4-.7-2.7-1.3-4-2.1-4.8-2.9-9.1-4.9-14.9-3.8-1.9.4-4.2,1-5.4,2.4Z"/><path class="e" d="M1804.2,559.5l3.9,2.4c1.9,1.1-.3-.4,1.4,1s6.1,3.9,9.1,6c7.1,4.9,17.2.4,20.3-6.9s-.7-17.8-9.3-19.3c-4.9-.9-10.2-1.8-15.1-.5a46.4,46.4,0,0,0-10.3,4.2c-5,2.6-5,10.5,0,13.1Z"/><path class="e" d="M1721.3,519c.6,4.3,1.6,8.7,4,12.4s7.8,8.1,12.1,11.4c7.6,5.7,15.8,8.4,24.9,10.9s18.2-2.9,20.2-11.5-2.9-16.8-11.5-20.3l-2.8-1.2c1.6.7,1.5.7-.2-.1l-4.2-1.9c-3.9-1.8-7.9-3-11.9-4.5l-2.1-.8c1.5.6,1.4.6-.3-.2l-3.9-2.2c-3.1-1.6-7.2-2.4-9.4-3.5-8.6-4-16.1,2.6-14.9,11.5Z"/><path class="e" d="M1807.1,550.3a50.3,50.3,0,0,1,5.8-5.5l-3.8,2.9a43.5,43.5,0,0,1,7.4-4.6c4.6-2.2,7.6-7.1,9.1-11.8a19.8,19.8,0,0,0-16.4-24.7c-6.6-.9-11.7,1.3-16.6,5.5a54,54,0,0,0-13.3,16.7c-4.1,7.9-2.6,17.3,4.6,22.9s17.4,5.2,23.2-1.4Z"/><path class="e" d="M1757.1,479a346.8,346.8,0,0,0,33.5,36.1c6,5.6,12.2,11.7,19,16.2s14,9.6,22.3,9.3c4.4-.2,6.6-4.5,4.8-8.3-3.7-7.3-11.6-11.6-18.2-16.2s-13-7.9-19.3-12a349.1,349.1,0,0,1-38-29.3c-2.9-2.6-6.5,1.2-4.1,4.2Z"/><path class="e" d="M1797.4,501.4c11,8.9,21.1,19.1,31,29.3,2.5,2.6,5,5.1,7.4,7.7s4.1,6.1,6,9.2c3.4,5.6,7.2,10.8,11.1,16.1,6.7,9.1,14.1,17.5,23.3,24.1a52.5,52.5,0,0,0,13.8,6.9c7.1,2.4,15,.4,22-1.6,12.6-3.5,11.4-20.5,0-24.5l-4.3-1.6c2.7,1.1-1-.5-1.2-.7a45.2,45.2,0,0,0-8.9-3.3,53.6,53.6,0,0,1-5.7-1.7c4.2,1.4-1.5-.9-2.8-1.7l-4.9-3.4-2.3-1.7-.9-.7a88.6,88.6,0,0,0-15.8-9.8c-5.8-2.9-11.7-5.3-17.6-8s-11.6-7.9-17.2-12.4c-10.3-8.3-20.8-16.5-32-23.6-.8-.5-1.8.8-1,1.4Z"/><path class="e" d="M1824.4,544.5c1.1,2.9,2.1,5.7,3.2,8.4,2.4,5.9,6.8,8.5,12,11.5,7.6,4.3,15.3,8.5,23.1,12.5s16.2,7.1,24.6,10.1,23.4,9.5,30-2.3c3.4-6,1.3-13-3.6-17.4s-9.5-4.9-14.2-6.9c-7.8-3.2-15.6-7.1-23.6-9.9s-16.4-6.1-24.5-9.4c-5-2-9.6-4.3-15.2-3.2-3.2.7-6.3,1.7-9.4,2.5a3.4,3.4,0,0,0-2.4,4.1Z"/><path class="e" d="M1751,458.1s1.2,1.2,1,1.3-.7-2.5-.7-2.8c-.4-1.8-.6-3.6-1-5.3-1.2-5.3-4.8-8.8-9.2-11.7-6.3-4.4-14.2,1.5-14.5,8.3-.1,3.3.2-1.2,0,.7a25.2,25.2,0,0,0-.5,4.8,34.5,34.5,0,0,0,1.8,7.7c1.4,4.5,3.3,10,6.9,13.1s11.6,4.6,16.2,0,4.1-11.6,0-16.1Z"/><path class="e" d="M1463.8,359.1c20.4,16.4,47.8,20.6,73,23.9l40.7,5.7,20.1,3c8.5,1.2,16.9.8,25.5.8s17.7-7.9,17.3-17.3-7.7-16.1-17.3-17.3c-6.8-.9-13.8-2.3-20.6-2.4s-13.7.3-20.6.4q-20.6.5-41.1.6c-24.9.2-50.6,4.7-75.3-.2-1.5-.3-3.1,1.7-1.7,2.8Z"/><path class="e" d="M1541.6,371.6l-.4-1.9a1.2,1.2,0,0,0-2.4,0l-.4,1.9a1.7,1.7,0,1,0,3.2,0Z"/><path class="e" d="M1534.4,347.4a37.9,37.9,0,0,0-5.8,11.1c-1.4,4.3-.8,8.6-.1,13s2.4,9.2,6.6,11.9,6.6,3.8,9.8,3.5a3.9,3.9,0,0,0,3.3-1.9,24.8,24.8,0,0,0,.3-17.4c-1.1-3.3-1.6-6.7-2.8-10a32.2,32.2,0,0,1-1.9-7.7c-.5-5.1-6.4-6.7-9.4-2.5Z"/><path class="e" d="M1615.6,368a124.7,124.7,0,0,0,1.3,16l1.2-8.8c-2.9,6.2-2.8,11.3-1.2,17.9a31.3,31.3,0,0,0,8.6,15.6c8.5,8.3,20.2,13.2,31.4,16.3a20.4,20.4,0,0,0,24-11.8c4.1-9.8.1-19.6-8.3-25.5-4.7-3.2-8.7-5.9-14.1-7.9l-6.1-2.2c-1-.4-5.7-2.4-1.4-.5a76.9,76.9,0,0,0-12.2-4.3c-3.2-.8,1.7,1.2-1.1-.6s-6.2-2.4-9.8-2.7l8.1,3.4c-3.2-3.1-6.1-6.4-8.9-9.7s-11.7-.8-11.5,4.8Z"/><path class="e" d="M1670.8,405.2c-1.9,7.8.8,15,7.5,19.4s11.3,7.2,16.8,11a183.3,183.3,0,0,0,17.5,10.9c6.5,3.5,12.9,7.6,20.5,6.2,3.7-.6,6.6-5.7,5.3-9.3-2.4-6.2-7.8-9.6-12.6-14s-9.1-8.4-14.1-12.3a125.6,125.6,0,0,0-15.5-10.7c-2.2-1.2-4.4-2.6-6.7-3.7s-4.2-1.4-7.4-1.9c-.8-.2-1.1-.1-.8.1-4-1.8-9.4-.6-10.5,4.3Z"/><path class="e" d="M1691.1,420.5a22.1,22.1,0,0,0,11-16.4c.9-6.5,0-.8-.2.5s.8-1.4,1.1-2c2.8-5.6,4.3-11.6,6.6-17.4s-1.4-15.1-6.5-19.1-14.5-5.7-20.2-1.4c-10.3,7.7-21.4,17.1-23.4,30.7s3,22.7,15.3,26.9a19.9,19.9,0,0,0,16.3-1.8Z"/><path class="e" d="M1708.6,416.5c-1.7,4-.5,1.7-.2.8-1.7,2.1-2,2.6-1.1,1.5l.8-.7c2.1-2.2,3.1-4.4,4.8-6.7l-2.5,3.4a8,8,0,0,1,1.5-1.7c6.3-5.9,6.4-17.4,0-23.3a17,17,0,0,0-23.3,0c-4.4,4.2-8,10.3-8.1,16.6a24,24,0,0,0,4.2,13.2c3,4.4,7.5,7,13,6.3s8.9-4.4,10.9-9.4Z"/><path class="e" d="M1429.6,365.4a259.8,259.8,0,0,0,41.1,9.1c6.7.9,13.6,1.9,20.4,1.9s13.9-1.7,20.6-3c2.9-.6,2.1-4.9-.7-5-6.6-.2-13.3-1.2-19.9-1.2s-13.3.5-20,.3a233.9,233.9,0,0,1-40.8-4.6,1.3,1.3,0,0,0-.7,2.5Z"/><path class="e" d="M1519.7,361.2c-11.4-1.5-22.7-3.7-34.1-4.5l-15.7-1.4-4.3-.5h-.9l-8.6-1.4a206,206,0,0,1-30.1-7.2l-4.1-1.3a14.7,14.7,0,0,0-2.9-.5,13.8,13.8,0,0,0-6.4.3l3.2-.2-1.7-.3a30.6,30.6,0,0,0-4.1-1c-6-1.4-11.5-3.7-17.7-2.3s-8.6,7.2-6.8,12c2.5,6.4,7.4,9.7,12.9,13.5s9.1,7.1,15.8,9.7c10.4,3.9,21.6,6.2,32.5,8.1s23.6,3.4,35.4,4.4,22.6,0,34-.6c6.7-.3,12.5-4.9,13.3-11.8s-3-13.9-9.7-14.9Z"/><path class="e" d="M1478.8,355.9c.5.3,3.3,4.8,2.7,2.5s-2.1-2.6-3.2-3.6c-6.3-5.9-2.3-2-1.8-1s.7,2.1.3.5a47.1,47.1,0,0,0-2.5-7.5c-1.3-2.9-3.5-5.2-5.1-7.8-3.4-5.4-5.8-11.7-13.2-11.7s-10.5,6.3-10.3,12.4c.1,2.5.5,4.9.6,7.3s-.5,6.3.2,9.4a40.4,40.4,0,0,0,6.7,15.3c4.6,6,12.1,9.9,19.7,7.8s11.3-8.3,10.9-14.8c-.2-3.4-1.7-7.2-5-8.8Z"/><path class="e" d="M1510.9,358.5c-2.9-1.9-3.2-4.9-3.8-8.2s-1.9-9.5-3.2-14.1a124.6,124.6,0,0,1-4.1-16.8c-.8-6.3-.5-13-.4-19.4.1-4.6-7.4-5.9-8.3-1.1-1.4,7.5-2,15.1-3.4,22.6s-3.3,14.6-3.3,21.8c-.1,12.7,5.8,25.1,16.7,31.9s20.4-10.2,9.8-16.7Z"/><path class="e" d="M1311.5,308.5a252.2,252.2,0,0,0,53.7,47.3c10.2,6.6,22.5,10.7,34.1,14.4,2.8.9,5.7,1.9,8.7,2.7a24.5,24.5,0,0,0,5.3.9,10.3,10.3,0,0,0,5.5-1.2c2.6-1,2.3-1-.7-.1.1-.3,7.3,0,8,0,4-.1,6.8-.4,9.9-3.2s2.8-4.8,1.9-6.9c-1.6-3.7-3.6-5.5-7-7.4s-5.5-2.5-6.8-4.1l3.3,5.7c-1.7-4.8-4-8-8.6-10.1-2.5-1.2-5.3-2-7.9-3-5-1.9-6.9-2.7-11.7-4.9s-8.8-4.6-13.3-6.7-10-3.9-13.9-5.7a258.4,258.4,0,0,1-50.8-30.3c-3.1-2.4-8.2-.8-10.3,2.1s-2,7.3.6,10.5Z"/><path class="e" d="M1315.6,298.9c0,4,.6,7.9,3.5,10.9s6.1,5,9,7.2a75.5,75.5,0,0,0,17,9.7c14.1,6.1,37.5,17.4,50,3.7l-6.1,3.5c4.7-1.8,10.3-3.4,14-7a8.2,8.2,0,0,0,0-11.4c-3-3-7.2-4.6-10.7-6.8l4.9,5c-3.3-5.6-8.1-9.6-14.7-10.5-3.6-.5-7.2-.7-10.7-1.1l-2.5-.4-4.2-.8a92.8,92.8,0,0,1-9.1-2.2c-6-1.6-12-3.5-17.9-5.3-2.6-.8-5.2-2.1-7.9-2.7s-7.4.4-11,2-3.6,3.9-3.6,6.2Z"/><path class="e" d="M1545.7,220.9c8.9,1,17.8,2.2,26.8,3s18.4-2.2,26.8-3.6c17.1-2.9,34-6.6,51.5-6.9s33.8.1,50.7-1.9c9-1.1,18-2.2,26.9-4s19.8-4.1,28.5-8.3c7-3.5,9.3-12.9,6.5-19.7a15.8,15.8,0,0,0-18.6-9.1c-4.4,1.2-8.7,3.5-12,4.9l-12,4.6c-8,3.2-16,6.3-24.2,9.1-15.9,5.5-32.3,11.9-48.9,15.4s-34.6,2.8-52.1,2.1c-8.8-.3-17.8-1.6-26.4.1l-24.7,5.2c-5.6,1.1-3.6,8.6,1.2,9.1Z"/><path class="e" d="M1724.7,202.1h3.5c2.5.2,2.3-.2-.7-1.1,3.7,1.9,7,2.1,10.9,1.7,5.7-.6,11.5-.9,17.2-2,9.4-1.8,18.9-4.9,28.1-7.6,20.6-6.2,39.9-15.8,58.4-26.8,7.9-4.7,15.7-15.3,14.4-25.1l-.2-1-8,19.4q6.9-5.7,13.8-11.7c9.2-8,8.9-23.2,1.9-32.2-3.1-4.1-7.6-7.7-12.8-8.8-6.8-1.6-12.5-.3-18.9,2.4l-3.4,1.5c-.8.4-5.8,2.5-2,.9s-.4.2-1.1.4l-4.1,1.7,21.1,2.8-.7-.5c-8.2-6-21.2-4.9-29.4,0s-16.9,10.2-25.4,15.3-16,10.4-23.8,16.1-17.8,12-26,18.8c-3.6,2.9-6.9,6.1-10.4,9.1a21.6,21.6,0,0,0-6.4,8.8c1.9-4.8-1.5.2-2.8,1.4-6.1,5.7-1.5,16.8,6.8,16.6Z"/><path class="e" d="M1885.5,85.5l13-14c5-5.5,8.2-11.7,11.7-18.1,8.2-15.2-11.2-30.5-23.9-18.4-5.3,5-10.5,9.7-14.4,15.9l-10.3,16.2c-9.1,14.5,12.1,31.2,23.9,18.4Z"/><path class="e" d="M1389.2,337.9c12.8,6.9,25.8,13.3,39.1,19.1,7,3.1,14.1,6.1,21.3,8.9s17,6.1,24.5,3,11.2-9.9,6.8-16.8-13.1-10.1-21.1-12.8-13.6-4.2-20.4-6.4c-13-4.4-26-9.2-38.7-14.7-5.6-2.4-12.2-1.7-15.6,4.1s-1.3,12.6,4.1,15.6Z"/><path class="e" d="M1750.6,439.3c8.6,10.1,17.1,20,25.1,30.5s15,19.5,24.4,27.5a232.1,232.1,0,0,0,63.4,39.6,89.1,89.1,0,0,0,20.9,5.9c8.4,1.4,18.3,4.2,26.4,1.1s10.2-11.3,4.7-17.6-11.8-7.2-18.3-10.2-12.5-6.1-19.1-8.4l-7.9-3-3.9-1.5.7.3-2.5-1.1c-5.3-2.4-10.6-4.8-15.8-7.4a229.4,229.4,0,0,1-28.5-17.2c-9.4-6.5-18.8-12.9-28.1-19.5-5.2-3.7-10.8-7.4-15.4-11.8s-11.1-11.1-16.6-16.7-15.1,3-9.5,9.5Z"/><path class="e" d="M1721,427.4a75.5,75.5,0,0,1,2.6,9.3v-6c-4,9.6,8.7,20.3,14.1,27.2.2.4,2.1,2.8,1,1.4s.4.5.5.6l3.4,4.5c3,4,6.3,7.8,9.5,11.6,9.1,10.6,17.9,21.5,27.2,32a256.8,256.8,0,0,0,27.1,27.1,218.3,218.3,0,0,0,19.5,14.9c6.9,4.7,14.7,7.9,22.5,11a189.3,189.3,0,0,0,23.4,7.9c11.9,3.2,29.1,5.7,40.4-.4s11.5-21.3,3.9-30.4c-3.1-3.7-7.2-5.2-11.5-7-1.1-.5-3.7-1,.7.3l-2.8-1.2a124.9,124.9,0,0,0-15.2-6.3c-3.5-1.1-6.9-2.3-10.3-3.6l-5.2-2c-2.4-.9,3,1.3,2.7,1.2l-3.6-1.6a302.7,302.7,0,0,1-34.3-18.1c-5.3-3.3-10.4-6.9-15.4-10.6s3.2,2.5.3.2l-3.7-3c-2.5-2-5-4-7.4-6.1-10.4-8.9-20.3-18.2-30.4-27.4-7-6.3-14.3-12.2-21.9-17.9s-18.6-16.9-29.3-11.1l5.7-1.5c-1.9-.1-5-.9-7.2-1.2s-7.5,2.2-6.3,6.2Z"/><path class="f" d="M1410.5,216.6c-11.9,15.7-18.3,36.5-21.3,55.8a174.1,174.1,0,0,0-2.1,28.9c.2,9.5.7,20,4.9,28.8.9,1.9,3.5.7,3.6-1,.7-9.2-1-18.6-1.1-27.8a161.6,161.6,0,0,1,2.3-29.5c3.4-18.9,10.5-35.9,17.8-53.5,1.1-2.6-2.7-3.6-4.1-1.7Z"/><path class="f" d="M1394.3,206.8c-31-3.9-62.4,11.8-83.2,34.3-10.1,11-15.9,23.8-16.3,38.8-.5,16.8,8.9,28,20.7,38.6a149.8,149.8,0,0,0,19.7,15.8c6.2,4.1,15.9,8.9,23.6,6.4a2.8,2.8,0,0,0,1.2-4.7c-2.8-2.6-6.7-4.2-10.1-6.1s-7.6-4.1-11.2-6.4a175.1,175.1,0,0,1-19.9-15.3c-7.3-6.2-14.8-12.4-17.6-21.8s-.8-18.4,3.4-26.6c16.3-32.2,57.6-43.2,90.4-48,3.1-.5,1.8-4.7-.7-5Z"/><path class="f" d="M1360.2,338.2c4.8,2,11.7.6,16.7-.2s10.7-3,16-6.4a2.1,2.1,0,0,0-1.5-3.8c-2.6.5-5.1.5-7.7.8s-5.4,1.3-8,1.9c-5,1.1-10.7.7-15.5,2.1-2.9.9-2.6,4.6,0,5.6Z"/><path class="f" d="M1390.3,236.7c-5.7,2-9.7,9.9-12.2,15a71.6,71.6,0,0,0-6.2,41c.8,5.8,2.8,13.7,8.1,17.1a2,2,0,0,0,3-1.3c1.1-5.1-.9-11-1.7-16.1a63,63,0,0,1,0-18.4,65.9,65.9,0,0,1,5.2-17.4,63,63,0,0,1,4-7.2c1.6-2.6,4-4.9,4.5-8s-1.7-5.8-4.7-4.7Z"/><path class="f" d="M1528,387.8c14.3,4.8,30.5,4.8,45.4,5.7,8.2.5,16.6,1.1,24.9.9,4.7-.2,14.8,1,17.8-3.4a3.3,3.3,0,0,0-.5-4.2c-2.2-2-4.9-1.5-7.6-1.4l-9.7-.2c-8.3-.3-16.6-.3-24.9-.6-14.9-.5-29.8-2.1-44.7-1.8a2.6,2.6,0,0,0-.7,5Z"/><path class="f" d="M1612.7,389.4c4.5,7.2,12.3,12.7,20.1,15.8,5.3,2.2,10.9,3,16.1,5.8s9.1,5.4,14.9,6.4,10.6.9,15.9,1.5,6.7,3,9.4,5.8c5.3,5.4,9,12.2,14.4,17.6a2.8,2.8,0,0,0,4.7-2.8c-1.9-6.8-7.7-12.9-12.6-17.8a38.5,38.5,0,0,0-8.7-6.8c-3.4-1.8-7-1.8-10.8-1.8-6.5-.1-12.6-.2-18.8-2.2s-9.9-4.4-15.1-5.9c-10.5-2.9-21.6-7.6-29-16-.2-.2-.6.1-.5.4Z"/><path class="f" d="M1698.1,426c3.9,14.6,17.1,22.8,28.4,31.4a91.2,91.2,0,0,1,19.9,21.2,88.4,88.4,0,0,0,18.2,19.9c7.7,6,16.2,10.8,24.4,16.1a249,249,0,0,1,24.9,18.3c4.1,3.4,8.7,6.2,12.4,10s7.2,7.7,10.7,11.7c6.2,7.4,11.5,16.1,18.4,22.8s17.7,12.5,27.6,16.1,21.2,6.1,32,4.9c2.2-.3,3.6-3.3,1.3-4.6-16.3-8.6-35.4-8.9-50.6-20.1-8-5.9-14.8-12.8-21.6-20s-14.3-13.1-20.9-20.2-14.7-12.8-22.4-18.2-15.7-10.4-23.7-15.4-16-10.1-22.4-17.2-10.8-14.8-17.7-20.9c-12.9-11.4-32.2-18.5-38.2-36-.2-.4-.8-.3-.7.2Z"/><path class="f" d="M1385.4,208a139.7,139.7,0,0,0,19.1,4.6c6.2,1.3,12.1,2.6,18.5,2.6,3.5,0,3.8-4.7.8-5.9-6.3-2.3-12.7-3.1-19.3-4.2a124.9,124.9,0,0,0-18.4-2.2c-3.1-.1-3.4,4.2-.7,5.1Z"/><path class="f" d="M1414,210.3c6.4-.3,12.7-.4,19.1-.8l20.2-1.6,19.3-1c6.2-.3,13.2.1,19.2-1.7a2.9,2.9,0,0,0,0-5.6c-5.9-2.1-13-1.7-19.2-1.7a197.2,197.2,0,0,0-20.3,1.1,161.2,161.2,0,0,0-18.3,2.6l-10.4,2.4c-3.5,1-6.5,2.5-10,3.7-1.3.5-1.2,2.7.4,2.6Z"/><path class="f" d="M1484.2,207.1c5.6,1.6,12.5,1.2,18.3,1.6s13.9,3.5,20.8,5a111.7,111.7,0,0,0,18.2,2.2c6.3.2,14.4,1.5,20.4-.4,3.5-1.1,3.1-5.4,0-6.7-5.9-2.5-14.1-1-20.4-1.1a89.7,89.7,0,0,1-20.7-2c-6.7-1.6-13.1-3.7-19.7-5.6s-12.6-2.5-17.8.2c-2.9,1.5-2.1,6,.9,6.8Z"/><path class="f" d="M1560,215.8c36.2,1.8,73-2.9,108.5-10.2a415.4,415.4,0,0,0,52.4-14.6c8.5-3,17-6.3,25.3-9.8,4.2-1.7,8.4-3.5,12.5-5.5s8.7-3.8,11.3-8.1-.9-8.6-5.2-9-9.2,2.6-13.4,4.5l-11.5,5.4q-11.6,5.3-23.4,9.9-25.1,9.6-50.9,16.6c-34.6,9.3-69.9,12.7-105.6,14-4.3.2-4.3,6.6,0,6.8Z"/><path class="f" d="M1758.2,177.4a72.8,72.8,0,0,0,17.1-3.8c5.1-1.8,10.9-3.4,14.2-7.8,1.9-2.7-.8-6.4-3.7-6.4-4.9-.1-9.5,3.2-14,5s-9.7,3.8-14.6,5.7-3.6,7.8,1,7.3Z"/><path class="f" d="M1787.7,165.5c7-6.3,12.4-13.1,18-20.6,2.6-3.7,5.3-7.3,8-10.8s6.7-7,8-11.6-3.1-6.5-6.5-4.9-6.6,6.4-9.2,9.9-5.1,7.5-7.5,11.3c-5.1,7.8-9.9,15.7-15,23.5-1.6,2.6,2,5.1,4.2,3.2Z"/><path class="f" d="M1788.7,43.3c-5,8.5-7.3,19.8-9.4,29.5a192.4,192.4,0,0,0-3.8,61.7c.6,5.1,1.3,10.1,2.4,15.1.5,2.4.8,5.2,1.7,7.4s2.8,5.1,4,7.7,6,1.5,5.8-1.5a115,115,0,0,0-1.3-14.4c-.9-4.9-1.7-9.9-2.4-14.8a181.9,181.9,0,0,1-1.8-29.5,171.6,171.6,0,0,1,2.9-29.6c.9-4.9,2-9.8,3.3-14.6s3.2-9.8,3.9-14.8c.5-3.1-3.5-5.3-5.3-2.2Z"/><path class="f" d="M1649.9,31.8c.7,9.4,3.8,18.7,6.3,27.7s5.5,19.9,8.3,29.8,5.3,19.3,8,28.9,4.8,19.6,9.2,28.1c1.1,2.2,4.9,1.2,4.7-1.3-.7-9.2-4.3-18.9-6.8-27.8s-5.7-19.8-8.6-29.7l-8.4-28.7c-2.7-9.3-5.1-19.2-9.5-27.8-.8-1.5-3.3-.8-3.2.8Z"/><path class="f" d="M1642.4,86.3l.3-1.1c1.9-6.2-8.9-7.4-8.4-1.2,1.2,16.8,4.1,33.6,10.1,49.4,2.3,6.1,5,12.5,9.5,17.3a19.9,19.9,0,0,0,15.1,5.5c2.3-.2,2.9-2.8,1.1-4.2a46,46,0,0,1-6.2-5.5l1.3,3.1c-.4-4.9-4.9-8.5-7.2-12.7a87.4,87.4,0,0,1-6.2-15.6,230.5,230.5,0,0,1-9.1-38.4l-1.9,4.9c.6-.4,1.4-.7,1.6-1.5Z"/><path class="f" d="M1518.8,71.3c2.8,15.9,7.2,31.5,11.5,47,2.1,7.6,4.5,15.1,6.7,22.7s3.8,15.2,7.1,22.1c.9,1.9,4.2,1,4-1.1-.9-7.3-3.5-14.5-5.5-21.5s-4.4-15.9-6.7-23.8c-4.6-15.4-9.2-30.9-15.3-45.9a.9.9,0,0,0-1.8.5Z"/><path class="f" d="M1559.7,176c-.2-5.1.7-12-1.5-16.7a1.5,1.5,0,0,0-2.7.3c-.9,5.1,1.7,11.6,2.8,16.6.1.8,1.5.6,1.4-.2Z"/><path class="f" d="M1486.8,203.9c11.5-2.2,22.6-6.2,33.5-10.5,5.7-2.2,11.4-4.6,17.1-7,4.2-1.7,10.5-3.2,13.6-6.5a3,3,0,0,0-2.1-5c-4.6-.1-9.9,3.5-14.1,5.3s-11.3,4.8-17.1,7.1c-10.5,4.2-21.4,8.3-32.6,10.5-4,.7-2.3,6.8,1.7,6.1Z"/><path class="f" d="M1547.8,176.2c22.1,1,44.3-2.4,66.1-5.8,10.8-1.7,21.5-3.7,32.2-6.2s22-5.6,31.1-12.2c1.3-.9,1-3.5-1-3.4-10.5.4-20.7,3.5-30.8,6.1s-21.8,5.4-32.8,7.5c-21.6,4.3-43.8,6.3-65,12.4a.8.8,0,0,0,.2,1.6Z"/><path class="f" d="M1675.7,150.9c8.9,2.9,18.8,3.6,28.1,4.9l24.9,3.8q12.1,2,24.3,3.6c9.2,1.2,19.3,3,28.5,1.8,2.2-.3,2.9-3.3.6-4.1-8.7-2.7-18.5-3.1-27.5-4.3l-25.1-3.3-25-3.2c-9.3-1.1-19.2-2.4-28.5-1.2a1,1,0,0,0-.3,2Z"/><path class="f" d="M1364.3,193.5c-9.8-9.9-11.3-25.7-5.9-38,6-13.9,18.7-24.2,30.1-33.6s24.3-19.2,37.7-27.1a209.5,209.5,0,0,1,21.2-10.6c3.7-1.5,7.2-3.2,10.9-4.6s7-2.1,9.8-4.6a4.6,4.6,0,0,0-1.9-7.6c-4.3-.9-8.4.6-12.5,1.7a102.9,102.9,0,0,0-12.5,4.5A169.8,169.8,0,0,0,1417.7,87a349.4,349.4,0,0,0-41.7,33c-12,10.8-23.7,24-26.5,40.6-2.2,13.3,1,27.6,13,35.2a1.5,1.5,0,0,0,1.8-2.3Z"/><path class="f" d="M1454.9,77.5c12-1.5,23.4-7.5,34.6-11.8l17.7-6.6a65.6,65.6,0,0,0,7.6-3.5c2.8-1.5,5.8-2.4,7.9-4.9s1.4-5.7-1.7-6.2c-5.3-1-12,1.4-16.9,3.4s-12,5.1-17.9,7.7c-11.2,4.9-23.9,9.1-33.3,17.1-1.8,1.5-.4,5.1,2,4.8Z"/><path class="f" d="M1518.3,48.2c26.5-4.5,52.4-12.3,77.7-21.2,12.1-4.2,24.1-8.9,35.9-13.9,6.3-2.7,12.7-5.4,18.8-8.4s12.5-5.1,17-9.3c1.6-1.5.5-4.9-1.9-4.6-6.2.8-12.4,4.4-18.1,6.7s-11.5,4.9-17.3,7.2c-12.4,5.1-24.9,10.1-37.5,14.8-24.8,9.4-50.2,17.4-75.3,26.2a1.3,1.3,0,0,0,.7,2.5Z"/><path class="f" d="M1550.7,392.9c-2.1,8.4-4.1,16.7-3.4,25.4a53,53,0,0,0,9.1,25.1,78.8,78.8,0,0,0,19.3,18.9c7.3,5.1,16.6,10.7,25.5,12.2a2.2,2.2,0,0,0,1.7-4c-6.4-4.9-14.7-7.5-21.6-11.9a77.6,77.6,0,0,1-19.7-18.2c-5.3-7.1-9.6-15.2-10.7-24.1s0-15.6,0-23.3c0-.1-.2-.2-.2-.1Z"/><path class="f" d="M1594.8,473.2c3.7,2,8.1,1.6,12.2,1.5a92.1,92.1,0,0,0,13.9-1.3,158.1,158.1,0,0,0,26.3-7.5c8.6-3.1,17-6.6,25.6-9.7s17.1-5.3,25-9.5c1.2-.7,1.1-2.9-.4-3.1-8.7-1.3-17,1.2-25.2,4s-16.4,6.4-24.6,9.5a184.1,184.1,0,0,1-25.2,7.9,130,130,0,0,1-15.4,2.4c-4.1.5-8.4,0-12.2,1.8a2.3,2.3,0,0,0,0,4Z"/><path class="f" d="M1693.6,449.3c4.8-1.8,10.2-1.4,15-3.2a2.2,2.2,0,0,0,0-4.2c-2.6-.9-6-.2-8.6.3a39.7,39.7,0,0,0-8.3,2.5c-2.6,1.1-.8,5.6,1.9,4.6Z"/><path class="f" d="M1736.3,468c-2.4,3.6-1.6,10-1.8,14.2s-.3,10.7.8,15.9c1.5,8,6.6,19.3,15.7,20.4,2,.3,3.2-2.8,1.7-4.1-3.3-2.8-6-5.1-8.1-9a37.2,37.2,0,0,1-3.7-13.5,92.7,92.7,0,0,1-.4-12.9c.1-3.6,1-7.8-.8-11a2,2,0,0,0-3.4,0Z"/><path class="f" d="M1752.1,516.4c4,3,10,0,14-2s10.4-6,11.2-10.8c.4-3-1.7-5.3-4.8-4.7s-4.1,2.3-6.1,3.8a50.2,50.2,0,0,1-5.6,3.8c-3.6,2.1-8.2,3.2-9.7,7.5a2,2,0,0,0,1,2.4Z"/><path class="f" d="M1729.7,459.5c-3.2,2.3-6.7,4.6-8.6,8.1a52.9,52.9,0,0,0-4.8,12.5c-2.5,9.7-1.7,19.2,0,29s5.9,20.7,14.1,28.1a103.2,103.2,0,0,0,13.5,10.1c5.3,3.4,11.1,7.5,17,9.5,2.3.9,3.5-2.2,2.2-3.7-6.5-7.6-16.4-12.9-24.4-18.8s-13.3-14.9-15.6-25.4c-1.9-8.6-3.1-17.2-1.3-25.8a56.1,56.1,0,0,1,3.9-12c1.7-3.6,2.3-7.7,4.7-10.9a.5.5,0,0,0-.7-.7Z"/><path class="f" d="M1757.7,552.2c5.9,8.1,20.8,17.6,30.9,11.8,1.3-.7.4-2.4-.9-2.2-9.7,1.4-22.4-3.5-29.7-9.8-.1-.2-.4,0-.3.2Z"/><path class="f" d="M1783.1,560.5a3.7,3.7,0,0,0-3.2-2,4.4,4.4,0,0,0-4.4,4.4v.5a4.9,4.9,0,0,0,2.4,4.2c10.4,6.6,22.5,7.8,34.5,7,6.8-.5,13.6-1.7,20.5-2.5s13.6-.2,19.9-2.2c2.2-.8,3-4.1.7-5.3-5.7-3.1-12.5-2.4-18.7-1.9s-14.4,1.7-21.6,2.1a64.5,64.5,0,0,1-18.6-1.1,39.8,39.8,0,0,1-8.8-3c-2.5-1.3-4.2-2.8-7.1-2l3.4.4h-.4l-1.6,6h.5c2.3.2,3.6-2.8,2.5-4.6Z"/><path class="f" d="M1799,553.3c4.3-1.9,8-5.4,11-9.1s5.8-8,5.8-12.3a3,3,0,0,0-4.4-2.5c-3.5,1.8-6.5,6-9,8.9a114,114,0,0,0-8.4,10c-2.4,3.3,2,6.3,5,5Z"/><path class="f" d="M1454.8,320a263.7,263.7,0,0,1,2.1-34.4c1.5-11.3,3.3-22.7,5.2-34,.5-2.8-3.5-4-4.3-1.2-1.6,5.5-3.5,11.1-4.2,16.8s-1.2,11.4-1.5,17.1a236.9,236.9,0,0,0,1.4,35.7c.1.8,1.3.9,1.3,0Z"/><path class="f" d="M1502.1,215.1c-6.5,16.6-13.7,34.8-13.8,53a1.4,1.4,0,0,0,2.8.4c1.9-8.6,2.9-17.3,5.4-25.8a132.2,132.2,0,0,1,9.9-25.8c1.6-3-3-5-4.3-1.8Z"/><path class="f" d="M1500.6,347c-3.9-8.4-1.3-18.4.1-27.2s2.9-18,4.8-26.9a203.6,203.6,0,0,1,7.1-25.4c2.7-7.8,6.7-16.2,6.8-24.6a1.6,1.6,0,0,0-2.4-1.4c-7.1,5.2-10.7,14.6-13.1,22.7a259.6,259.6,0,0,0-6.3,30.1c-1.6,9.6-2.8,19.3-3.9,28.9s-1.3,18,3.7,25.7a1.9,1.9,0,0,0,3.2-1.9Z"/><path class="f" d="M1533.8,382a96,96,0,0,1,3.4-22q1.3-5.1,3-10.2c1.1-3.3,2.9-6.5,3.5-10,.3-1.9-2.2-4-3.8-2.1-4.5,5.3-6.9,14-8.2,20.8a115.4,115.4,0,0,0-2,23.5,2.1,2.1,0,0,0,4.1,0Z"/><path class="f" d="M1615.2,384a193.8,193.8,0,0,1,4.8-33.8c1.2-5,2.2-10.1,3.5-15.1s3.9-10.9,5.3-16.5a1.3,1.3,0,0,0-2.4-1c-5.9,9.1-9.9,21.5-12.1,32a159.1,159.1,0,0,0-3.2,34.4c0,2.7,4,2.6,4.1,0Z"/><path class="f" d="M1656.2,406.9c6.3-14.2,10.4-29.3,16.2-43.7,3-7.5,6.6-14.7,9.9-22s7.5-14.2,8.9-21.6a2.4,2.4,0,0,0-3.9-2.3c-5.7,5-9.8,13.3-13.3,20.1s-6.5,14.5-9.3,21.8c-5.7,14.8-11.4,30.7-12.2,46.7-.1,1.8,2.9,2.8,3.7,1Z"/><path class="f" d="M1693.9,419c.3-3.2.7-6.3,1.2-9.5s1.3-5.6.2-8.3-4.2-3.2-6-.8-1.6,5.8-1.6,8.8,0,6.5.2,9.8,5.7,3.8,6,0Z"/><path class="f" d="M1878,419l-3.8,4.2a1.1,1.1,0,0,0,1.6,1.6l4.2-3.8c1.3-1.2-.8-3.3-2-2Z"/><path class="f" d="M1838.6,485.1c4.4-5.5,7-12.1,10.8-18.1s8.4-13.4,13.3-19.8c9.4-12.3,20.6-23,30.7-34.8a1.7,1.7,0,0,0-2.1-2.6c-14.4,7.1-25.6,19.3-34.7,32.4-4.5,6.4-9,13.3-12.1,20.6s-6.6,14.1-7,21.9a.6.6,0,0,0,1.1.4Z"/><path class="f" d="M1299,298.3c4.5,11,11.9,19.6,20.6,27.6s19.3,16.6,30.2,21.3c1.9.8,4.1-1.4,2.4-3.1-8.1-7.8-18.6-13.5-27.4-20.4a142.6,142.6,0,0,1-25.3-25.6c-.2-.3-.7-.1-.5.2Z"/><path class="f" d="M1343.8,340.3c4.3,5.7,12.9,9.5,19,13s14.2,7.7,21.6,11a311.6,311.6,0,0,0,46.8,16.1,264.7,264.7,0,0,0,49.1,8c8.1.5,16.2.8,24.3.6s17.3-.6,25-2.7c2.8-.8,1.9-4.5-.7-4.8s-8.1-.1-12.1-.1-8.1-.3-12.2-.4c-8.1-.2-16.2-.5-24.3-1.3a354.4,354.4,0,0,1-46.9-7.3,308.5,308.5,0,0,1-44.8-13.7c-7.8-3.1-15.6-6.3-23.2-9.8l-11-5.3c-3.1-1.6-6.4-3.7-9.8-4.3-.5,0-1.1.5-.8,1Z"/></svg>